<svg version="1.1" xmlns="http://www.w3.org/2000/svg" viewBox="0 0 380 672.8571428571429" width="380" height="672.8571428571429">
  <!-- svg-source:excalidraw -->
  
  <defs>
    <style>
      @font-face {
        font-family: "Virgil";
        src: url("https://excalidraw.com/Virgil.woff2");
      }
      @font-face {
        font-family: "Cascadia";
        src: url("https://excalidraw.com/Cascadia.woff2");
      }
    </style>
  </defs>
  <rect x="0" y="0" width="380" height="672.8571428571429" fill="#ffffff"></rect><g stroke-linecap="round" transform="translate(10 10) rotate(0 179.28571428571428 326.42857142857144)"><path d="M-0.08 0.5 C82.24 -0.56, 161.71 -1.85, 359.45 -1 M0.09 -0.41 C89.96 0.98, 180.9 0.76, 358.06 0.42 M358.52 0.78 C357.19 186.86, 357.23 373.59, 359.04 653 M358.92 0.05 C360.3 178.7, 360.17 357.57, 358.44 652.95 M357.67 651.96 C251.12 653.94, 147.16 652.73, -0.96 654 M358.2 652.97 C227.34 651.87, 96.81 651.51, -0.62 652.85 M-0.07 653.53 C0.2 416.98, -0.24 182.52, 0.31 -0.66 M-0.2 653 C-1.2 471.32, -1.37 290.33, 0.23 -0.35" stroke="#000000" stroke-width="1" fill="none"></path></g><g transform="translate(107.14285714285711 43.85714285714286) rotate(0 75.5 12.5)"><text x="0" y="18" font-family="Virgil, Segoe UI Emoji" font-size="20px" fill="#000000" text-anchor="start" style="white-space: pre;" direction="ltr">Rate the movie</text></g><g stroke-linecap="round" transform="translate(11.428571428571331 575.7142857142858) rotate(0 179.28571428571433 43.571428571428555)"><path d="M-0.15 -0.17 C137.46 2.94, 275.74 1.65, 357.58 0.97 M0.34 0.55 C73.79 -0.16, 147.15 -1.13, 358.37 -0.52 M356.87 1.06 C358.58 25.76, 357.77 47.64, 358.08 85.65 M358.35 -0.66 C358.04 24.56, 357.89 48.28, 357.7 88.13 M357.9 88.04 C229.62 84.55, 99.58 85.67, 0.02 86.35 M359 86.58 C274.55 86.87, 190.84 86.47, -0.53 87 M-1.82 86.96 C1.85 56.1, 1.02 20.96, -0.33 -1.6 M0.74 87.96 C0.36 54.18, -0.81 22.38, -0.89 0.28" stroke="#000000" stroke-width="1" fill="none"></path></g><g stroke-linecap="round" transform="translate(10 577.1428571428571) rotate(0 91.42857142857139 42.14285714285711)"><path d="M0.76 1.72 C46.45 2.19, 91.85 2.97, 182.27 -1.36 M0.02 -0.29 C56.35 -1.13, 111.02 0.15, 183.4 0.32 M183.25 0 C183.13 31.7, 184.24 66.85, 180.97 82.81 M183.65 0.95 C181.93 33.02, 182.87 66.05, 183.65 84.28 M183.75 85.94 C113.72 82.42, 43.73 83.6, 0.63 86.21 M182.67 84.24 C125.76 84.55, 68.89 85.05, -0.33 85.21 M0.61 85.64 C-0.45 63.09, 0.26 39.32, -0.53 1.63 M-0.08 83.58 C-1.32 63.56, -0.59 43.08, 0.35 -0.73" stroke="#000000" stroke-width="1" fill="none"></path></g><g stroke-linecap="round" transform="translate(94.28571428571422 577.1428571428571) rotate(0 98.57142857142856 41.428571428571445)"><path d="M1.36 -0.34 C62.05 -0.24, 121.53 -1.13, 198.77 -1.02 M-0.7 -0.57 C76.88 0.31, 154.01 0.5, 196.41 -0.01 M196.67 0.34 C198.01 17.95, 195.76 35.65, 198.8 82.95 M197.45 0.33 C196.52 23.56, 197.1 48.91, 196.3 82.77 M196.95 81.52 C141.82 84.52, 83.24 84.72, -1.22 81.49 M197.46 83.11 C123.16 83.53, 50.27 83.95, 0 81.94 M-1.41 82.93 C1.33 59.69, -0.55 33.35, -0.01 1.2 M-0.07 83.62 C-0.46 61.37, 0.2 41.95, -0.29 -0.15" stroke="#000000" stroke-width="1" fill="none"></path></g><g stroke-linecap="round" transform="translate(24.28571428571422 602.8571428571429) rotate(0 21.428571428571445 18.571428571428612)"><path d="M22.53 0.92 C26.81 0.96, 32.57 2.72, 35.93 5.32 C39.29 7.93, 42.07 12.7, 42.7 16.53 C43.34 20.37, 42.44 24.87, 39.73 28.34 C37.02 31.81, 31.1 36.08, 26.44 37.35 C21.78 38.61, 15.95 37.8, 11.77 35.92 C7.59 34.04, 3.31 29.8, 1.36 26.07 C-0.59 22.33, -1.27 17.19, 0.08 13.52 C1.44 9.84, 5.07 6.06, 9.48 4.02 C13.88 1.97, 23.18 1.73, 26.5 1.27 C29.81 0.8, 29.48 0.93, 29.36 1.22 M20.35 -1.2 C24.76 -1.46, 31.33 0.41, 35.06 3.32 C38.8 6.23, 41.74 12.02, 42.78 16.24 C43.81 20.46, 43.78 25.11, 41.26 28.66 C38.74 32.21, 32.33 36.3, 27.66 37.55 C23 38.8, 17.31 37.85, 13.28 36.15 C9.25 34.45, 5.55 30.99, 3.48 27.35 C1.42 23.71, -0.08 18.15, 0.88 14.29 C1.84 10.44, 5.83 6.71, 9.23 4.21 C12.64 1.72, 19.16 0.19, 21.31 -0.68 C23.46 -1.55, 22 -1.47, 22.12 -1.02" stroke="none" stroke-width="0" fill="#be4bdb"></path><path d="M11.81 2.53 C15.77 0.76, 23.14 -0.11, 27.82 0.7 C32.49 1.51, 37.5 4.01, 39.88 7.4 C42.26 10.79, 42.52 16.94, 42.08 21.03 C41.64 25.12, 40.34 29.22, 37.25 31.94 C34.15 34.66, 28.26 36.98, 23.5 37.34 C18.73 37.7, 12.39 36.29, 8.64 34.08 C4.89 31.86, 2.09 28.11, 1 24.05 C-0.1 19.99, -0.26 13.52, 2.06 9.71 C4.38 5.89, 12.18 2.81, 14.89 1.19 C17.6 -0.44, 18.19 -0.4, 18.31 -0.03 M27.4 1.64 C31.57 2.46, 36 4.37, 38.45 7.51 C40.9 10.64, 42.26 16.61, 42.08 20.47 C41.91 24.33, 40.85 27.95, 37.4 30.67 C33.96 33.39, 26.15 36.39, 21.43 36.79 C16.7 37.2, 12.54 35.54, 9.03 33.13 C5.52 30.73, 1.52 25.99, 0.39 22.37 C-0.73 18.75, 0.4 14.69, 2.28 11.41 C4.16 8.14, 7.3 4.6, 11.65 2.73 C15.99 0.86, 25.65 0.2, 28.35 0.18 C31.06 0.15, 28.15 2.14, 27.89 2.58" stroke="#000000" stroke-width="1" fill="none"></path></g><g stroke-linecap="round" transform="translate(122.85714285714289 605.7142857142858) rotate(0 21.428571428571445 18.571428571428612)"><path d="M28.43 0.4 C32.48 1.54, 37.09 5.69, 39.31 9.32 C41.53 12.95, 42.39 18.07, 41.76 22.16 C41.13 26.24, 38.89 31.44, 35.54 33.83 C32.19 36.21, 26.17 36.76, 21.66 36.49 C17.14 36.21, 12.01 34.6, 8.46 32.19 C4.92 29.78, 1.35 25.82, 0.39 22.03 C-0.56 18.25, 0.5 12.79, 2.72 9.46 C4.93 6.12, 8.94 3.29, 13.7 2.04 C18.46 0.79, 28.09 1.63, 31.28 1.94 C34.46 2.25, 33.13 3.57, 32.82 3.92 M22.54 0.88 C27.12 0.7, 33.93 2.31, 37.06 5.03 C40.19 7.76, 40.97 13.45, 41.33 17.21 C41.7 20.97, 41.64 24.37, 39.24 27.59 C36.84 30.81, 31.22 35.15, 26.93 36.55 C22.64 37.95, 17.35 37.8, 13.48 35.98 C9.62 34.15, 5.74 29.02, 3.74 25.61 C1.73 22.19, 0.85 19.3, 1.45 15.49 C2.04 11.68, 3.9 5.09, 7.32 2.74 C10.74 0.39, 19.43 1.99, 21.96 1.4 C24.49 0.8, 22.43 -0.69, 22.48 -0.83" stroke="none" stroke-width="0" fill="#12b886"></path><path d="M29.3 1.45 C33.43 2.64, 39.01 6.11, 41.1 9.58 C43.19 13.05, 42.97 18.18, 41.83 22.27 C40.7 26.37, 38.02 31.82, 34.29 34.14 C30.57 36.45, 24.1 36.47, 19.49 36.17 C14.88 35.87, 9.91 34.93, 6.65 32.35 C3.38 29.78, 0.49 24.69, -0.12 20.72 C-0.73 16.76, 0.35 11.99, 3.01 8.55 C5.66 5.1, 10.88 1, 15.81 0.07 C20.73 -0.86, 29.67 2.28, 32.55 2.94 C35.43 3.61, 33.21 3.89, 33.08 4.05 M23.79 0.44 C28.07 0.5, 33.41 2.4, 36.8 5.11 C40.18 7.81, 43.74 12.63, 44.11 16.68 C44.48 20.73, 41.94 25.94, 39.02 29.39 C36.1 32.83, 31.23 36.6, 26.6 37.35 C21.97 38.09, 15.11 35.99, 11.23 33.88 C7.34 31.77, 4.93 28.31, 3.28 24.71 C1.64 21.11, 0.51 15.99, 1.36 12.27 C2.2 8.56, 4.81 4.26, 8.36 2.4 C11.92 0.54, 20.05 1.37, 22.69 1.12 C25.33 0.87, 23.9 0.73, 24.22 0.89" stroke="#000000" stroke-width="1" fill="none"></path></g><g stroke-linecap="round" transform="translate(220 604.2857142857144) rotate(0 21.428571428571445 18.571428571428612)"><path d="M22.89 0.73 C27.34 0.65, 34.46 2.3, 37.66 5.04 C40.87 7.77, 41.8 13.02, 42.12 17.12 C42.44 21.22, 42.32 26.41, 39.56 29.66 C36.81 32.9, 30.36 35.52, 25.6 36.56 C20.84 37.61, 14.81 37.72, 11 35.92 C7.19 34.13, 4.48 29.42, 2.75 25.77 C1.03 22.12, -0.37 17.86, 0.63 14.01 C1.63 10.16, 4.57 5.04, 8.74 2.66 C12.91 0.28, 22.28 0, 25.65 -0.28 C29.02 -0.57, 28.9 0.62, 28.97 0.93 M29.96 1.44 C34.04 2.83, 37.52 6.18, 39.55 9.86 C41.57 13.53, 42.78 19.53, 42.1 23.49 C41.42 27.45, 39.12 31.58, 35.45 33.62 C31.77 35.66, 24.85 36.1, 20.06 35.74 C15.26 35.37, 9.75 34.08, 6.66 31.41 C3.58 28.75, 1.99 23.68, 1.54 19.75 C1.08 15.81, 1.84 10.8, 3.92 7.82 C6 4.85, 9.48 2.98, 14.02 1.87 C18.55 0.76, 28.31 1.05, 31.12 1.15 C33.93 1.26, 30.98 2.41, 30.87 2.51" stroke="none" stroke-width="0" fill="#fab005"></path><path d="M14.27 1.15 C18.38 -0.43, 24.76 -0.58, 29.06 0.83 C33.35 2.24, 37.7 5.87, 40.02 9.61 C42.34 13.35, 43.88 19.17, 42.97 23.27 C42.05 27.38, 38.31 32.02, 34.54 34.25 C30.76 36.48, 24.93 36.88, 20.3 36.65 C15.68 36.41, 10.15 35.52, 6.8 32.82 C3.44 30.12, 0.8 24.64, 0.16 20.43 C-0.48 16.23, -0.09 11.01, 2.95 7.59 C5.99 4.18, 15.16 1.11, 18.41 -0.05 C21.67 -1.22, 22.23 0.11, 22.49 0.59 M25.76 0.69 C30.34 1.03, 36.42 4.12, 39.35 7.14 C42.28 10.15, 43.5 14.76, 43.35 18.79 C43.2 22.82, 41.73 28.39, 38.43 31.32 C35.14 34.24, 28.29 36.13, 23.58 36.35 C18.86 36.57, 13.85 34.71, 10.14 32.65 C6.44 30.58, 2.79 27.4, 1.38 23.96 C-0.04 20.51, -0.11 15.51, 1.66 11.99 C3.42 8.46, 7.67 4.68, 11.99 2.79 C16.3 0.9, 25.38 0.77, 27.55 0.62 C29.73 0.47, 25.31 1.75, 25.01 1.86" stroke="#000000" stroke-width="1" fill="none"></path></g><g stroke-linecap="round" transform="translate(305.71428571428567 604.2857142857144) rotate(0 21.428571428571445 18.571428571428612)"><path d="M12.97 1.36 C16.78 -0.49, 22.64 -0.88, 26.78 0.3 C30.91 1.47, 34.98 5.2, 37.77 8.41 C40.55 11.62, 43.52 15.65, 43.47 19.56 C43.42 23.46, 40.63 29.1, 37.46 31.85 C34.3 34.59, 29.17 35.71, 24.49 36.04 C19.82 36.38, 13.41 36.05, 9.43 33.87 C5.45 31.69, 2.01 26.62, 0.62 22.98 C-0.78 19.33, -1.46 15.66, 1.03 12.02 C3.52 8.38, 12.69 3.12, 15.58 1.13 C18.46 -0.86, 18.31 -0.16, 18.35 0.07 M31.06 0.5 C35.38 2.32, 39.76 8.26, 41.81 12.19 C43.85 16.11, 44.95 20.21, 43.33 24.04 C41.71 27.87, 35.96 33.1, 32.09 35.18 C28.22 37.26, 24.51 37.15, 20.11 36.5 C15.71 35.85, 9.06 33.82, 5.7 31.27 C2.34 28.71, -0.02 24.98, -0.05 21.17 C-0.08 17.36, 2.52 12.01, 5.51 8.41 C8.5 4.8, 13.47 0.41, 17.9 -0.45 C22.32 -1.31, 29.81 2.8, 32.07 3.22 C34.34 3.64, 31.78 1.83, 31.47 2.07" stroke="none" stroke-width="0" fill="#15aabf"></path><path d="M16.96 0.57 C21.07 -0.26, 27.04 0.71, 31.08 2.6 C35.13 4.49, 39.29 8.32, 41.22 11.9 C43.14 15.48, 44.14 20.27, 42.64 24.08 C41.13 27.9, 36.18 32.77, 32.18 34.81 C28.18 36.85, 23.16 36.89, 18.66 36.32 C14.16 35.75, 8.24 34.15, 5.18 31.38 C2.11 28.62, 0.25 23.88, 0.26 19.71 C0.27 15.55, 1.97 9.56, 5.23 6.4 C8.49 3.25, 17.17 1.9, 19.8 0.78 C22.43 -0.34, 21.13 -0.67, 21.01 -0.32 M20.43 1.11 C25.24 0.89, 33.26 1.62, 36.89 4.21 C40.52 6.8, 41.92 12.8, 42.2 16.67 C42.47 20.54, 41.02 24.39, 38.54 27.43 C36.06 30.47, 31.38 33.64, 27.31 34.91 C23.24 36.18, 18.17 36.45, 14.12 35.05 C10.06 33.66, 5.05 30.04, 2.97 26.55 C0.88 23.06, 0.98 17.86, 1.63 14.1 C2.28 10.35, 3.55 6.57, 6.87 4.03 C10.19 1.49, 19.17 -0.5, 21.54 -1.13 C23.92 -1.76, 21.04 -0.48, 21.14 0.25" stroke="#000000" stroke-width="1" fill="none"></path></g><g transform="translate(38.57142857142844 173.85714285714283) rotate(0 157 100)"><text x="0" y="18" font-family="Virgil, Segoe UI Emoji" font-size="20px" fill="#000000" text-anchor="start" style="white-space: pre;" direction="ltr">Welcome to rate the movie</text><text x="0" y="43" font-family="Virgil, Segoe UI Emoji" font-size="20px" fill="#000000" text-anchor="start" style="white-space: pre;" direction="ltr"></text><text x="0" y="68" font-family="Virgil, Segoe UI Emoji" font-size="20px" fill="#000000" text-anchor="start" style="white-space: pre;" direction="ltr">On this app you have the </text><text x="0" y="93" font-family="Virgil, Segoe UI Emoji" font-size="20px" fill="#000000" text-anchor="start" style="white-space: pre;" direction="ltr">option to rate movies in a more</text><text x="0" y="118" font-family="Virgil, Segoe UI Emoji" font-size="20px" fill="#000000" text-anchor="start" style="white-space: pre;" direction="ltr">accurate way then on other </text><text x="0" y="143" font-family="Virgil, Segoe UI Emoji" font-size="20px" fill="#000000" text-anchor="start" style="white-space: pre;" direction="ltr">sites. </text><text x="0" y="168" font-family="Virgil, Segoe UI Emoji" font-size="20px" fill="#000000" text-anchor="start" style="white-space: pre;" direction="ltr"></text><text x="0" y="193" font-family="Virgil, Segoe UI Emoji" font-size="20px" fill="#000000" text-anchor="start" style="white-space: pre;" direction="ltr">Have fun playing!</text></g></svg>