<svg version="1.1" xmlns="http://www.w3.org/2000/svg" viewBox="0 0 698.8888888888887 664.4444444444445" width="698.8888888888887" height="664.4444444444445">
  <!-- svg-source:excalidraw -->
  
  <defs>
    <style>
      @font-face {
        font-family: "Virgil";
        src: url("https://excalidraw.com/Virgil.woff2");
      }
      @font-face {
        font-family: "Cascadia";
        src: url("https://excalidraw.com/Cascadia.woff2");
      }
    </style>
  </defs>
  <rect x="0" y="0" width="698.8888888888887" height="664.4444444444445" fill="#ffffff"></rect><g stroke-linecap="round" transform="translate(10.555555555555202 10.555555555555458) rotate(0 152.7777777777776 157.22222222222223)"><path d="M0.2 -0.16 C68.86 0.52, 135.79 -1.36, 306.87 0.69 M-0.16 -0.19 C67.07 -0.42, 134.99 -1.55, 305.28 -0.03 M304.33 -0.06 C305.1 93.6, 304.34 184.09, 304.41 313.22 M306.09 -0.7 C305.58 78.66, 306.05 155.73, 305.81 314.51 M305.57 313.33 C202.68 312.5, 99.84 312.2, -1.28 314.15 M305.93 315.08 C218.5 312.46, 133.4 313.79, -0.57 314.37 M-0.11 314.12 C-2.16 227.78, 0.13 142.78, -0.83 1.15 M0.66 313.79 C-0.37 218.62, -1.1 121.98, 0.16 -0.33" stroke="#000000" stroke-width="1" fill="none"></path></g><g stroke-linecap="round" transform="translate(89.44444444444389 42.777777777777686) rotate(0 72.22222222222217 78.33333333333334)"><path d="M0.19 0.23 C46.95 -0.47, 98.05 0.41, 143.6 -1.61 M0.28 0.47 C35.34 1.07, 71.31 0.2, 143.98 0.3 M145.65 0.55 C144.48 52.39, 145.92 101.79, 145.42 156.84 M143.81 0.16 C143.05 61.68, 143.8 123.36, 144.14 156.31 M142.66 155.83 C100.14 158.72, 51.85 158.5, 0.99 155.38 M143.55 155.93 C87.52 156.82, 30.53 155.14, 0.38 156.67 M-1.71 157.75 C-1.58 95.98, -3 34.98, -0.59 -0.86 M-0.85 156.71 C0.58 119.74, -0.5 82.89, 0.37 -0.64" stroke="#000000" stroke-width="1" fill="none"></path></g><g stroke-linecap="round" transform="translate(109.44444444444389 66.11111111111106) rotate(0 52.22222222222217 57.2222222222222)"><path d="M40.13 2.5 C48.36 -0.51, 59.42 -1.06, 67.89 1.58 C76.35 4.22, 84.87 10.97, 90.92 18.34 C96.96 25.7, 102.17 36.46, 104.14 45.78 C106.1 55.09, 105.51 65.17, 102.69 74.21 C99.88 83.25, 94 93.61, 87.26 100 C80.51 106.38, 70.95 110.72, 62.22 112.52 C53.48 114.33, 43.26 114.03, 34.84 110.82 C26.42 107.61, 17.36 100.71, 11.71 93.25 C6.05 85.79, 2.42 75.48, 0.91 66.05 C-0.6 56.61, -0.64 45.6, 2.65 36.65 C5.95 27.69, 14.1 18.25, 20.7 12.31 C27.3 6.36, 38.12 2.85, 42.27 0.97 C46.43 -0.91, 45.56 -0.01, 45.65 1.02 M66.33 1.01 C74.9 2.73, 85.08 11.25, 91.42 18.45 C97.76 25.65, 102.54 34.95, 104.37 44.2 C106.2 53.45, 105.03 64.6, 102.38 73.96 C99.74 83.31, 94.98 93.88, 88.51 100.33 C82.04 106.77, 72.47 110.8, 63.56 112.62 C54.65 114.44, 43.42 114.32, 35.05 111.25 C26.68 108.19, 18.92 101.68, 13.33 94.23 C7.74 86.78, 3.11 76.19, 1.52 66.53 C-0.06 56.86, 0.81 45.16, 3.84 36.23 C6.86 27.3, 12.83 18.99, 19.66 12.95 C26.49 6.91, 37.13 1.64, 44.79 -0.01 C52.45 -1.66, 62.05 2.65, 65.59 3.04 C69.14 3.43, 66.05 1.58, 66.07 2.31" stroke="#000000" stroke-width="1" fill="none"></path></g><g stroke-linecap="round" transform="translate(123.88888888888823 91.6666666666666) rotate(0 15.555555555555657 12.2222222222222)"><path d="M10.7 0.92 C13.57 0.17, 18.64 0.36, 21.79 1.48 C24.94 2.6, 28.08 5.25, 29.6 7.65 C31.13 10.06, 31.82 13.44, 30.96 15.9 C30.09 18.37, 27.1 21.13, 24.4 22.44 C21.71 23.75, 18.15 24.04, 14.8 23.76 C11.44 23.49, 6.69 22.4, 4.28 20.79 C1.88 19.19, 0.73 16.61, 0.37 14.13 C0.01 11.66, 0.01 8.18, 2.11 5.95 C4.21 3.72, 10.91 1.59, 12.97 0.76 C15.03 -0.08, 14.5 0.72, 14.48 0.92 M22.38 2.21 C25.09 2.77, 28.17 3.88, 29.39 6.22 C30.61 8.56, 30.59 13.47, 29.72 16.23 C28.84 18.99, 26.85 21.36, 24.14 22.79 C21.44 24.22, 16.8 25.36, 13.5 24.79 C10.19 24.23, 6.79 21.54, 4.3 19.41 C1.81 17.27, -1.01 14.6, -1.46 11.98 C-1.91 9.36, -0.88 5.79, 1.6 3.68 C4.07 1.57, 10.15 -0.07, 13.38 -0.69 C16.61 -1.3, 19.68 -0.58, 20.98 0 C22.28 0.59, 20.93 2.43, 21.18 2.83" stroke="#000000" stroke-width="1" fill="none"></path></g><g stroke-linecap="round" transform="translate(168.33333333333258 93.88888888888877) rotate(0 15.555555555555657 12.2222222222222)"><path d="M20.16 1.19 C23.18 1.78, 26.38 4, 28.33 6.19 C30.29 8.39, 32.13 11.86, 31.91 14.35 C31.69 16.84, 29.5 19.5, 27.01 21.13 C24.51 22.76, 20.53 24.09, 16.93 24.15 C13.33 24.2, 8.1 22.99, 5.4 21.45 C2.71 19.91, 1.32 17.42, 0.75 14.91 C0.18 12.41, 0.47 8.74, 1.98 6.42 C3.49 4.09, 6.7 2.04, 9.82 0.96 C12.94 -0.12, 18.66 -0.01, 20.69 -0.06 C22.73 -0.11, 22.12 0.16, 22.01 0.67 M9.18 2.05 C12.46 1.28, 18.14 0.21, 21.68 0.79 C25.22 1.36, 28.71 3.14, 30.41 5.51 C32.11 7.88, 32.5 12.43, 31.87 15.03 C31.24 17.62, 29.48 19.32, 26.62 21.09 C23.76 22.86, 18.4 25.52, 14.71 25.67 C11.02 25.83, 7.03 24.01, 4.49 22.01 C1.95 20.02, -0.31 16.45, -0.52 13.7 C-0.73 10.95, 1.45 7.91, 3.23 5.5 C5.01 3.09, 8.78 -0.12, 10.16 -0.76 C11.54 -1.41, 11.27 1.43, 11.51 1.63" stroke="#000000" stroke-width="1" fill="none"></path></g><g stroke-linecap="round"><g transform="translate(144.99999999999955 142.77777777777774) rotate(0 21.441680424163906 0.5957230176189796)"><path d="M-0.89 -0.61 C6.28 -0.55, 36.35 -0.07, 43.77 -0.01 M0.84 1.69 C7.83 1.97, 36.03 1.64, 43.06 1.52" stroke="#000000" stroke-width="1" fill="none"></path></g></g><g transform="translate(111.66666666666652 215.99999999999991) rotate(0 50.5 12.5)"><text x="0" y="18" font-family="Virgil, Segoe UI Emoji" font-size="20px" fill="#000000" text-anchor="start" style="white-space: pre;" direction="ltr">PowerUser</text></g><g stroke-linecap="round" transform="translate(27 261.2777777777777) rotate(0 58 21.5)"><path d="M1.65 -0.14 C34.69 1.26, 70.61 -1.06, 117.78 1.64 M-0.01 0.27 C27.79 -1.13, 56.88 0.54, 115.21 0.26 M114.3 -1.82 C115.88 10.69, 116.15 17.92, 115.74 41.68 M115.75 -0.13 C116.7 14.39, 115.94 28.38, 116.01 43.42 M114.09 41.02 C75.56 43.71, 37.97 44.09, 1.74 42.57 M115.41 43.43 C86.97 43.64, 56.98 43.32, -0.82 42.91 M-0.19 41.67 C0.51 30.12, -1.1 14.95, -0.69 0.52 M0.69 42.53 C0.47 26.46, -0.27 9.69, 0.85 -0.45" stroke="#2b8a3e" stroke-width="1" fill="none"></path></g><g transform="translate(48 270.2777777777777) rotate(0 37 12.5)"><text x="37" y="18" font-family="Virgil, Segoe UI Emoji" font-size="20px" fill="#000000" text-anchor="middle" style="white-space: pre;" direction="ltr">Approve</text></g><g stroke-linecap="round" transform="translate(181.6111111111104 263.0000000000001) rotate(0 54.5 22)"><path d="M0.44 0.7 C33.9 0.76, 70.49 -0.06, 107.69 -1.09 M-0.95 0.86 C35.22 1.7, 69.14 1.8, 109.37 -0.93 M108.05 1.67 C107.51 13.95, 110.3 25.09, 107.35 43.03 M109.21 -0.12 C110.2 14.57, 108.27 26.65, 109.91 43.16 M110.54 43.03 C74.97 43.26, 39.65 45.24, 0.55 42.35 M108.52 43.24 C84.89 44.83, 63.4 43.91, -0.44 43.34 M1.83 45.17 C0.22 34.54, 1.22 24.9, -1.53 -0.31 M0.49 44.59 C-0.67 33.56, -0.78 22.75, -0.99 -0.23" stroke="#a61e4d" stroke-width="1" fill="none"></path></g><g transform="translate(202.6111111111104 272.5000000000001) rotate(0 33.5 12.5)"><text x="33.5" y="18" font-family="Virgil, Segoe UI Emoji" font-size="20px" fill="#000000" text-anchor="middle" style="white-space: pre;" direction="ltr">Decline</text></g><g stroke-linecap="round" transform="translate(10 340) rotate(0 152.7777777777776 157.22222222222223)"><path d="M0.15 1.17 C95.71 -1.01, 194.88 1.04, 305.89 -0.12 M0.7 0.69 C73.45 -0.49, 146.06 0.48, 304.85 -0.37 M306.03 0.16 C305.74 78.33, 305.71 154.93, 304.93 315.39 M305.48 -0.02 C303.62 107.1, 303.75 212.88, 305.89 315.12 M305.97 314.35 C241.22 312.51, 178.62 311.23, 0.38 315.72 M305.43 313.86 C219.29 315.83, 131.92 315.64, 0.25 314.12 M0.01 313.73 C1.91 239.41, 1.76 165.54, -0.07 0.03 M-0.19 313.9 C-2.28 207.76, -1.48 102.33, -0.11 0.25" stroke="#000000" stroke-width="1" fill="none"></path></g><g stroke-linecap="round" transform="translate(88.88888888888869 372.2222222222224) rotate(0 72.22222222222217 78.33333333333337)"><path d="M1.62 -1.72 C38.17 1.2, 81.14 0.31, 144.28 -1.23 M0.95 0.69 C41.3 -1.16, 84.33 -2.37, 143.93 -0.52 M144.66 1.14 C144.37 43.72, 142.33 84.38, 145.78 157.45 M144.42 -0.84 C144.42 36.97, 143.11 75.73, 145.4 155.76 M144.32 156.32 C101.74 158.8, 56.96 157.61, 1.76 156.33 M143.64 157.09 C112.75 155.76, 80.76 156.77, -0.45 156.01 M-1.01 157.09 C-0.22 121.16, -0.34 85.14, 0.04 0.77 M-0.77 156.48 C-1.57 95.52, -0.24 32.35, 0.35 0.94" stroke="#000000" stroke-width="1" fill="none"></path></g><g stroke-linecap="round" transform="translate(108.88888888888869 395.5555555555559) rotate(0 52.22222222222217 57.22222222222217)"><path d="M27.75 6.73 C34.57 1.56, 44.87 -0.62, 53.67 -0.07 C62.47 0.49, 72.87 4.69, 80.56 10.06 C88.25 15.43, 95.91 23.64, 99.81 32.16 C103.7 40.68, 104.51 51.81, 103.93 61.18 C103.35 70.56, 101.32 80.55, 96.33 88.43 C91.35 96.31, 82.2 104.2, 74.01 108.45 C65.82 112.69, 55.86 114.68, 47.2 113.91 C38.55 113.13, 29.11 109.36, 22.08 103.8 C15.05 98.24, 8.54 89.53, 5.01 80.52 C1.48 71.51, 0.04 59.27, 0.9 49.74 C1.76 40.21, 5.34 30.75, 10.17 23.31 C15 15.87, 26.33 8.05, 29.89 5.1 C33.46 2.16, 31.26 4.82, 31.57 5.64 M67.22 3.62 C75.44 5.53, 82.95 10.88, 88.68 17.72 C94.41 24.56, 99.4 35.27, 101.61 44.66 C103.83 54.05, 104.32 64.66, 101.97 74.05 C99.62 83.43, 94.21 94.34, 87.5 100.95 C80.78 107.55, 70.16 111.96, 61.68 113.66 C53.21 115.36, 45.05 114.17, 36.67 111.13 C28.29 108.09, 17.42 102.93, 11.41 95.43 C5.39 87.93, 1.82 75.79, 0.57 66.12 C-0.68 56.45, 0.94 46.34, 3.88 37.41 C6.83 28.48, 11.4 18.78, 18.22 12.55 C25.05 6.31, 36.96 1.89, 44.84 -0.01 C52.73 -1.92, 62.23 0.56, 65.54 1.11 C68.86 1.66, 64.96 2.15, 64.75 3.3" stroke="#000000" stroke-width="1" fill="none"></path></g><g stroke-linecap="round" transform="translate(123.33333333333303 421.11111111111154) rotate(0 15.555555555555657 12.222222222222172)"><path d="M20.63 0.08 C23.59 0.73, 26.95 3.57, 28.83 6.08 C30.7 8.59, 32.27 12.66, 31.87 15.16 C31.46 17.66, 29.03 19.39, 26.38 21.09 C23.73 22.79, 19.58 25.36, 15.96 25.37 C12.35 25.39, 7.42 23.02, 4.71 21.16 C2.01 19.3, 0.25 16.63, -0.25 14.2 C-0.75 11.77, -0.04 8.7, 1.7 6.56 C3.43 4.42, 6.89 2.21, 10.18 1.35 C13.47 0.49, 19.66 1.48, 21.43 1.39 C23.2 1.3, 20.82 0.63, 20.8 0.8 M10.94 -0.72 C14.13 -1.75, 19.55 -1.38, 22.43 -0.03 C25.32 1.31, 26.64 5.08, 28.26 7.35 C29.88 9.62, 32.71 11.4, 32.15 13.59 C31.59 15.78, 27.74 18.71, 24.91 20.5 C22.09 22.29, 18.57 24.18, 15.2 24.34 C11.84 24.49, 7.01 23.36, 4.71 21.42 C2.41 19.47, 1.72 15.08, 1.41 12.66 C1.11 10.24, 1.33 9.13, 2.89 6.91 C4.44 4.69, 9.21 0.4, 10.72 -0.66 C12.24 -1.73, 12.07 0.02, 11.98 0.53" stroke="#000000" stroke-width="1" fill="none"></path></g><g stroke-linecap="round" transform="translate(167.77777777777737 423.3333333333337) rotate(0 15.555555555555657 12.222222222222172)"><path d="M18.26 0.17 C21.37 0.72, 25.66 3.51, 27.96 5.71 C30.25 7.92, 32.27 10.92, 32.05 13.41 C31.83 15.91, 28.9 19.03, 26.65 20.69 C24.4 22.34, 21.89 23.13, 18.56 23.36 C15.24 23.58, 9.74 23.32, 6.72 22.03 C3.71 20.74, 1.33 18.02, 0.46 15.63 C-0.42 13.24, 0.09 10.03, 1.5 7.69 C2.9 5.35, 5.6 2.9, 8.9 1.6 C12.2 0.3, 19.1 -0.22, 21.28 -0.13 C23.45 -0.03, 22.04 1.94, 21.92 2.17 M11.44 1.04 C14.37 0.25, 18.98 -0.95, 22.21 0.44 C25.44 1.82, 29.71 6.72, 30.82 9.36 C31.93 11.99, 30.34 13.95, 28.87 16.26 C27.4 18.56, 24.66 21.88, 22 23.17 C19.34 24.47, 15.92 24.3, 12.91 24.02 C9.91 23.73, 6.31 23.34, 3.98 21.46 C1.64 19.58, -1.23 15.61, -1.08 12.74 C-0.93 9.86, 2.76 6.14, 4.86 4.21 C6.95 2.27, 10.22 1.95, 11.5 1.13 C12.77 0.3, 12.16 -0.82, 12.51 -0.76" stroke="#000000" stroke-width="1" fill="none"></path></g><g stroke-linecap="round"><g transform="translate(144.44444444444434 472.2222222222226) rotate(0 21.694035332018075 0.5663647739310136)"><path d="M0.81 0.52 C8.25 0.7, 36.65 0.01, 43.61 -0.1 M-0.22 -0.26 C7.17 0.22, 35.25 1.16, 42.81 1.39" stroke="#000000" stroke-width="1" fill="none"></path></g></g><g transform="translate(111.11111111111131 545.4444444444448) rotate(0 50.5 12.5)"><text x="0" y="18" font-family="Virgil, Segoe UI Emoji" font-size="20px" fill="#000000" text-anchor="start" style="white-space: pre;" direction="ltr">PowerUser</text></g><g stroke-linecap="round" transform="translate(26.444444444445253 590.7222222222226) rotate(0 58 21.5)"><path d="M-0.16 -1.23 C42.41 -0.09, 87.2 1.64, 117.39 -0.81 M-0.51 -0.52 C37.24 0.83, 75.37 1.24, 116.57 0.2 M117.34 0.79 C114.45 14.51, 115.44 30.45, 114.31 44.11 M116.95 -0.9 C115.65 9.08, 115.96 20.05, 115.83 43.16 M117.76 42.67 C69.6 44.53, 26.07 41.69, 0.85 43.08 M115.55 42.35 C88.21 42.41, 61.86 42.9, 0.21 42.12 M0.04 43.77 C2.33 31.06, -0.12 14.75, -0.38 -0.92 M0.35 43.94 C-1 27.05, -0.49 8.89, 0.67 0.75" stroke="#2b8a3e" stroke-width="1" fill="none"></path></g><g transform="translate(47.44444444444525 599.7222222222226) rotate(0 37 12.5)"><text x="37" y="18" font-family="Virgil, Segoe UI Emoji" font-size="20px" fill="#000000" text-anchor="middle" style="white-space: pre;" direction="ltr">Approve</text></g><g stroke-linecap="round" transform="translate(181.05555555555475 592.444444444445) rotate(0 54.5 22)"><path d="M-0.23 0.17 C37.15 2.57, 71.83 -0.14, 109.47 1.86 M-0.28 -0.3 C22.38 0.67, 44.67 0.76, 109.55 -0.82 M107.8 -0.74 C109.09 11.22, 107.6 23.65, 107.68 42.48 M108.98 -0.98 C109.7 15.19, 109.25 30.66, 109.86 43.28 M107.39 45.22 C73.09 42.21, 38.7 43.89, -1.33 43.56 M108.28 43.01 C72.53 42.78, 36.26 42.4, 0.11 43.05 M1.93 45.42 C-0.53 29.47, -0.39 17.11, 1.87 1.73 M-0.63 44.97 C-0.27 31.21, 0.51 19.7, -0.28 -0.04" stroke="#a61e4d" stroke-width="1" fill="none"></path></g><g transform="translate(202.05555555555475 601.944444444445) rotate(0 33.5 12.5)"><text x="33.5" y="18" font-family="Virgil, Segoe UI Emoji" font-size="20px" fill="#000000" text-anchor="middle" style="white-space: pre;" direction="ltr">Decline</text></g><g stroke-linecap="round" transform="translate(381.11111111111086 10) rotate(0 152.7777777777776 157.22222222222223)"><path d="M1.23 -1.23 C107.42 0.22, 216.81 0.2, 304.97 0.81 M0.72 -0.65 C94.59 0.57, 188.86 0.27, 305.1 0.01 M305.5 0.2 C304.69 116.55, 304.3 231.95, 305.27 315.38 M304.93 -0.13 C307.11 89.42, 306.58 178.43, 306.03 314.02 M304.45 313.76 C212.05 314.95, 117.99 314.8, 1.07 313.77 M305.41 313.95 C188.74 315.97, 72.59 315.7, -0.14 313.83 M0.88 313.05 C-1.49 214.71, 0.14 113.49, -1.14 1 M0.11 314.99 C0.21 214.12, 0.67 113.56, 0.54 0.28" stroke="#000000" stroke-width="1" fill="none"></path></g><g stroke-linecap="round" transform="translate(459.99999999999955 42.22222222222243) rotate(0 72.22222222222217 78.33333333333334)"><path d="M-1.7 -1.03 C45.43 -0.57, 90.78 -2.04, 145.56 0.17 M-0.9 0.55 C35.5 -0.78, 70.14 -2.06, 144.46 0.69 M144.72 1.21 C146.25 35.54, 145.28 69.36, 145.76 156.33 M144.27 0.64 C145.04 54.63, 144.91 110.15, 143.84 156.73 M143.5 156.9 C99.86 155.27, 56.84 157.05, -0.94 158.28 M143.76 155.97 C99.78 155.92, 54.09 156.19, -0.85 156.84 M-1.96 155.02 C0.62 108.06, -1.22 56.52, 1.41 0.37 M0.77 155.99 C0.31 114.46, -0.21 73.06, 0.4 0.5" stroke="#000000" stroke-width="1" fill="none"></path></g><g stroke-linecap="round" transform="translate(479.99999999999955 65.55555555555591) rotate(0 52.22222222222217 57.2222222222222)"><path d="M52.51 0.56 C60.87 -0.23, 71.8 2.64, 79.4 7.73 C87 12.82, 94.1 22.41, 98.12 31.12 C102.13 39.84, 103.76 50.39, 103.51 60 C103.26 69.62, 101.23 80.86, 96.61 88.8 C91.99 96.75, 83.76 103.31, 75.8 107.68 C67.84 112.05, 57.81 115.42, 48.86 115.02 C39.91 114.62, 29.41 110.82, 22.09 105.29 C14.78 99.75, 8.52 90.64, 4.97 81.82 C1.43 73, -0.04 62.06, 0.82 52.38 C1.68 42.69, 5.12 31.5, 10.13 23.69 C15.15 15.88, 23.4 9.39, 30.92 5.54 C38.45 1.69, 50.79 1.43, 55.3 0.6 C59.81 -0.22, 58.05 -0.38, 57.99 0.6 M64.55 0.46 C72.94 1.57, 81.45 8.77, 87.95 15.33 C94.44 21.89, 101.13 30.51, 103.5 39.83 C105.87 49.15, 104.74 61.69, 102.18 71.23 C99.63 80.78, 94.47 90.04, 88.16 97.1 C81.84 104.16, 72.71 110.86, 64.29 113.6 C55.86 116.35, 45.82 116.23, 37.59 113.58 C29.36 110.94, 20.96 105.06, 14.89 97.73 C8.81 90.4, 3.43 78.97, 1.16 69.6 C-1.12 60.23, -1.28 50.52, 1.23 41.5 C3.73 32.47, 9.57 22.37, 16.2 15.46 C22.83 8.54, 33.08 2.3, 41.01 -0.02 C48.94 -2.33, 60.15 1.01, 63.81 1.58 C67.47 2.15, 63.43 2.72, 62.95 3.41" stroke="#000000" stroke-width="1" fill="none"></path></g><g stroke-linecap="round" transform="translate(494.4444444444439 91.11111111111134) rotate(0 15.555555555555657 12.2222222222222)"><path d="M18.67 0.25 C21.73 0.55, 24.57 2.35, 26.8 4.17 C29.04 6, 31.88 8.5, 32.1 11.21 C32.32 13.93, 30.29 18.27, 28.11 20.45 C25.94 22.63, 22.52 23.88, 19.04 24.29 C15.57 24.69, 10.17 24.31, 7.28 22.88 C4.38 21.45, 2.62 18.2, 1.68 15.73 C0.74 13.27, 0.61 10.35, 1.63 8.11 C2.65 5.87, 4.7 3.51, 7.79 2.3 C10.88 1.08, 17.93 1.03, 20.18 0.81 C22.42 0.59, 21.27 0.85, 21.26 0.97 M19.09 1.33 C22.29 1.99, 26.75 2.78, 28.82 4.91 C30.89 7.04, 32.03 11.46, 31.53 14.11 C31.03 16.76, 28.22 18.92, 25.82 20.83 C23.41 22.75, 20.44 25.45, 17.09 25.59 C13.73 25.72, 8.4 23.52, 5.68 21.63 C2.96 19.73, 1.52 16.88, 0.76 14.24 C0.01 11.59, -0.38 8.04, 1.14 5.75 C2.66 3.47, 6.65 1.38, 9.89 0.52 C13.13 -0.34, 18.88 0.61, 20.57 0.58 C22.26 0.54, 20.44 0.32, 20.01 0.31" stroke="#000000" stroke-width="1" fill="none"></path></g><g stroke-linecap="round" transform="translate(538.8888888888882 93.33333333333351) rotate(0 15.555555555555657 12.2222222222222)"><path d="M15.72 -0.57 C18.94 -0.64, 23.13 2.01, 25.51 3.89 C27.89 5.77, 29.34 8.19, 29.99 10.71 C30.65 13.24, 30.97 16.97, 29.44 19.03 C27.92 21.1, 24.06 22.21, 20.85 23.1 C17.64 23.99, 13.44 25.06, 10.18 24.38 C6.91 23.7, 2.93 21.38, 1.27 19.02 C-0.39 16.65, -0.61 12.82, 0.21 10.18 C1.04 7.53, 3.14 4.83, 6.22 3.14 C9.3 1.45, 16.28 0.29, 18.69 0.04 C21.1 -0.21, 20.82 1.35, 20.69 1.66 M17.31 0.67 C20.68 0.76, 23.54 2.21, 25.99 3.73 C28.44 5.26, 31.54 7.3, 31.99 9.81 C32.45 12.33, 30.49 16.65, 28.71 18.81 C26.94 20.97, 24.65 21.95, 21.33 22.76 C18.01 23.57, 12.28 24.52, 8.79 23.65 C5.3 22.79, 2.03 19.74, 0.38 17.57 C-1.26 15.39, -1.92 12.92, -1.08 10.6 C-0.23 8.29, 2.54 5.33, 5.47 3.68 C8.41 2.04, 14.79 1.48, 16.55 0.74 C18.31 0, 16.26 -1.01, 16.03 -0.77" stroke="#000000" stroke-width="1" fill="none"></path></g><g stroke-linecap="round"><g transform="translate(515.5555555555552 142.22222222222254) rotate(0 20.99625671671879 -0.27844085002911356)"><path d="M0.4 0.01 C7.64 0.12, 35.67 0.79, 42.85 0.67 M-0.85 -1.03 C6.24 -1.27, 34.38 -1.32, 41.64 -1.1" stroke="#000000" stroke-width="1" fill="none"></path></g></g><g transform="translate(482.2222222222222 215.4444444444447) rotate(0 50.5 12.5)"><text x="0" y="18" font-family="Virgil, Segoe UI Emoji" font-size="20px" fill="#000000" text-anchor="start" style="white-space: pre;" direction="ltr">PowerUser</text></g><g stroke-linecap="round" transform="translate(397.5555555555552 260.7222222222225) rotate(0 58 21.5)"><path d="M1.12 0.17 C37.49 0.26, 79.25 -1.32, 117.1 0.91 M0.02 0.69 C41.52 1.46, 84.54 0.87, 116.6 0.32 M117.32 -0.33 C116.92 14.53, 114.15 28.3, 117.28 43.87 M115.4 0.07 C116.1 13.25, 115.37 24.42, 116.12 42.12 M115.06 44.61 C83.18 44.83, 49.43 42.49, -1.39 44.27 M115.15 43.18 C86.73 42.53, 57.8 41.8, -0.82 43.12 M1.41 43.37 C-0.27 28.07, 0.66 15.9, -1.35 -0.35 M0.4 43.5 C-0.01 30.71, 0.18 18.31, 0.46 0.93" stroke="#2b8a3e" stroke-width="1" fill="none"></path></g><g transform="translate(418.5555555555552 269.7222222222225) rotate(0 37 12.5)"><text x="37" y="18" font-family="Virgil, Segoe UI Emoji" font-size="20px" fill="#000000" text-anchor="middle" style="white-space: pre;" direction="ltr">Approve</text></g><g stroke-linecap="round" transform="translate(552.1666666666665 262.4444444444449) rotate(0 54.5 22)"><path d="M-1.15 -0.21 C30.26 -1.88, 57.66 0.82, 110.29 0.1 M-0.77 0.74 C25.83 -0.62, 52.34 -0.43, 109.33 -0.16 M109.99 0.2 C107.51 11.97, 110.57 25.53, 108.79 44.62 M108.96 0.8 C107.97 15.67, 108.85 31.4, 108.85 43.02 M109.27 44.97 C67.82 43.51, 26.03 46.15, -0.93 44.5 M109.14 43.76 C79.03 43.21, 46.99 44.31, 0.33 43.2 M-0.61 43.38 C0 35.88, -1.66 24.33, -0.05 -1.39 M-0.31 44.51 C-0.29 28.36, 0.29 11.84, 0.4 -0.77" stroke="#a61e4d" stroke-width="1" fill="none"></path></g><g transform="translate(573.1666666666665 271.9444444444449) rotate(0 33.5 12.5)"><text x="33.5" y="18" font-family="Virgil, Segoe UI Emoji" font-size="20px" fill="#000000" text-anchor="middle" style="white-space: pre;" direction="ltr">Decline</text></g><g stroke-linecap="round" transform="translate(383.3333333333335 338.8888888888888) rotate(0 152.7777777777776 157.22222222222223)"><path d="M0.69 1.09 C105.38 0.4, 208.34 1.23, 305.59 1.08 M-0.7 -0.35 C65.64 -0.65, 132.09 -0.43, 306.26 0.46 M306.23 0.97 C303.2 90.28, 304.7 182.22, 306.87 313.23 M305.67 0.7 C303.46 70.58, 304.14 139.89, 305.18 313.75 M305.49 313.88 C185.81 316.24, 64.79 314.72, 0.37 314.56 M306.25 313.75 C225.1 314.57, 143.44 314.84, -0.52 314.7 M-1.26 314.77 C1.32 229.67, 2.53 144.14, -0.96 -0.04 M0.7 314.15 C-0.08 218.96, 0.11 124.3, -0.31 0.38" stroke="#000000" stroke-width="1" fill="none"></path></g><g stroke-linecap="round" transform="translate(462.2222222222222 371.111111111111) rotate(0 72.22222222222217 78.33333333333331)"><path d="M1.51 1.14 C46.07 -1.74, 92.89 -0.64, 145.93 -1.66 M-0.48 -0.97 C55.72 0.57, 111.72 2.37, 145.08 -0.09 M145.82 -0.76 C142.89 35.63, 143.63 70.43, 142.73 155.12 M145.43 -0.75 C145.59 36.21, 144.5 71.46, 143.47 157.61 M143.66 157.58 C106.61 156.67, 66.27 157.11, 0.16 155.98 M143.48 157.58 C98.41 158.25, 52.88 157.34, 0.36 156.4 M0.46 156.1 C0.24 122.88, 0.69 85.43, -0.05 0.05 M-0.42 156.38 C0.32 110.5, 1 63.93, 0.54 0.81" stroke="#000000" stroke-width="1" fill="none"></path></g><g stroke-linecap="round" transform="translate(482.2222222222222 394.44444444444434) rotate(0 52.22222222222217 57.22222222222217)"><path d="M57.52 1.04 C65.9 1.16, 75.14 6.51, 82.3 11.96 C89.47 17.4, 96.97 25.1, 100.51 33.69 C104.05 42.28, 104.71 53.87, 103.55 63.49 C102.38 73.12, 98.8 83.45, 93.52 91.43 C88.24 99.4, 79.99 107.63, 71.88 111.34 C63.78 115.05, 53.84 115.31, 44.92 113.69 C36 112.06, 25.25 107.56, 18.38 101.57 C11.51 95.58, 6.7 86.95, 3.71 77.73 C0.72 68.52, -1.15 55.98, 0.45 46.27 C2.05 36.56, 7.33 26.82, 13.31 19.47 C19.29 12.12, 27.39 5.13, 36.32 2.19 C45.26 -0.74, 60.12 0.87, 66.9 1.86 C73.68 2.85, 76.98 7.25, 77.02 8.15 M69.28 1.98 C77.61 4.36, 87.99 12.58, 93.91 20.27 C99.83 27.97, 103.76 38.41, 104.81 48.17 C105.87 57.93, 103.59 69.81, 100.24 78.84 C96.89 87.87, 91.79 96.42, 84.72 102.34 C77.65 108.25, 66.62 113.15, 57.83 114.33 C49.04 115.5, 39.87 113.22, 31.99 109.41 C24.11 105.59, 15.6 99.39, 10.55 91.46 C5.51 83.54, 2.49 71.52, 1.74 61.85 C0.99 52.17, 2.59 41.91, 6.04 33.4 C9.5 24.89, 15.65 16.24, 22.47 10.79 C29.29 5.35, 39.07 2.14, 46.94 0.72 C54.8 -0.7, 65.66 1.88, 69.66 2.29 C73.66 2.7, 71.11 2.17, 70.94 3.19" stroke="#000000" stroke-width="1" fill="none"></path></g><g stroke-linecap="round" transform="translate(496.6666666666665 419.9999999999999) rotate(0 15.555555555555657 12.222222222222229)"><path d="M12.24 -0.41 C15.26 -1.16, 20.22 0.27, 22.96 1.43 C25.69 2.59, 27.56 4.23, 28.67 6.56 C29.78 8.88, 30.45 12.71, 29.62 15.38 C28.78 18.04, 26.07 20.92, 23.67 22.54 C21.26 24.15, 18.4 25.45, 15.2 25.04 C12.01 24.63, 7.01 21.95, 4.49 20.07 C1.97 18.2, 0.26 16.32, 0.09 13.79 C-0.08 11.25, 1.21 7.03, 3.48 4.85 C5.75 2.67, 11.44 1.3, 13.71 0.7 C15.98 0.1, 17.09 1.31, 17.09 1.27 M11.68 -0.38 C14.68 -1.36, 19.1 0.11, 21.89 1.05 C24.68 2, 27.17 2.86, 28.43 5.3 C29.68 7.75, 29.98 12.85, 29.41 15.73 C28.85 18.61, 27.37 21.23, 25.05 22.58 C22.74 23.94, 18.65 23.97, 15.52 23.86 C12.39 23.75, 8.81 23.7, 6.27 21.91 C3.73 20.12, 0.93 15.72, 0.3 13.11 C-0.34 10.5, 0.88 8.27, 2.45 6.25 C4.01 4.24, 8.35 1.65, 9.69 1.01 C11.02 0.38, 10.52 2.05, 10.45 2.42" stroke="#000000" stroke-width="1" fill="none"></path></g><g stroke-linecap="round" transform="translate(541.1111111111109 422.22222222222206) rotate(0 15.555555555555657 12.222222222222229)"><path d="M20.61 1.76 C23.66 2.27, 28 3.54, 29.62 5.55 C31.23 7.56, 31.03 11.25, 30.28 13.83 C29.53 16.42, 27.6 19.11, 25.1 21.04 C22.6 22.97, 18.5 25.38, 15.27 25.41 C12.04 25.43, 8.4 23.1, 5.74 21.18 C3.09 19.27, -0.19 16.37, -0.67 13.91 C-1.15 11.44, 1.02 8.75, 2.87 6.39 C4.72 4.04, 7 0.7, 10.42 -0.21 C13.84 -1.12, 21 0.69, 23.37 0.94 C25.74 1.18, 25.02 1.12, 24.66 1.26 M16.64 1.17 C19.81 1.03, 25.19 1.95, 27.47 3.49 C29.75 5.02, 30.03 7.73, 30.32 10.36 C30.61 12.99, 30.96 16.95, 29.2 19.24 C27.44 21.54, 23.36 23.37, 19.77 24.11 C16.17 24.86, 10.69 24.9, 7.63 23.68 C4.58 22.47, 2.78 19.31, 1.43 16.83 C0.07 14.35, -1.49 11.38, -0.49 8.8 C0.52 6.21, 4.38 2.75, 7.46 1.32 C10.55 -0.1, 16.08 0.66, 18.03 0.26 C19.98 -0.14, 19.01 -1.23, 19.16 -1.08" stroke="#000000" stroke-width="1" fill="none"></path></g><g stroke-linecap="round"><g transform="translate(517.7777777777778 471.1111111111111) rotate(0 21.363422720382687 0.10270413999654693)"><path d="M-0.63 0.93 C6.48 1.04, 36.2 0.88, 43.36 0.89 M1.23 0.37 C8.13 0.13, 35.18 -0.57, 42.43 -0.76" stroke="#000000" stroke-width="1" fill="none"></path></g></g><g transform="translate(484.4444444444448 544.3333333333334) rotate(0 50.5 12.5)"><text x="0" y="18" font-family="Virgil, Segoe UI Emoji" font-size="20px" fill="#000000" text-anchor="start" style="white-space: pre;" direction="ltr">PowerUser</text></g><g stroke-linecap="round" transform="translate(399.77777777777874 589.6111111111112) rotate(0 58 21.5)"><path d="M1.49 -1.66 C30.39 0.57, 55.41 -0.98, 114.05 0.03 M0.64 -0.09 C24.26 -1.1, 50.61 -0.44, 115.62 -0.8 M114.28 -1.54 C114.41 16.36, 116.13 33.55, 114.5 44.39 M115.02 0.94 C115.48 14.51, 115.79 27.27, 116.46 43.21 M116.16 42.31 C81.13 43.48, 47.47 41.37, 1.83 42.76 M116.36 42.73 C78.26 42.98, 41.18 42.39, -0.28 43.76 M-0.05 43.05 C-0.53 26.61, 1.55 11.42, -0.57 -0.96 M0.54 43.81 C-0.38 29.57, -0.56 18.3, 0.74 -0.2" stroke="#2b8a3e" stroke-width="1" fill="none"></path></g><g transform="translate(420.77777777777874 598.6111111111112) rotate(0 37 12.5)"><text x="37" y="18" font-family="Virgil, Segoe UI Emoji" font-size="20px" fill="#000000" text-anchor="middle" style="white-space: pre;" direction="ltr">Approve</text></g><g stroke-linecap="round" transform="translate(554.3888888888882 591.3333333333336) rotate(0 54.5 22)"><path d="M1.71 0.6 C31 -0.05, 63.94 0.93, 107.32 0.63 M-0.81 0.03 C43.75 0.79, 86.17 -0.7, 109.67 -0.43 M107.59 0.57 C108.94 19.25, 107.12 35.96, 109.43 43.22 M108.65 0.68 C108.52 10.51, 109.03 22.01, 109.04 43.16 M109.36 44.19 C75.47 41.7, 39.91 43.38, 0.37 44.51 M108.23 44.82 C83.29 43.94, 59.08 44.47, 0.57 44.99 M-0.11 42.99 C1.98 32.95, -0.56 22.61, -0.03 0.42 M-0.29 43.39 C-0.71 33.7, 0.5 21.3, -0.68 -0.42" stroke="#a61e4d" stroke-width="1" fill="none"></path></g><g transform="translate(575.3888888888882 600.8333333333336) rotate(0 33.5 12.5)"><text x="33.5" y="18" font-family="Virgil, Segoe UI Emoji" font-size="20px" fill="#000000" text-anchor="middle" style="white-space: pre;" direction="ltr">Decline</text></g></svg>