<svg version="1.1" xmlns="http://www.w3.org/2000/svg" viewBox="0 0 742.6666666666665 1177.9166666666667" width="742.6666666666665" height="1177.9166666666667">
  <!-- svg-source:excalidraw -->
  
  <defs>
    <style>
      @font-face {
        font-family: "Virgil";
        src: url("https://excalidraw.com/Virgil.woff2");
      }
      @font-face {
        font-family: "Cascadia";
        src: url("https://excalidraw.com/Cascadia.woff2");
      }
    </style>
  </defs>
  <rect x="0" y="0" width="742.6666666666665" height="1177.9166666666667" fill="#ffffff"></rect><g stroke-linecap="round" transform="translate(10 13.416666666666742) rotate(0 173.5 285.50000000000006)"><path d="M-0.02 0.03 C103.15 1.28, 203.6 1.51, 346.38 0.13 M-0.21 0.09 C86.94 1.12, 173.72 0.79, 347.08 -0.34 M346.98 0.33 C346.26 157.82, 345.73 314.2, 346.7 570.63 M346.8 -0.06 C346.63 199.36, 346.27 398.31, 346.8 571.2 M347.77 570.06 C261.02 571.54, 176.63 570.84, -0.78 570.94 M347.16 570.69 C241.54 568.99, 136.61 568.75, 0.52 570.9 M-0.17 571.73 C-1.97 374.52, -2.48 178.24, 0.34 -0.08 M-0.03 570.88 C-1.15 357.72, -1.29 144.02, 0.09 0.21" stroke="#000000" stroke-width="1" fill="none"></path></g><g stroke-linecap="round" transform="translate(50 55.41666666666674) rotate(0 132.5 17)"><path d="M0.04 0.99 C58.62 -1.24, 116.22 -0.71, 265.15 -0.77 M0.11 -0.24 C58.44 0.01, 116.76 0.78, 264.59 -0.2 M265.82 1.44 C266.73 8.36, 264.61 15.72, 264.07 34.97 M264.86 0.52 C265.66 8.95, 265.47 18.18, 265.5 33.45 M263.87 32.95 C211.13 35.04, 155.52 34.29, -0.07 34.04 M264.62 33.39 C204.93 33.94, 144.51 35.16, -0.12 34.34 M1.83 33.42 C-0.62 19.35, -0.9 9.29, -0.19 1.48 M-0.31 34.21 C0.99 21.81, 0.78 10.17, 0.53 0.48" stroke="#000000" stroke-width="1" fill="none"></path></g><g stroke-linecap="round" transform="translate(58 147.41666666666674) rotate(0 127.5 17.5)"><path d="M1.01 1.33 C72.91 1.56, 147.66 0.11, 254.21 -1.27 M-0.24 -0.29 C60.64 -0.98, 122.76 -0.71, 254.8 -0.47 M256.44 1.46 C255.12 12.65, 254.23 25.71, 255.97 34.49 M255.52 0.81 C254.45 9.58, 254.34 18.42, 254.45 34.07 M253.93 35.91 C180.52 33.58, 105.47 33.46, 0.04 33.82 M254.38 35.06 C200.99 33.77, 148.82 33.89, 0.35 35.61 M-0.58 34.22 C-1.79 25.1, 0.93 17.12, 1.48 1.08 M0.21 35.86 C-0.13 26.46, 0.26 17.15, 0.48 0.19" stroke="#000000" stroke-width="1" fill="none"></path></g><g stroke-linecap="round" transform="translate(52.5 194.91666666666674) rotate(0 127.5 17.5)"><path d="M1.33 -1.3 C77.64 -2.06, 152.23 -2.08, 253.73 -0.96 M-0.29 -0.69 C67.47 0.71, 135.91 0.41, 254.53 0.65 M256.46 0.12 C254.48 9.67, 254.21 21.84, 254.49 34.12 M255.81 -0.38 C255.57 8.3, 255.45 17.04, 254.07 34.91 M255.91 34.8 C163.55 32.67, 71.93 33.67, -1.18 33.54 M255.06 34.4 C171.85 34.06, 89.06 33.76, 0.61 34.62 M-0.78 33.13 C-1.38 26.11, -0.51 16.99, 1.08 -0.75 M0.86 34.84 C0.76 25, 0.64 15.01, 0.19 0.01" stroke="#000000" stroke-width="1" fill="none"></path></g><g stroke-linecap="round" transform="translate(52.5 240.91666666666674) rotate(0 127.5 17.5)"><path d="M-1.3 1.61 C76.35 -1.54, 153.43 -2.96, 254.04 -0.53 M-0.69 -0.69 C80.23 0.31, 160.06 0.26, 255.65 -0.02 M255.12 -0.67 C254.49 11, 256.22 23.35, 254.12 34.02 M254.62 0.62 C254.69 10.5, 254.63 19.05, 254.91 35.59 M254.8 35.05 C195.78 36.09, 138.53 34.98, -1.46 35.41 M254.4 34.76 C191.37 35.03, 126.81 35.77, -0.38 34.83 M-1.87 33.94 C0.96 21.11, 1.58 8.68, -0.75 -0.15 M-0.16 35.65 C0.16 26.1, 0.4 16.34, 0.01 -0.12" stroke="#000000" stroke-width="1" fill="none"></path></g><g stroke-linecap="round" transform="translate(50.5 288.91666666666674) rotate(0 127.5 17.5)"><path d="M1.61 -0.77 C92.63 0.87, 183.69 0.7, 254.47 0.23 M-0.69 0.1 C68.5 1.57, 137.37 2.42, 254.98 0.33 M254.33 -0.76 C254.32 13.98, 254.75 25.15, 254.02 34.71 M255.62 -0.49 C255.79 11.77, 254.35 24.54, 255.59 34.28 M255.05 34.04 C195.38 34.79, 134.71 33.29, 0.41 34.22 M254.76 35.65 C198.04 33.82, 141.93 33.08, -0.17 35.74 M-1.06 35.86 C-0.06 26.99, 1.21 15.27, -0.15 -0.61 M0.65 35.23 C0.23 24.24, -0.11 12.54, -0.12 -0.68" stroke="#000000" stroke-width="1" fill="none"></path></g><g stroke-linecap="round" transform="translate(51.5 335.91666666666674) rotate(0 127.5 17.5)"><path d="M-0.77 0.15 C96.62 -3.32, 193.85 -2.58, 255.23 -0.48 M0.1 -0.42 C67.3 1.29, 135.65 1.74, 255.33 0.58 M254.24 -0.93 C255.99 12.54, 254.14 25.13, 254.71 36.04 M254.51 0.5 C254.32 12.42, 254.78 27.29, 254.28 34.34 M254.04 34.93 C164.21 33.88, 71.87 35.47, -0.78 33.75 M255.65 34.88 C176.96 35.01, 97.84 34.22, 0.74 34.77 M0.86 34.81 C1.81 26.95, -0.42 16.59, -0.61 0.42 M0.23 35.53 C0.53 21.68, 0.07 7.87, -0.68 0.72" stroke="#000000" stroke-width="1" fill="none"></path></g><g stroke-linecap="round" transform="translate(49.5 427.91666666666674) rotate(0 127.5 17.5)"><path d="M0.15 -0.79 C54.72 0.01, 111.44 1.21, 254.52 -0.57 M-0.42 -0.2 C54.19 0.4, 109.29 0.07, 255.58 0.59 M254.07 0.97 C254.38 9.84, 253.91 21.15, 256.04 36.63 M255.5 -0.55 C254.28 9.07, 255.8 17.6, 254.34 35.56 M254.93 35.04 C180.41 32.31, 108.59 33, -1.25 35.12 M254.88 35.35 C198.1 36.27, 139.79 37.39, -0.23 34.68 M-0.19 36.48 C1.26 27.02, 0.03 19.92, 0.42 1.72 M0.53 35.48 C-0.04 25.07, -0.35 14.44, 0.72 0.6" stroke="#000000" stroke-width="1" fill="none"></path></g><g stroke-linecap="round" transform="translate(21 516.4166666666667) rotate(0 58 21.5)"><path d="M-0.98 -1.57 C45.14 -0.76, 92.94 -0.71, 115.29 -1.71 M-0.25 -0.58 C25.7 0.58, 50.19 1.32, 116.73 0.06 M116.97 -0.51 C114.96 10.49, 115.55 23.97, 117.63 42.23 M115.45 -0.93 C115.7 16.15, 115.07 30.45, 116.56 42.88 M116.05 41.54 C79.02 43.45, 44.71 41.41, 0.15 41.51 M116.44 43.76 C84.15 42.61, 54.16 42.54, -0.39 42.07 M1.48 44.08 C-0.93 32.23, -0.8 22.18, 1.72 -0.32 M0.48 43.19 C-0.09 27.18, -0.78 12.32, 0.6 -0.99" stroke="#2b8a3e" stroke-width="1" fill="none"></path></g><g stroke-linecap="round" transform="translate(236 514.4166666666667) rotate(0 54.5 22)"><path d="M-1.57 -1.19 C26.89 0.82, 54.49 -0.17, 107.29 -1.71 M-0.58 0.81 C34.03 0.68, 68.82 1, 109.06 -0.33 M108.49 -0.88 C107.82 11.24, 109.83 24.68, 108.23 45.24 M108.07 -0.09 C109.81 10.34, 108.56 22.67, 108.88 44.03 M107.54 42.19 C83.3 43.07, 55.05 44.18, -1.49 43.41 M109.76 43.53 C67.36 45.39, 25.87 44.08, -0.93 43.47 M1.08 43.25 C-0.11 28.3, 0.46 15.55, -0.32 1.3 M0.19 44.01 C-0.35 29.09, 0.49 16.15, -0.99 0.5" stroke="#a61e4d" stroke-width="1" fill="none"></path></g><g transform="translate(57 24.916666666666742) rotate(0 41.5 12.5)"><text x="0" y="18" font-family="Virgil, Segoe UI Emoji" font-size="20px" fill="#000000" text-anchor="start" style="white-space: pre;" direction="ltr">Question</text></g><g transform="translate(64 119.41666666666674) rotate(0 38 12.5)"><text x="0" y="18" font-family="Virgil, Segoe UI Emoji" font-size="20px" fill="#000000" text-anchor="start" style="white-space: pre;" direction="ltr">Answers</text></g><g transform="translate(60 396.41666666666674) rotate(0 62 12.5)"><text x="0" y="18" font-family="Virgil, Segoe UI Emoji" font-size="20px" fill="#000000" text-anchor="start" style="white-space: pre;" direction="ltr">Referencelink</text></g><g transform="translate(42 525.4166666666667) rotate(0 37 12.5)"><text x="37" y="18" font-family="Virgil, Segoe UI Emoji" font-size="20px" fill="#000000" text-anchor="middle" style="white-space: pre;" direction="ltr">Approve</text></g><g transform="translate(257 523.9166666666667) rotate(0 33.5 12.5)"><text x="33.5" y="18" font-family="Virgil, Segoe UI Emoji" font-size="20px" fill="#000000" text-anchor="middle" style="white-space: pre;" direction="ltr">Decline</text></g><g stroke-linecap="round" transform="translate(148.5 513.4166666666667) rotate(0 40 22)"><path d="M1.73 0.34 C27.23 0.91, 53.98 -1.16, 81.44 -1.42 M0.53 -0.87 C21.72 -1.53, 43.67 -0.92, 80.35 0.22 M80.9 0.38 C81.71 13.99, 79.36 23.7, 80.78 43.93 M79.37 -0.33 C80.26 16.9, 80.27 34.83, 80.98 44.61 M78.51 45.88 C50.18 43.48, 17.6 46, -1.03 42.37 M80.32 43.27 C61.08 44.01, 40.24 43.73, 0.89 43.16 M1 44.35 C-0.79 27.4, 0.17 15.27, 1.02 -1.81 M-0.52 43.26 C-0.14 35.9, -0.04 25.65, -0.39 -0.38" stroke="#e67700" stroke-width="1" fill="none"></path></g><g transform="translate(170 525.9166666666667) rotate(0 20.5 12.5)"><text x="20.5" y="18" font-family="Virgil, Segoe UI Emoji" font-size="20px" fill="#000000" text-anchor="middle" style="white-space: pre;" direction="ltr">Edit</text></g><g stroke-linecap="round" transform="translate(10 596.9166666666667) rotate(0 173.5 285.5)"><path d="M1 0.37 C137.37 2.01, 273.46 3.45, 347.73 -0.4 M-0.63 0.03 C110.52 -2, 220.63 -1.7, 347.45 0.46 M346.59 -0.68 C346.35 181.13, 347.39 363.72, 346.54 571.47 M346.7 -0.04 C344.71 223.37, 345.2 446.04, 347.1 571.21 M346.24 570.59 C231.16 569.9, 112.52 570.48, -0.79 570.8 M346.93 570.95 C223.79 573.6, 100.92 573.59, -0.38 570.83 M0.68 571.68 C-1.24 423.69, -0.58 275.61, 0.26 0.55 M-0.15 571.4 C-1.09 398.58, -1.16 226.38, -0.36 -0.16" stroke="#000000" stroke-width="1" fill="none"></path></g><g stroke-linecap="round" transform="translate(50 638.9166666666667) rotate(0 132.5 17)"><path d="M0.45 0.24 C95.78 -2.67, 193.56 -0.72, 264.52 0.28 M0.04 0.24 C73.38 1.98, 147.1 2.57, 265.56 0.15 M263.29 -0.99 C262.98 11.43, 264.7 18.5, 266.19 35.81 M264.9 -0.76 C265.94 7.72, 264.93 14.73, 265.54 34.37 M264.5 35.46 C179.37 32.33, 95.4 31.83, -0.24 34.86 M264.94 33.72 C161.75 33.61, 57.92 33.3, -0.21 33.68 M1.7 33.89 C1.73 23.56, 1.64 10.71, 1.38 0.03 M0.99 34.57 C-0.28 22.24, -0.04 8.78, -0.4 0.31" stroke="#000000" stroke-width="1" fill="none"></path></g><g stroke-linecap="round" transform="translate(58 730.9166666666667) rotate(0 127.5 17.5)"><path d="M0.24 -0.27 C50.38 0.93, 103.85 -1.07, 255.29 -0.37 M0.24 0.02 C99.06 0.29, 198.76 0.47, 255.15 -0.09 M254.01 -1.94 C256.43 9.48, 253.68 20.6, 256.81 33.26 M254.24 0.74 C255.23 12.26, 255 25.6, 255.37 35.2 M256.49 34.02 C181.51 34.09, 107.99 34.11, 0.88 36.48 M254.71 35.58 C154.41 35.41, 53.65 34.63, -0.33 35.42 M-0.11 36.82 C1.23 25.29, 0.36 13.5, 0.03 1.15 M0.57 34.68 C0.52 24.81, -0.78 14.38, 0.31 0.87" stroke="#000000" stroke-width="1" fill="none"></path></g><g stroke-linecap="round" transform="translate(52.5 778.4166666666667) rotate(0 127.5 17.5)"><path d="M-0.27 -1.1 C97.43 0.59, 191.35 -0.02, 254.63 1.43 M0.02 -0.04 C52.33 -0.05, 104.44 -0.46, 254.91 -0.18 M253.06 1.61 C254.47 7.57, 255.89 19.24, 253.26 36.16 M255.74 0.49 C254.7 8.18, 255.5 16.21, 255.2 34.86 M254.02 34.53 C192.97 35.93, 131.21 37.78, 1.48 36.52 M255.58 34.85 C181.94 33.8, 107.56 33.94, 0.42 35.22 M1.82 36.53 C1.44 22.18, 1.08 8.07, 1.15 -0.22 M-0.32 35.39 C-0.43 24.89, -0.74 16.9, 0.87 0.05" stroke="#000000" stroke-width="1" fill="none"></path></g><g stroke-linecap="round" transform="translate(52.5 824.4166666666667) rotate(0 127.5 17.5)"><path d="M-1.1 1.51 C84.57 -0.15, 167.63 -0.03, 256.43 -1.56 M-0.04 0.39 C78.28 0.52, 155.59 -0.14, 254.82 -0.41 M256.61 -0.23 C253.68 8.69, 256.64 13.27, 256.16 33.52 M255.49 -0.27 C255 10.69, 255.11 20.5, 254.86 34.42 M254.53 34.74 C185.56 33.51, 118.96 35.24, 1.52 34.82 M254.85 35.56 C179.92 36.26, 105.46 36.89, 0.22 35.69 M1.53 36.73 C0.68 22.9, 0.05 9.19, -0.22 -0.74 M0.39 34.92 C-1.11 20.63, 0.11 7.93, 0.05 0.4" stroke="#000000" stroke-width="1" fill="none"></path></g><g stroke-linecap="round" transform="translate(50.5 872.4166666666667) rotate(0 127.5 17.5)"><path d="M1.51 0.9 C79.81 1.69, 160.23 2.83, 253.44 0.08 M0.39 0.56 C84.65 0.25, 168.07 -0.08, 254.59 -0.69 M254.77 -1.15 C255.85 10.59, 252.92 18.71, 253.52 34.8 M254.73 0.26 C255.8 8.23, 255.46 15.57, 254.42 34.68 M254.74 34.03 C154.7 35.28, 56.36 35.92, -0.18 34.88 M255.56 34.53 C187.3 34.28, 120.46 34.83, 0.69 35.69 M1.73 35.66 C1.06 24.73, 0.83 14.16, -0.74 1.98 M-0.08 34.09 C-0.28 22.82, 0.98 10.08, 0.4 -0.65" stroke="#000000" stroke-width="1" fill="none"></path></g><g stroke-linecap="round" transform="translate(51.5 919.4166666666667) rotate(0 127.5 17.5)"><path d="M0.9 -0.49 C72.54 -2.3, 145.94 -3.48, 255.08 0.48 M0.56 0.57 C77.3 -1.09, 154.12 -1.41, 254.31 -0.4 M253.85 1.19 C257.1 5.36, 256.44 12.72, 254.8 33.49 M255.26 0.54 C255.54 13.3, 255.03 25.63, 254.68 35.92 M254.03 34.76 C194.82 36.16, 134.4 34.49, -0.12 34.43 M254.53 34.78 C159.96 36.85, 65.8 37.11, 0.69 34.96 M0.66 36.38 C-0.23 22.47, -0.49 6.89, 1.98 1.13 M-0.91 34.6 C0.17 26.49, -0.09 16.65, -0.65 -0.24" stroke="#000000" stroke-width="1" fill="none"></path></g><g stroke-linecap="round" transform="translate(49.5 1011.4166666666667) rotate(0 127.5 17.5)"><path d="M-0.49 0.29 C58.83 0.29, 116.86 -1.07, 255.48 0.04 M0.57 0.15 C75.17 -1.61, 150.1 -2.12, 254.6 -0.79 M256.19 1.81 C253.22 14.48, 253.49 26.43, 253.49 36.49 M255.54 0.37 C255.1 12.07, 254.33 24.09, 255.92 34.39 M254.76 35.88 C187.43 35.28, 116.71 33.64, -0.57 36.15 M254.78 34.67 C183.72 34.01, 112.28 34.48, -0.04 35.74 M1.38 35.03 C0.85 21.6, -1.04 10.62, 1.13 -0.64 M-0.4 35.31 C0.9 23.17, 0.43 10.61, -0.24 1" stroke="#000000" stroke-width="1" fill="none"></path></g><g stroke-linecap="round" transform="translate(21 1099.9166666666667) rotate(0 58 21.5)"><path d="M0.36 -0.46 C47.41 -1.57, 91.36 0.95, 116.05 -0.1 M0.19 -0.11 C40.19 -1.32, 79.97 -1.31, 115.03 0.8 M117.81 -1.74 C116.91 10.94, 115.55 23.31, 117.49 43.97 M116.37 0.2 C115.98 11.17, 115.8 24.42, 115.39 42.71 M117.09 44.84 C84.92 42.6, 49.94 42.12, 1.43 42.62 M115.59 43.52 C73.45 43.54, 31.22 42.64, 0.91 43.77 M0.03 44.15 C-0.36 25.63, 1.84 10.87, -0.64 0.78 M0.31 43.87 C0.44 30.86, -0.26 17.66, 1 -0.33" stroke="#2b8a3e" stroke-width="1" fill="none"></path></g><g stroke-linecap="round" transform="translate(236 1097.9166666666667) rotate(0 54.5 22)"><path d="M-0.46 1.77 C36.83 -0.1, 78.11 -0.14, 108.9 0.97 M-0.11 -0.23 C39.72 -1.06, 79.96 -1.17, 109.8 -0.11 M107.26 1.16 C107.79 10.48, 107.75 22.84, 109.97 43.46 M109.2 -0.14 C108.66 14.03, 110.16 28.08, 108.71 43.84 M110.84 45.88 C82.64 44.44, 56.02 46.02, -0.38 45.38 M109.52 44.27 C83.52 44.41, 56.29 44.47, 0.77 44.87 M1.15 43.78 C-1.05 31.33, 0.83 14.06, 0.78 -0.16 M0.87 44.05 C0.58 34.16, -0.06 26.61, -0.33 0.17" stroke="#a61e4d" stroke-width="1" fill="none"></path></g><g transform="translate(57 608.4166666666667) rotate(0 41.5 12.5)"><text x="0" y="18" font-family="Virgil, Segoe UI Emoji" font-size="20px" fill="#000000" text-anchor="start" style="white-space: pre;" direction="ltr">Question</text></g><g transform="translate(64 702.9166666666667) rotate(0 38 12.5)"><text x="0" y="18" font-family="Virgil, Segoe UI Emoji" font-size="20px" fill="#000000" text-anchor="start" style="white-space: pre;" direction="ltr">Answers</text></g><g transform="translate(60 979.9166666666667) rotate(0 62 12.5)"><text x="0" y="18" font-family="Virgil, Segoe UI Emoji" font-size="20px" fill="#000000" text-anchor="start" style="white-space: pre;" direction="ltr">Referencelink</text></g><g transform="translate(42 1108.9166666666667) rotate(0 37 12.5)"><text x="37" y="18" font-family="Virgil, Segoe UI Emoji" font-size="20px" fill="#000000" text-anchor="middle" style="white-space: pre;" direction="ltr">Approve</text></g><g transform="translate(257 1107.4166666666667) rotate(0 33.5 12.5)"><text x="33.5" y="18" font-family="Virgil, Segoe UI Emoji" font-size="20px" fill="#000000" text-anchor="middle" style="white-space: pre;" direction="ltr">Decline</text></g><g stroke-linecap="round" transform="translate(148.5 1096.9166666666667) rotate(0 40 22)"><path d="M-0.1 0.97 C25.76 1.38, 49.14 -0.24, 79.55 -1.02 M0.8 -0.11 C16.58 1.37, 35.21 -0.09, 80.58 -0.74 M80.97 -0.54 C80.19 13.83, 80.41 25.91, 79.73 42.85 M79.71 -0.16 C79.8 11.66, 80.95 24.54, 80.94 43.89 M79.62 45.38 C55.43 44.04, 32.37 45.62, 0.54 45.7 M80.77 44.87 C49.52 45.42, 18.39 45.3, -0.11 43.63 M0.78 43.84 C-2.07 25.64, 0.36 10.61, 0.09 0.81 M-0.33 44.17 C0.46 32.81, -0.06 23.35, 0.25 -0.59" stroke="#e67700" stroke-width="1" fill="none"></path></g><g transform="translate(170 1109.4166666666667) rotate(0 20.5 12.5)"><text x="20.5" y="18" font-family="Virgil, Segoe UI Emoji" font-size="20px" fill="#000000" text-anchor="middle" style="white-space: pre;" direction="ltr">Edit</text></g><g stroke-linecap="round" transform="translate(385.6666666666665 10.000000000000028) rotate(0 173.5 285.50000000000006)"><path d="M0.8 0.48 C128.81 -0.75, 258.31 0.58, 346.44 0.68 M0.16 -0.01 C123.41 0.98, 246.42 0.55, 346.39 -0.63 M347.69 0.23 C346.21 214.36, 346.15 429.95, 347.31 571.63 M346.71 -0.19 C346.37 198.29, 346.32 396.8, 347.09 571.13 M347.65 571.03 C235.72 571.31, 128.06 572.29, 0.35 570.97 M347.09 571.11 C247.14 571.95, 145.78 572.41, 0.33 571.05 M-0.07 570.89 C1.76 429.37, 1.78 286.41, 0.68 -0.01 M-0.37 571.1 C0.56 394.83, 0.13 217.85, -0.11 0.29" stroke="#000000" stroke-width="1" fill="none"></path></g><g stroke-linecap="round" transform="translate(425.6666666666665 52) rotate(0 132.5 17)"><path d="M0.59 0.23 C84.99 0.02, 172 -1.96, 265.83 0.88 M-0.02 -0.03 C66.5 -1.07, 132.67 -1.27, 264.24 0.6 M265.59 -0.63 C263.55 8.62, 265.33 19.59, 266.58 34.95 M264.53 0.23 C264.32 9.23, 264.42 18.46, 265.34 34.17 M265.03 32.46 C167.2 36.34, 71.97 35.47, -0.04 33.83 M265.14 34.6 C195.1 33.68, 126.36 34.7, 0.06 33.6 M-0.28 34.78 C1.69 26.79, -0.08 19.61, -0.02 0.18 M0.26 34.62 C0.44 23.8, -1.02 14.24, 0.72 0.49" stroke="#000000" stroke-width="1" fill="none"></path></g><g stroke-linecap="round" transform="translate(433.6666666666665 143.9999999999999) rotate(0 127.5 17.5)"><path d="M0.24 -0.41 C82.47 0.46, 161.58 0.08, 255.9 -0.78 M-0.03 -0.19 C63.13 -0.68, 126.62 -0.73, 255.62 -0.19 M254.37 -1.26 C254.52 9.06, 256.09 18.66, 255.95 34.37 M255.23 -0.43 C254.86 7.64, 254.97 16.29, 255.17 35.64 M253.43 33.59 C163.54 34.84, 69.87 35, -0.17 34.38 M255.62 34.39 C161.71 35.32, 70.09 35.41, -0.41 34.49 M0.78 36.58 C0.87 25.43, 1.73 16.21, 0.18 -0.27 M0.62 35.58 C-0.14 22.18, 0.04 11.85, 0.49 -0.32" stroke="#000000" stroke-width="1" fill="none"></path></g><g stroke-linecap="round" transform="translate(428.1666666666665 191.49999999999966) rotate(0 127.5 17.5)"><path d="M-0.41 1.33 C93.31 -0.99, 185.02 0.6, 254.22 -0.81 M-0.19 -0.55 C82.16 -0.68, 165 0.69, 254.81 -0.45 M253.74 -0.79 C255.63 14.32, 256.68 28.02, 254.37 33.56 M254.57 0.11 C254.5 8.22, 255.17 16.17, 255.64 35.64 M253.59 36.32 C165.56 33.43, 76.48 32.82, -0.62 36.02 M254.39 34.37 C174.86 36.98, 94.85 36.16, -0.51 34.74 M1.58 35.84 C-0.14 26.51, 0.03 14.81, -0.27 0.82 M0.58 34.54 C-0.98 27.42, 0.63 20.89, -0.32 -0.64" stroke="#000000" stroke-width="1" fill="none"></path></g><g stroke-linecap="round" transform="translate(428.1666666666665 237.49999999999966) rotate(0 127.5 17.5)"><path d="M1.33 1.22 C85.24 1.37, 172.75 -0.25, 254.19 0.4 M-0.55 -0.73 C75.18 -0.28, 152.48 0.31, 254.55 0.7 M254.21 0.52 C255.68 13.1, 255.84 22.41, 253.56 33.57 M255.11 -0.33 C255.3 9.19, 255.25 18.34, 255.64 35.5 M256.32 34.8 C178.43 33.16, 100.83 32.58, 1.02 35.23 M254.37 34.96 C174.48 33.5, 92.73 32.94, -0.26 34.93 M0.84 34.81 C1.56 24.97, 0.04 14.71, 0.82 -1.83 M-0.46 34.12 C-0.5 24.31, 0.27 11.85, -0.64 0.02" stroke="#000000" stroke-width="1" fill="none"></path></g><g stroke-linecap="round" transform="translate(426.1666666666665 285.49999999999966) rotate(0 127.5 17.5)"><path d="M1.22 -0.69 C81.06 -0.8, 159.64 -2.51, 255.4 -0.04 M-0.73 -0.76 C74.82 2.03, 151 0.96, 255.7 0.24 M255.52 0.79 C256.35 10.35, 254.15 17.34, 253.57 34.06 M254.67 0.22 C255.19 11.46, 255.49 23.22, 255.5 35.02 M254.8 35.43 C203.27 36.51, 150.99 37.71, 0.23 35.28 M254.96 35.41 C159.12 32.99, 62.61 33.14, -0.07 34.89 M-0.19 36.7 C-0.3 23.31, -0.55 12.09, -1.83 0.52 M-0.88 34.72 C0.52 22.82, -0.52 9.02, 0.02 0.7" stroke="#000000" stroke-width="1" fill="none"></path></g><g stroke-linecap="round" transform="translate(427.1666666666665 332.4999999999998) rotate(0 127.5 17.5)"><path d="M-0.69 0.84 C70.86 -2.34, 139.11 -1.15, 254.96 -0.06 M-0.76 -0.78 C70.99 1.67, 140.29 2.56, 255.24 -0.26 M255.79 1.58 C255.81 7.66, 253.42 15.16, 254.06 35.45 M255.22 0.34 C255.21 9.63, 255.68 18.48, 255.02 34.03 M255.43 34.96 C200.59 34.12, 147.55 34.98, 0.28 36.23 M255.41 35.06 C197.29 34.39, 140.15 34.83, -0.11 35.32 M1.7 34.98 C0.03 21.46, 0.67 6.62, 0.52 1.24 M-0.28 35.72 C0.65 22.14, -0.48 9.95, 0.7 -0.18" stroke="#000000" stroke-width="1" fill="none"></path></g><g stroke-linecap="round" transform="translate(425.1666666666665 424.4999999999998) rotate(0 127.5 17.5)"><path d="M0.84 0.9 C96.73 0.07, 195.42 0.85, 254.94 -0.39 M-0.78 0.62 C58.87 1.47, 118.81 2.16, 254.74 -0.51 M256.58 0.95 C254.46 7.68, 253.66 17.31, 255.45 34.14 M255.34 0.17 C255.52 11.53, 255.38 21.81, 254.03 34.13 M254.96 34.83 C157.05 36.57, 60.58 35.83, 1.23 33.78 M255.06 34.59 C197.75 35.78, 141.46 35.93, 0.32 35.64 M-0.02 35.18 C-0.24 23.85, -1.8 11.59, 1.24 1.16 M0.72 35.49 C-0.01 25.46, 0.33 17.89, -0.18 0.4" stroke="#000000" stroke-width="1" fill="none"></path></g><g stroke-linecap="round" transform="translate(396.6666666666665 512.9999999999998) rotate(0 58 21.5)"><path d="M1.11 -0.97 C42.55 -0.11, 87.07 -0.68, 115.52 -1.37 M0.76 -0.23 C23.75 1.98, 48.91 0.8, 115.37 -0.39 M116.95 -0.63 C114.73 12.6, 115.23 28.5, 115.14 43.22 M116.17 0.64 C116.73 11.97, 116.11 21.98, 115.13 43.82 M115.78 42.23 C83.89 43.26, 49.6 44.5, -1.51 41.45 M115.49 42.37 C81.42 42.99, 47.35 43.47, 0.79 43.42 M0.18 42.73 C0.45 28.67, 0.16 19.24, 1.16 -0.91 M0.49 42.68 C-0.52 33.92, 0.82 24.63, 0.4 -0.47" stroke="#2b8a3e" stroke-width="1" fill="none"></path></g><g stroke-linecap="round" transform="translate(611.6666666666665 510.9999999999998) rotate(0 54.5 22)"><path d="M-0.97 -1 C28.54 -0.65, 56.01 -1.09, 107.63 -1.81 M-0.23 -0.56 C23.37 -0.54, 44.7 -1.46, 108.61 0.26 M108.37 -1.44 C107.92 13.99, 109.8 29, 109.22 43.34 M109.64 0.64 C109.65 14.18, 108.18 27.44, 109.82 43.88 M108.23 45.27 C73.67 44.23, 39.3 42.38, -1.55 43.91 M108.37 43.68 C70.72 43.31, 33 44.24, 0.42 43.91 M-0.27 44.82 C-1.83 27.58, 1.24 11.29, -0.91 -1.77 M-0.32 43.36 C-0.3 32.74, -0.49 20.48, -0.47 0.61" stroke="#a61e4d" stroke-width="1" fill="none"></path></g><g transform="translate(432.6666666666665 21.50000000000003) rotate(0 41.5 12.499999999999986)"><text x="0" y="18" font-family="Virgil, Segoe UI Emoji" font-size="20px" fill="#000000" text-anchor="start" style="white-space: pre;" direction="ltr">Question</text></g><g transform="translate(439.6666666666665 116) rotate(0 38 12.5)"><text x="0" y="18" font-family="Virgil, Segoe UI Emoji" font-size="20px" fill="#000000" text-anchor="start" style="white-space: pre;" direction="ltr">Answers</text></g><g transform="translate(435.6666666666665 392.9999999999998) rotate(0 62 12.5)"><text x="0" y="18" font-family="Virgil, Segoe UI Emoji" font-size="20px" fill="#000000" text-anchor="start" style="white-space: pre;" direction="ltr">Referencelink</text></g><g transform="translate(417.6666666666665 521.9999999999998) rotate(0 37 12.5)"><text x="37" y="18" font-family="Virgil, Segoe UI Emoji" font-size="20px" fill="#000000" text-anchor="middle" style="white-space: pre;" direction="ltr">Approve</text></g><g transform="translate(632.6666666666665 520.4999999999998) rotate(0 33.5 12.5)"><text x="33.5" y="18" font-family="Virgil, Segoe UI Emoji" font-size="20px" fill="#000000" text-anchor="middle" style="white-space: pre;" direction="ltr">Decline</text></g><g stroke-linecap="round" transform="translate(524.1666666666665 509.9999999999998) rotate(0 40 22)"><path d="M-1.37 -1.81 C21.95 -1.73, 49.17 -0.28, 78.88 1.73 M-0.39 0.26 C26.73 1.29, 53.16 0.19, 79.28 -0.71 M80.22 -0.66 C80.53 11.8, 80.44 23.53, 81.28 45 M80.82 -0.12 C79.84 13.26, 79.46 26.19, 80.63 44.14 M78.45 43.91 C55.62 43.54, 28.2 42.13, -0.64 43.82 M80.42 43.91 C57.97 44.62, 34.32 44.5, 0.41 43.08 M-0.91 42.23 C-0.84 31.09, 0.7 14.66, -1.28 0.04 M-0.47 44.61 C0.33 28.09, 0.2 11.77, 0.54 -0.6" stroke="#e67700" stroke-width="1" fill="none"></path></g><g transform="translate(545.6666666666665 522.4999999999998) rotate(0 20.5 12.5)"><text x="20.5" y="18" font-family="Virgil, Segoe UI Emoji" font-size="20px" fill="#000000" text-anchor="middle" style="white-space: pre;" direction="ltr">Edit</text></g><g stroke-linecap="round" transform="translate(385.6666666666665 593.5) rotate(0 173.5 285.5000000000001)"><path d="M-1.22 -1.26 C96.76 1.75, 190.79 3.19, 347.38 -0.41 M0.26 0.52 C82.53 -0.8, 163.97 -1.06, 346.69 0.15 M347.17 0.27 C347.39 147.21, 347.77 293.8, 347.02 570.22 M347.11 -0.01 C348.82 121.29, 349.12 242.95, 347.07 571.3 M347.66 571.09 C268.36 570.06, 190.64 570.78, -0.18 571.51 M347.56 570.99 C215.47 570.7, 84.09 570.19, 0.17 571.41 M-0.23 571.58 C1.43 366.21, 0.53 161.94, 0.56 -0.14 M0.1 571.14 C1.13 376.89, 1.3 182.3, 0.21 -0.18" stroke="#000000" stroke-width="1" fill="none"></path></g><g stroke-linecap="round" transform="translate(425.6666666666665 635.5) rotate(0 132.5 17)"><path d="M-1.52 1.21 C61 1.08, 124.11 2.42, 264.5 -1 M0.62 0.38 C68.84 -1.4, 137.62 -1.2, 265.18 -0.34 M265.67 0.34 C266.16 11.86, 265.89 21.2, 263.05 32.25 M264.98 -0.11 C264.57 13.61, 265.1 26.13, 265.76 33.25 M265.11 33.19 C205.04 34.55, 146.94 34.84, 0.62 35.25 M264.99 34.07 C174.3 36.11, 83.09 35.99, 0.49 34.46 M1.44 34.98 C-0.34 24.07, 0.34 18.1, -0.36 0.8 M0.36 34.12 C0.1 25.95, -0.81 17.36, -0.46 -0.93" stroke="#000000" stroke-width="1" fill="none"></path></g><g stroke-linecap="round" transform="translate(433.6666666666665 727.5000000000002) rotate(0 127.5 17.5)"><path d="M1.23 -0.38 C52.54 3.38, 107.35 1.47, 253.98 -0.63 M0.38 -0.26 C82.59 -2.2, 165.96 -1.44, 254.65 0.09 M255.34 1.28 C256.35 10.34, 255.12 16.73, 253.25 36.63 M254.89 -0.38 C255.73 10.21, 255.27 20.9, 254.25 34.22 M254.18 33.97 C179.18 35, 104.16 35.78, 1.28 35.68 M255.07 34.89 C181.19 34.24, 106.93 35.48, 0.47 34.63 M0.98 34.36 C-1.18 27.64, 1.49 19.83, 0.8 -0.95 M0.12 35.31 C0.45 21.77, 0.45 9.3, -0.93 0.34" stroke="#000000" stroke-width="1" fill="none"></path></g><g stroke-linecap="round" transform="translate(428.1666666666665 775.0000000000002) rotate(0 127.5 17.5)"><path d="M-0.38 -0.9 C54.06 -1.1, 104.8 -2.59, 254.37 0.42 M-0.26 -0.58 C85.95 -1.36, 173.24 -1.33, 255.09 -0.27 M256.28 1.28 C256.12 11.3, 253.17 20.78, 256.63 34.75 M254.62 0.63 C255.13 11.61, 255.75 22.12, 254.22 34.95 M253.97 34.49 C165.5 33.73, 76.92 35.23, 0.68 34.85 M254.89 35.33 C156.1 35.4, 59.18 35.65, -0.37 34.29 M-0.64 33.72 C-0.21 26.88, -0.61 16.78, -0.95 1.21 M0.31 35.54 C-0.73 24.14, -0.58 11.28, 0.34 -0.66" stroke="#000000" stroke-width="1" fill="none"></path></g><g stroke-linecap="round" transform="translate(428.1666666666665 821) rotate(0 127.5 17.5)"><path d="M-0.9 1.4 C52.51 -0.03, 103.06 -0.15, 255.42 0.64 M-0.58 -0.58 C96.21 0.84, 192.82 0.74, 254.73 0.18 M256.28 1 C255.1 9.74, 253.31 24.99, 254.75 35.53 M255.63 0.14 C255.14 11.18, 254.21 20.07, 254.95 35.5 M254.49 34.86 C176.48 34.32, 99.7 34.37, -0.15 36.37 M255.33 34.26 C178.97 35.22, 102.98 34.35, -0.71 34.77 M-1.28 35.04 C1.22 21.62, 0.63 8.01, 1.21 0.51 M0.54 34.4 C0.49 22.8, -0.97 11.84, -0.66 -0.27" stroke="#000000" stroke-width="1" fill="none"></path></g><g stroke-linecap="round" transform="translate(426.1666666666665 869) rotate(0 127.5 17.5)"><path d="M1.4 0.47 C95.45 0.13, 191.28 1.58, 255.64 1.27 M-0.58 -0.38 C88.82 1.14, 177.35 1.22, 255.18 0.27 M256 0.04 C253.28 9.35, 256.86 21.95, 255.53 34.96 M255.14 0.17 C255.63 9.37, 254.09 20.2, 255.5 35.07 M254.86 34.77 C192.1 35.62, 128.62 34.19, 1.37 34.98 M254.26 35.21 C176.72 36.32, 97.08 35.13, -0.23 35.58 M0.04 36.39 C-0.24 23.6, -0.84 11.8, 0.51 0.71 M-0.6 35.54 C-0.56 23.15, 0.23 12.49, -0.27 -0.9" stroke="#000000" stroke-width="1" fill="none"></path></g><g stroke-linecap="round" transform="translate(427.1666666666665 916) rotate(0 127.5 17.5)"><path d="M0.47 -0.51 C69.49 -2.42, 141.45 -1.15, 256.27 0.77 M-0.38 0.18 C68.07 1.56, 136.57 1.65, 255.27 0.14 M255.04 -1.95 C253.48 14.37, 254.98 26, 254.96 34.78 M255.17 0.76 C254.47 8.38, 255.18 18.81, 255.07 34.49 M254.77 35.63 C195.96 35.49, 134.2 36.19, -0.02 35.14 M255.21 35.5 C182.42 32.74, 108.19 32.89, 0.58 35.39 M1.39 34.64 C1.03 24.67, 1.44 16.76, 0.71 0.24 M0.54 34.54 C-1.12 23.77, -0.85 11.58, -0.9 0.68" stroke="#000000" stroke-width="1" fill="none"></path></g><g stroke-linecap="round" transform="translate(425.1666666666665 1008) rotate(0 127.5 17.5)"><path d="M-0.51 -1.02 C61.59 -0.18, 125.09 0.67, 255.77 -0.51 M0.18 -0.35 C58.2 0.7, 116.39 1.24, 255.14 0.52 M253.05 -1.75 C256.81 12.49, 255.71 25.42, 254.78 34.23 M255.76 -0.75 C254.27 12.67, 255.55 25.51, 254.49 34.37 M255.63 36.28 C187.3 34.56, 119.61 34.7, 0.14 34.78 M255.5 35.47 C167.68 34.82, 80.86 36.12, 0.39 34.74 M-0.36 35.8 C-0.95 27.95, 0.5 19.2, 0.24 0.61 M-0.46 34.07 C0.55 21.96, -0.06 9.33, 0.68 0.96" stroke="#000000" stroke-width="1" fill="none"></path></g><g stroke-linecap="round" transform="translate(396.6666666666665 1096.5) rotate(0 58 21.5)"><path d="M-1.26 -0.79 C45.38 1.15, 91.29 1.32, 115.37 -1.44 M-0.43 0.11 C26.19 -0.05, 53.37 -0.09, 116.64 0.64 M114.25 1.63 C115.76 15.58, 115.96 29.88, 115.23 44.27 M115.25 -0.78 C116.03 14.01, 116.14 26.51, 115.37 42.68 M117.58 43.84 C82.05 45.15, 48.46 43.63, -0.27 43.82 M116.58 42.54 C90.93 43.44, 68.35 44.21, -0.32 42.36 M0.8 42.05 C0.91 30.52, 0.41 17.27, 0.61 1.08 M-0.93 43.34 C-0.89 32.43, -1.13 23.08, 0.96 -0.09" stroke="#2b8a3e" stroke-width="1" fill="none"></path></g><g stroke-linecap="round" transform="translate(611.6666666666665 1094.5) rotate(0 54.5 22)"><path d="M-0.79 0.52 C36.68 2.26, 72.73 0.05, 107.56 -1.43 M0.11 -0.33 C27.79 0.81, 55.31 1.11, 109.64 0.5 M110.63 -0.25 C109.11 13.24, 108.36 25.8, 110.27 44.28 M108.22 -0.05 C109.84 14.03, 108.83 27.3, 108.68 43.91 M109.84 43.81 C79.52 44.84, 46.82 44.59, 0.82 42.17 M108.54 43.12 C73.17 45.35, 38.4 44.31, -0.64 44.02 M-0.95 45.21 C0.59 28.45, 0.32 12.08, 1.08 -1.21 M0.34 43.34 C-0.07 27.54, 0.88 13.83, -0.09 0.71" stroke="#a61e4d" stroke-width="1" fill="none"></path></g><g transform="translate(432.6666666666665 605) rotate(0 41.5 12.5)"><text x="0" y="18" font-family="Virgil, Segoe UI Emoji" font-size="20px" fill="#000000" text-anchor="start" style="white-space: pre;" direction="ltr">Question</text></g><g transform="translate(439.6666666666665 699.5000000000002) rotate(0 38 12.5)"><text x="0" y="18" font-family="Virgil, Segoe UI Emoji" font-size="20px" fill="#000000" text-anchor="start" style="white-space: pre;" direction="ltr">Answers</text></g><g transform="translate(435.6666666666665 976.5) rotate(0 62 12.5)"><text x="0" y="18" font-family="Virgil, Segoe UI Emoji" font-size="20px" fill="#000000" text-anchor="start" style="white-space: pre;" direction="ltr">Referencelink</text></g><g transform="translate(417.6666666666665 1105.5) rotate(0 37 12.5)"><text x="37" y="18" font-family="Virgil, Segoe UI Emoji" font-size="20px" fill="#000000" text-anchor="middle" style="white-space: pre;" direction="ltr">Approve</text></g><g transform="translate(632.6666666666665 1104) rotate(0 33.5 12.5)"><text x="33.5" y="18" font-family="Virgil, Segoe UI Emoji" font-size="20px" fill="#000000" text-anchor="middle" style="white-space: pre;" direction="ltr">Decline</text></g><g stroke-linecap="round" transform="translate(524.1666666666665 1093.5) rotate(0 40 22)"><path d="M-1.44 -1.43 C29.36 0.71, 59.74 0.48, 79.34 0.44 M0.64 0.5 C26.72 -1.48, 52.52 0.31, 79.88 0.27 M81.27 0.28 C80.3 14.63, 78.45 24.65, 79.91 45.01 M79.68 -0.09 C79.64 13.9, 80.57 27.44, 79.91 44.85 M80.82 42.17 C56.6 45.13, 33.32 42.98, -1.77 43.44 M79.36 44.02 C50.94 43.57, 20.89 43.27, 0.61 44.26 M1.08 42.79 C1.02 28.32, -1.91 15.14, -1.31 -0.55 M-0.09 44.71 C0.25 34.4, 0.51 26.35, 0.73 -0.5" stroke="#e67700" stroke-width="1" fill="none"></path></g><g transform="translate(545.6666666666665 1106) rotate(0 20.5 12.5)"><text x="20.5" y="18" font-family="Virgil, Segoe UI Emoji" font-size="20px" fill="#000000" text-anchor="middle" style="white-space: pre;" direction="ltr">Edit</text></g></svg>