<svg version="1.1" xmlns="http://www.w3.org/2000/svg" viewBox="0 0 698 241" width="698" height="241">
  <!-- svg-source:excalidraw -->
  
  <defs>
    <style>
      @font-face {
        font-family: "Virgil";
        src: url("https://excalidraw.com/Virgil.woff2");
      }
      @font-face {
        font-family: "Cascadia";
        src: url("https://excalidraw.com/Cascadia.woff2");
      }
    </style>
  </defs>
  <rect x="0" y="0" width="698" height="241" fill="#ffffff"></rect><g stroke-linecap="round" transform="translate(10 10) rotate(0 339 35)"><path d="M-0.05 0.8 C192.63 -1.52, 385.71 -0.37, 678.12 0.54 M-0.38 0.13 C256.02 -1.33, 512.99 -1.53, 678.23 0.22 M679.57 0.83 C676.17 19.89, 678.67 40.26, 676.53 71.32 M678.25 0.01 C677.98 21.72, 677.6 44.14, 677.81 69.06 M677.43 69.7 C485.48 69.76, 293.69 69.58, 0.66 70.03 M677.81 70.05 C501.79 70.7, 325.33 70.88, -0.07 69.67 M-0.35 71.19 C-0.96 53.36, 1.77 35.21, 0.48 -1.15 M0.94 70.63 C-0.39 41.41, 0.62 14.24, 0.37 -0.95" stroke="#000000" stroke-width="1" fill="none"></path></g><g transform="translate(24 37) rotate(0 44 12.5)"><text x="0" y="18" font-family="Virgil, Segoe UI Emoji" font-size="20px" fill="#000000" text-anchor="start" style="white-space: pre;" direction="ltr">Category</text></g><g transform="translate(165 34.5) rotate(0 20 12.5)"><text x="0" y="18" font-family="Virgil, Segoe UI Emoji" font-size="20px" fill="#2b8a3e" text-anchor="start" style="white-space: pre;" direction="ltr">1.174</text></g><g transform="translate(256 35.5) rotate(0 16 12.5)"><text x="0" y="18" font-family="Virgil, Segoe UI Emoji" font-size="20px" fill="#c92a2a" text-anchor="start" style="white-space: pre;" direction="ltr">314</text></g><g transform="translate(341 33.5) rotate(0 31 12.5)"><text x="0" y="18" font-family="Virgil, Segoe UI Emoji" font-size="20px" fill="#1864ab" text-anchor="start" style="white-space: pre;" direction="ltr">78,9%</text></g><g stroke-linecap="round" transform="translate(454.5 33) rotate(0 41.5 16)"><path d="M1.06 -1.99 C30.43 -0.4, 58.68 -0.4, 83.57 0.3 M0.85 0.74 C19.65 -0.81, 38.45 -0.01, 83.64 0.53 M81.78 -0.46 C83.77 13.65, 81.28 25.6, 83.29 31.87 M83.03 0.82 C82.81 8.4, 82.12 16.71, 83.45 32.63 M83.25 31.8 C63.26 33.34, 47.27 33.82, 0.37 31.5 M83.84 32.18 C58.17 32.56, 31.47 32.1, 0.26 31.94 M-1.08 30.2 C0.9 26.19, 0.56 16.37, 1.56 -1.38 M0.68 32.4 C0.72 21.34, -0.81 8.96, 0.56 0.85" stroke="#e67700" stroke-width="1" fill="none"></path></g><g transform="translate(476.5 36.5) rotate(0 20.5 12.5)"><text x="20.5" y="18" font-family="Virgil, Segoe UI Emoji" font-size="20px" fill="#000000" text-anchor="middle" style="white-space: pre;" direction="ltr">Edit</text></g><g stroke-linecap="round" transform="translate(571.5 32) rotate(0 41.5 16)"><path d="M-0.63 1.91 C22.27 2.06, 42.88 1.33, 84.92 0.71 M0.26 -0.88 C30.97 -0.72, 59.87 -0.72, 83.09 0.87 M82.89 1.9 C82.98 9.53, 84.35 14.26, 83.91 31.84 M83.53 0.1 C82.83 10.03, 83 22.14, 83.91 32.26 M81.86 33.84 C58.47 32.12, 35.6 31.16, 1.43 30.39 M83.88 31.3 C51.13 32.04, 17.55 31.31, -0.63 31.3 M-0.85 31.34 C-1.67 21.3, -1.11 7.77, 1.91 1.75 M0.92 31.27 C0.93 22.38, 0.29 11.23, 0.06 -0.54" stroke="#c92a2a" stroke-width="1" fill="none"></path></g><g transform="translate(578.5 36.5) rotate(0 32.5 12.5)"><text x="32.5" y="18" font-family="Virgil, Segoe UI Emoji" font-size="20px" fill="#000000" text-anchor="middle" style="white-space: pre;" direction="ltr">Delete</text></g><g stroke-linecap="round" transform="translate(10 84) rotate(0 339 35)"><path d="M-0.77 -0.34 C232.19 1.68, 464 0.74, 677.76 0.3 M0.31 0.06 C211.73 2.16, 423.2 1.73, 678.02 0.09 M678.33 -1.47 C679.11 25.31, 675.63 52.5, 677.36 69.85 M677.06 0.02 C678.55 27.55, 677.44 53.95, 678.39 70.16 M678.63 69.84 C463.18 68.1, 247.65 68.13, -0.39 70.68 M677.77 70.38 C431.53 70.04, 184.61 70.55, 0.25 69.7 M1.09 69.25 C1.76 55.69, -0.89 40.72, 0.05 -1.92 M-0.95 70.52 C-1.04 42.79, -0.32 18.05, 0.45 -0.58" stroke="#000000" stroke-width="1" fill="none"></path></g><g transform="translate(24 111) rotate(0 44 12.5)"><text x="0" y="18" font-family="Virgil, Segoe UI Emoji" font-size="20px" fill="#000000" text-anchor="start" style="white-space: pre;" direction="ltr">Category</text></g><g transform="translate(165 108.5) rotate(0 20 12.5)"><text x="0" y="18" font-family="Virgil, Segoe UI Emoji" font-size="20px" fill="#2b8a3e" text-anchor="start" style="white-space: pre;" direction="ltr">1.174</text></g><g transform="translate(256 109.5) rotate(0 16 12.5)"><text x="0" y="18" font-family="Virgil, Segoe UI Emoji" font-size="20px" fill="#c92a2a" text-anchor="start" style="white-space: pre;" direction="ltr">314</text></g><g transform="translate(341 107.5) rotate(0 31 12.5)"><text x="0" y="18" font-family="Virgil, Segoe UI Emoji" font-size="20px" fill="#1864ab" text-anchor="start" style="white-space: pre;" direction="ltr">78,9%</text></g><g stroke-linecap="round" transform="translate(454.5 107) rotate(0 41.5 16)"><path d="M-1.93 -0.61 C28.2 0.13, 53.83 -1.68, 84.56 0.29 M-0.98 0.04 C28.08 0.72, 54.89 -0.36, 83.17 -0.73 M82.4 -0.64 C82.66 14.02, 83.07 22.9, 81.13 32.04 M82.71 0.39 C83.3 11.23, 82.89 21.63, 83.79 31.8 M81.59 31.02 C54.48 33.59, 23.8 32.63, -1.17 33.88 M83.32 32.62 C53.1 31, 24.18 31.31, 0.54 31.63 M-0.03 32.05 C-1.97 21.75, 0.93 6.6, -1.9 1.03 M0.97 32.45 C-0.34 25.26, -0.59 17, 0.25 0.42" stroke="#e67700" stroke-width="1" fill="none"></path></g><g transform="translate(476.5 110.5) rotate(0 20.5 12.5)"><text x="20.5" y="18" font-family="Virgil, Segoe UI Emoji" font-size="20px" fill="#000000" text-anchor="middle" style="white-space: pre;" direction="ltr">Edit</text></g><g stroke-linecap="round" transform="translate(571.5 106) rotate(0 41.5 16)"><path d="M0.75 0.24 C24.98 -1.31, 53.66 0.54, 83.71 0.2 M0.24 0.79 C24.79 -0.33, 51.34 -0.77, 83.83 -0.62 M82.85 1.75 C83.17 5.06, 81.03 13.45, 83.91 32.85 M83.16 0.18 C82.66 7.03, 83.7 14.81, 83.64 31.25 M84.69 33.28 C56.17 31.91, 25.73 33.48, 1.02 30.06 M82.24 31.09 C58.41 31.91, 35.46 32.14, 0.69 32.15 M-1.92 33.56 C0.98 22.64, -1.9 17.89, -1.39 -1.5 M-0.58 32.64 C-1.14 22.1, -0.06 13.09, 0.84 0.95" stroke="#c92a2a" stroke-width="1" fill="none"></path></g><g transform="translate(578.5 110.5) rotate(0 32.5 12.5)"><text x="32.5" y="18" font-family="Virgil, Segoe UI Emoji" font-size="20px" fill="#000000" text-anchor="middle" style="white-space: pre;" direction="ltr">Delete</text></g><g stroke-linecap="round" transform="translate(10 161) rotate(0 339 35)"><path d="M0.3 0.75 C170.48 0.42, 339.5 0.75, 677.85 -0.76 M0.33 0.27 C155 1.03, 310.1 0.96, 677.63 -0.18 M678.34 1.7 C678.4 25.03, 678.68 47.69, 679.34 68.77 M677.74 -0.28 C678.31 22.1, 678.08 43.96, 677.26 70.58 M677.24 70.05 C407.54 67.08, 137.61 67.81, 0.02 70.72 M678.37 70.23 C473.26 71.22, 267.46 71.26, -0.23 70.3 M-1.36 71.03 C0.74 53.57, -0.27 39.34, -0.08 -1.21 M-0.83 70.7 C0.14 49.8, -0.3 29.69, -0.7 0.37" stroke="#000000" stroke-width="1" fill="none"></path></g><g transform="translate(24 188) rotate(0 44 12.5)"><text x="0" y="18" font-family="Virgil, Segoe UI Emoji" font-size="20px" fill="#000000" text-anchor="start" style="white-space: pre;" direction="ltr">Category</text></g><g transform="translate(165 185.5) rotate(0 20 12.5)"><text x="0" y="18" font-family="Virgil, Segoe UI Emoji" font-size="20px" fill="#2b8a3e" text-anchor="start" style="white-space: pre;" direction="ltr">1.174</text></g><g transform="translate(256 186.5) rotate(0 16 12.5)"><text x="0" y="18" font-family="Virgil, Segoe UI Emoji" font-size="20px" fill="#c92a2a" text-anchor="start" style="white-space: pre;" direction="ltr">314</text></g><g transform="translate(341 184.5) rotate(0 31 12.5)"><text x="0" y="18" font-family="Virgil, Segoe UI Emoji" font-size="20px" fill="#1864ab" text-anchor="start" style="white-space: pre;" direction="ltr">78,9%</text></g><g stroke-linecap="round" transform="translate(454.5 184) rotate(0 41.5 16)"><path d="M1.75 -0.38 C28.73 -1.06, 62.73 -0.49, 84.65 1.36 M-0.47 -0.93 C22.41 0.76, 46.01 -0.17, 83.17 0.85 M81.31 1.34 C81.83 10.07, 84.55 20.7, 82.48 31.44 M83.79 -0.74 C83.74 9.91, 83.78 16.85, 82.05 32.06 M84.25 32.05 C58.65 32.85, 31.45 33.83, 1.87 33.17 M82.66 31.44 C51.8 30.47, 20.05 30.57, -0.68 32.52 M1.07 31.92 C-1.12 19.99, -0.09 9.05, -1.67 1.41 M0.44 31.3 C0.31 21.42, 0.6 13.06, 0.54 0.29" stroke="#e67700" stroke-width="1" fill="none"></path></g><g transform="translate(476.5 187.5) rotate(0 20.5 12.5)"><text x="20.5" y="18" font-family="Virgil, Segoe UI Emoji" font-size="20px" fill="#000000" text-anchor="middle" style="white-space: pre;" direction="ltr">Edit</text></g><g stroke-linecap="round" transform="translate(571.5 183) rotate(0 41.5 16)"><path d="M-1.91 -1.42 C22.74 -0.69, 44.24 1.51, 82.51 -0.6 M-0.44 0.53 C22.92 0.38, 45.41 1.63, 83.09 0.17 M81.77 0.17 C84.23 11.25, 82.21 20.13, 82.57 33.02 M83.58 0.99 C83.87 7.18, 82.3 16.41, 83.15 31.71 M84.8 32.05 C50.83 33.05, 19.05 33.19, 1.7 31.11 M83.74 31.27 C66.99 30.9, 48.45 32.05, 0.7 31.72 M-1.21 31.82 C-0.35 22.51, -1.84 13.01, 0.14 0.34 M0.37 31.24 C0.51 24.28, 0.4 15.43, 0.52 0.27" stroke="#c92a2a" stroke-width="1" fill="none"></path></g><g transform="translate(578.5 187.5) rotate(0 32.5 12.5)"><text x="32.5" y="18" font-family="Virgil, Segoe UI Emoji" font-size="20px" fill="#000000" text-anchor="middle" style="white-space: pre;" direction="ltr">Delete</text></g></svg>