<svg version="1.1" xmlns="http://www.w3.org/2000/svg" viewBox="0 0 367 1174.5" width="367" height="1174.5">
  <!-- svg-source:excalidraw -->
  
  <defs>
    <style>
      @font-face {
        font-family: "Virgil";
        src: url("https://excalidraw.com/Virgil.woff2");
      }
      @font-face {
        font-family: "Cascadia";
        src: url("https://excalidraw.com/Cascadia.woff2");
      }
    </style>
  </defs>
  <rect x="0" y="0" width="367" height="1174.5" fill="#ffffff"></rect><g stroke-linecap="round" transform="translate(10 10) rotate(0 173.5 285.50000000000006)"><path d="M-0.02 0.03 C103.15 1.28, 203.6 1.51, 346.38 0.13 M-0.21 0.09 C86.94 1.12, 173.72 0.79, 347.08 -0.34 M346.98 0.33 C346.26 157.82, 345.73 314.2, 346.7 570.63 M346.8 -0.06 C346.63 199.36, 346.27 398.31, 346.8 571.2 M347.77 570.06 C261.02 571.54, 176.63 570.84, -0.78 570.94 M347.16 570.69 C241.54 568.99, 136.61 568.75, 0.52 570.9 M-0.17 571.73 C-1.97 374.52, -2.48 178.24, 0.34 -0.08 M-0.03 570.88 C-1.15 357.72, -1.29 144.02, 0.09 0.21" stroke="#000000" stroke-width="1" fill="none"></path></g><g stroke-linecap="round" transform="translate(50 52) rotate(0 132.5 17)"><path d="M0.04 0.99 C58.62 -1.24, 116.22 -0.71, 265.15 -0.77 M0.11 -0.24 C58.44 0.01, 116.76 0.78, 264.59 -0.2 M265.82 1.44 C266.73 8.36, 264.61 15.72, 264.07 34.97 M264.86 0.52 C265.66 8.95, 265.47 18.18, 265.5 33.45 M263.87 32.95 C211.13 35.04, 155.52 34.29, -0.07 34.04 M264.62 33.39 C204.93 33.94, 144.51 35.16, -0.12 34.34 M1.83 33.42 C-0.62 19.35, -0.9 9.29, -0.19 1.48 M-0.31 34.21 C0.99 21.81, 0.78 10.17, 0.53 0.48" stroke="#000000" stroke-width="1" fill="none"></path></g><g stroke-linecap="round" transform="translate(58 144) rotate(0 127.5 17.5)"><path d="M1.01 1.33 C72.91 1.56, 147.66 0.11, 254.21 -1.27 M-0.24 -0.29 C60.64 -0.98, 122.76 -0.71, 254.8 -0.47 M256.44 1.46 C255.12 12.65, 254.23 25.71, 255.97 34.49 M255.52 0.81 C254.45 9.58, 254.34 18.42, 254.45 34.07 M253.93 35.91 C180.52 33.58, 105.47 33.46, 0.04 33.82 M254.38 35.06 C200.99 33.77, 148.82 33.89, 0.35 35.61 M-0.58 34.22 C-1.79 25.1, 0.93 17.12, 1.48 1.08 M0.21 35.86 C-0.13 26.46, 0.26 17.15, 0.48 0.19" stroke="#000000" stroke-width="1" fill="none"></path></g><g stroke-linecap="round" transform="translate(52.5 191.5) rotate(0 127.5 17.5)"><path d="M1.33 -1.3 C77.64 -2.06, 152.23 -2.08, 253.73 -0.96 M-0.29 -0.69 C67.47 0.71, 135.91 0.41, 254.53 0.65 M256.46 0.12 C254.48 9.67, 254.21 21.84, 254.49 34.12 M255.81 -0.38 C255.57 8.3, 255.45 17.04, 254.07 34.91 M255.91 34.8 C163.55 32.67, 71.93 33.67, -1.18 33.54 M255.06 34.4 C171.85 34.06, 89.06 33.76, 0.61 34.62 M-0.78 33.13 C-1.38 26.11, -0.51 16.99, 1.08 -0.75 M0.86 34.84 C0.76 25, 0.64 15.01, 0.19 0.01" stroke="#000000" stroke-width="1" fill="none"></path></g><g stroke-linecap="round" transform="translate(52.5 237.5) rotate(0 127.5 17.5)"><path d="M-1.3 1.61 C76.35 -1.54, 153.43 -2.96, 254.04 -0.53 M-0.69 -0.69 C80.23 0.31, 160.06 0.26, 255.65 -0.02 M255.12 -0.67 C254.49 11, 256.22 23.35, 254.12 34.02 M254.62 0.62 C254.69 10.5, 254.63 19.05, 254.91 35.59 M254.8 35.05 C195.78 36.09, 138.53 34.98, -1.46 35.41 M254.4 34.76 C191.37 35.03, 126.81 35.77, -0.38 34.83 M-1.87 33.94 C0.96 21.11, 1.58 8.68, -0.75 -0.15 M-0.16 35.65 C0.16 26.1, 0.4 16.34, 0.01 -0.12" stroke="#000000" stroke-width="1" fill="none"></path></g><g stroke-linecap="round" transform="translate(50.5 285.5) rotate(0 127.5 17.5)"><path d="M1.61 -0.77 C92.63 0.87, 183.69 0.7, 254.47 0.23 M-0.69 0.1 C68.5 1.57, 137.37 2.42, 254.98 0.33 M254.33 -0.76 C254.32 13.98, 254.75 25.15, 254.02 34.71 M255.62 -0.49 C255.79 11.77, 254.35 24.54, 255.59 34.28 M255.05 34.04 C195.38 34.79, 134.71 33.29, 0.41 34.22 M254.76 35.65 C198.04 33.82, 141.93 33.08, -0.17 35.74 M-1.06 35.86 C-0.06 26.99, 1.21 15.27, -0.15 -0.61 M0.65 35.23 C0.23 24.24, -0.11 12.54, -0.12 -0.68" stroke="#000000" stroke-width="1" fill="none"></path></g><g stroke-linecap="round" transform="translate(51.5 332.5) rotate(0 127.5 17.5)"><path d="M-0.77 0.15 C96.62 -3.32, 193.85 -2.58, 255.23 -0.48 M0.1 -0.42 C67.3 1.29, 135.65 1.74, 255.33 0.58 M254.24 -0.93 C255.99 12.54, 254.14 25.13, 254.71 36.04 M254.51 0.5 C254.32 12.42, 254.78 27.29, 254.28 34.34 M254.04 34.93 C164.21 33.88, 71.87 35.47, -0.78 33.75 M255.65 34.88 C176.96 35.01, 97.84 34.22, 0.74 34.77 M0.86 34.81 C1.81 26.95, -0.42 16.59, -0.61 0.42 M0.23 35.53 C0.53 21.68, 0.07 7.87, -0.68 0.72" stroke="#000000" stroke-width="1" fill="none"></path></g><g stroke-linecap="round" transform="translate(49.5 424.5) rotate(0 127.5 17.5)"><path d="M0.15 -0.79 C54.72 0.01, 111.44 1.21, 254.52 -0.57 M-0.42 -0.2 C54.19 0.4, 109.29 0.07, 255.58 0.59 M254.07 0.97 C254.38 9.84, 253.91 21.15, 256.04 36.63 M255.5 -0.55 C254.28 9.07, 255.8 17.6, 254.34 35.56 M254.93 35.04 C180.41 32.31, 108.59 33, -1.25 35.12 M254.88 35.35 C198.1 36.27, 139.79 37.39, -0.23 34.68 M-0.19 36.48 C1.26 27.02, 0.03 19.92, 0.42 1.72 M0.53 35.48 C-0.04 25.07, -0.35 14.44, 0.72 0.6" stroke="#000000" stroke-width="1" fill="none"></path></g><g stroke-linecap="round" transform="translate(21 513) rotate(0 58 21.5)"><path d="M-0.98 -1.57 C45.14 -0.76, 92.94 -0.71, 115.29 -1.71 M-0.25 -0.58 C25.7 0.58, 50.19 1.32, 116.73 0.06 M116.97 -0.51 C114.96 10.49, 115.55 23.97, 117.63 42.23 M115.45 -0.93 C115.7 16.15, 115.07 30.45, 116.56 42.88 M116.05 41.54 C79.02 43.45, 44.71 41.41, 0.15 41.51 M116.44 43.76 C84.15 42.61, 54.16 42.54, -0.39 42.07 M1.48 44.08 C-0.93 32.23, -0.8 22.18, 1.72 -0.32 M0.48 43.19 C-0.09 27.18, -0.78 12.32, 0.6 -0.99" stroke="#2b8a3e" stroke-width="1" fill="none"></path></g><g stroke-linecap="round" transform="translate(236 511) rotate(0 54.5 22)"><path d="M-1.57 -1.19 C26.89 0.82, 54.49 -0.17, 107.29 -1.71 M-0.58 0.81 C34.03 0.68, 68.82 1, 109.06 -0.33 M108.49 -0.88 C107.82 11.24, 109.83 24.68, 108.23 45.24 M108.07 -0.09 C109.81 10.34, 108.56 22.67, 108.88 44.03 M107.54 42.19 C83.3 43.07, 55.05 44.18, -1.49 43.41 M109.76 43.53 C67.36 45.39, 25.87 44.08, -0.93 43.47 M1.08 43.25 C-0.11 28.3, 0.46 15.55, -0.32 1.3 M0.19 44.01 C-0.35 29.09, 0.49 16.15, -0.99 0.5" stroke="#a61e4d" stroke-width="1" fill="none"></path></g><g transform="translate(57 21.5) rotate(0 41.5 12.5)"><text x="0" y="18" font-family="Virgil, Segoe UI Emoji" font-size="20px" fill="#000000" text-anchor="start" style="white-space: pre;" direction="ltr">Question</text></g><g transform="translate(64 116) rotate(0 38 12.5)"><text x="0" y="18" font-family="Virgil, Segoe UI Emoji" font-size="20px" fill="#000000" text-anchor="start" style="white-space: pre;" direction="ltr">Answers</text></g><g transform="translate(60 393) rotate(0 62 12.5)"><text x="0" y="18" font-family="Virgil, Segoe UI Emoji" font-size="20px" fill="#000000" text-anchor="start" style="white-space: pre;" direction="ltr">Referencelink</text></g><g transform="translate(42 522) rotate(0 37 12.5)"><text x="37" y="18" font-family="Virgil, Segoe UI Emoji" font-size="20px" fill="#000000" text-anchor="middle" style="white-space: pre;" direction="ltr">Approve</text></g><g transform="translate(257 520.5) rotate(0 33.5 12.5)"><text x="33.5" y="18" font-family="Virgil, Segoe UI Emoji" font-size="20px" fill="#000000" text-anchor="middle" style="white-space: pre;" direction="ltr">Decline</text></g><g stroke-linecap="round" transform="translate(148.5 510) rotate(0 40 22)"><path d="M1.73 0.34 C27.23 0.91, 53.98 -1.16, 81.44 -1.42 M0.53 -0.87 C21.72 -1.53, 43.67 -0.92, 80.35 0.22 M80.9 0.38 C81.71 13.99, 79.36 23.7, 80.78 43.93 M79.37 -0.33 C80.26 16.9, 80.27 34.83, 80.98 44.61 M78.51 45.88 C50.18 43.48, 17.6 46, -1.03 42.37 M80.32 43.27 C61.08 44.01, 40.24 43.73, 0.89 43.16 M1 44.35 C-0.79 27.4, 0.17 15.27, 1.02 -1.81 M-0.52 43.26 C-0.14 35.9, -0.04 25.65, -0.39 -0.38" stroke="#e67700" stroke-width="1" fill="none"></path></g><g transform="translate(170 522.5) rotate(0 20.5 12.5)"><text x="20.5" y="18" font-family="Virgil, Segoe UI Emoji" font-size="20px" fill="#000000" text-anchor="middle" style="white-space: pre;" direction="ltr">Edit</text></g><g stroke-linecap="round" transform="translate(10 593.5) rotate(0 173.5 285.5)"><path d="M1 0.37 C137.37 2.01, 273.46 3.45, 347.73 -0.4 M-0.63 0.03 C110.52 -2, 220.63 -1.7, 347.45 0.46 M346.59 -0.68 C346.35 181.13, 347.39 363.72, 346.54 571.47 M346.7 -0.04 C344.71 223.37, 345.2 446.04, 347.1 571.21 M346.24 570.59 C231.16 569.9, 112.52 570.48, -0.79 570.8 M346.93 570.95 C223.79 573.6, 100.92 573.59, -0.38 570.83 M0.68 571.68 C-1.24 423.69, -0.58 275.61, 0.26 0.55 M-0.15 571.4 C-1.09 398.58, -1.16 226.38, -0.36 -0.16" stroke="#000000" stroke-width="1" fill="none"></path></g><g stroke-linecap="round" transform="translate(50 635.5) rotate(0 132.5 17)"><path d="M0.45 0.24 C95.78 -2.67, 193.56 -0.72, 264.52 0.28 M0.04 0.24 C73.38 1.98, 147.1 2.57, 265.56 0.15 M263.29 -0.99 C262.98 11.43, 264.7 18.5, 266.19 35.81 M264.9 -0.76 C265.94 7.72, 264.93 14.73, 265.54 34.37 M264.5 35.46 C179.37 32.33, 95.4 31.83, -0.24 34.86 M264.94 33.72 C161.75 33.61, 57.92 33.3, -0.21 33.68 M1.7 33.89 C1.73 23.56, 1.64 10.71, 1.38 0.03 M0.99 34.57 C-0.28 22.24, -0.04 8.78, -0.4 0.31" stroke="#000000" stroke-width="1" fill="none"></path></g><g stroke-linecap="round" transform="translate(58 727.5) rotate(0 127.5 17.5)"><path d="M0.24 -0.27 C50.38 0.93, 103.85 -1.07, 255.29 -0.37 M0.24 0.02 C99.06 0.29, 198.76 0.47, 255.15 -0.09 M254.01 -1.94 C256.43 9.48, 253.68 20.6, 256.81 33.26 M254.24 0.74 C255.23 12.26, 255 25.6, 255.37 35.2 M256.49 34.02 C181.51 34.09, 107.99 34.11, 0.88 36.48 M254.71 35.58 C154.41 35.41, 53.65 34.63, -0.33 35.42 M-0.11 36.82 C1.23 25.29, 0.36 13.5, 0.03 1.15 M0.57 34.68 C0.52 24.81, -0.78 14.38, 0.31 0.87" stroke="#000000" stroke-width="1" fill="none"></path></g><g stroke-linecap="round" transform="translate(52.5 775) rotate(0 127.5 17.5)"><path d="M-0.27 -1.1 C97.43 0.59, 191.35 -0.02, 254.63 1.43 M0.02 -0.04 C52.33 -0.05, 104.44 -0.46, 254.91 -0.18 M253.06 1.61 C254.47 7.57, 255.89 19.24, 253.26 36.16 M255.74 0.49 C254.7 8.18, 255.5 16.21, 255.2 34.86 M254.02 34.53 C192.97 35.93, 131.21 37.78, 1.48 36.52 M255.58 34.85 C181.94 33.8, 107.56 33.94, 0.42 35.22 M1.82 36.53 C1.44 22.18, 1.08 8.07, 1.15 -0.22 M-0.32 35.39 C-0.43 24.89, -0.74 16.9, 0.87 0.05" stroke="#000000" stroke-width="1" fill="none"></path></g><g stroke-linecap="round" transform="translate(52.5 821) rotate(0 127.5 17.5)"><path d="M-1.1 1.51 C84.57 -0.15, 167.63 -0.03, 256.43 -1.56 M-0.04 0.39 C78.28 0.52, 155.59 -0.14, 254.82 -0.41 M256.61 -0.23 C253.68 8.69, 256.64 13.27, 256.16 33.52 M255.49 -0.27 C255 10.69, 255.11 20.5, 254.86 34.42 M254.53 34.74 C185.56 33.51, 118.96 35.24, 1.52 34.82 M254.85 35.56 C179.92 36.26, 105.46 36.89, 0.22 35.69 M1.53 36.73 C0.68 22.9, 0.05 9.19, -0.22 -0.74 M0.39 34.92 C-1.11 20.63, 0.11 7.93, 0.05 0.4" stroke="#000000" stroke-width="1" fill="none"></path></g><g stroke-linecap="round" transform="translate(50.5 869) rotate(0 127.5 17.5)"><path d="M1.51 0.9 C79.81 1.69, 160.23 2.83, 253.44 0.08 M0.39 0.56 C84.65 0.25, 168.07 -0.08, 254.59 -0.69 M254.77 -1.15 C255.85 10.59, 252.92 18.71, 253.52 34.8 M254.73 0.26 C255.8 8.23, 255.46 15.57, 254.42 34.68 M254.74 34.03 C154.7 35.28, 56.36 35.92, -0.18 34.88 M255.56 34.53 C187.3 34.28, 120.46 34.83, 0.69 35.69 M1.73 35.66 C1.06 24.73, 0.83 14.16, -0.74 1.98 M-0.08 34.09 C-0.28 22.82, 0.98 10.08, 0.4 -0.65" stroke="#000000" stroke-width="1" fill="none"></path></g><g stroke-linecap="round" transform="translate(51.5 916) rotate(0 127.5 17.5)"><path d="M0.9 -0.49 C72.54 -2.3, 145.94 -3.48, 255.08 0.48 M0.56 0.57 C77.3 -1.09, 154.12 -1.41, 254.31 -0.4 M253.85 1.19 C257.1 5.36, 256.44 12.72, 254.8 33.49 M255.26 0.54 C255.54 13.3, 255.03 25.63, 254.68 35.92 M254.03 34.76 C194.82 36.16, 134.4 34.49, -0.12 34.43 M254.53 34.78 C159.96 36.85, 65.8 37.11, 0.69 34.96 M0.66 36.38 C-0.23 22.47, -0.49 6.89, 1.98 1.13 M-0.91 34.6 C0.17 26.49, -0.09 16.65, -0.65 -0.24" stroke="#000000" stroke-width="1" fill="none"></path></g><g stroke-linecap="round" transform="translate(49.5 1008) rotate(0 127.5 17.5)"><path d="M-0.49 0.29 C58.83 0.29, 116.86 -1.07, 255.48 0.04 M0.57 0.15 C75.17 -1.61, 150.1 -2.12, 254.6 -0.79 M256.19 1.81 C253.22 14.48, 253.49 26.43, 253.49 36.49 M255.54 0.37 C255.1 12.07, 254.33 24.09, 255.92 34.39 M254.76 35.88 C187.43 35.28, 116.71 33.64, -0.57 36.15 M254.78 34.67 C183.72 34.01, 112.28 34.48, -0.04 35.74 M1.38 35.03 C0.85 21.6, -1.04 10.62, 1.13 -0.64 M-0.4 35.31 C0.9 23.17, 0.43 10.61, -0.24 1" stroke="#000000" stroke-width="1" fill="none"></path></g><g stroke-linecap="round" transform="translate(21 1096.5) rotate(0 58 21.5)"><path d="M0.36 -0.46 C47.41 -1.57, 91.36 0.95, 116.05 -0.1 M0.19 -0.11 C40.19 -1.32, 79.97 -1.31, 115.03 0.8 M117.81 -1.74 C116.91 10.94, 115.55 23.31, 117.49 43.97 M116.37 0.2 C115.98 11.17, 115.8 24.42, 115.39 42.71 M117.09 44.84 C84.92 42.6, 49.94 42.12, 1.43 42.62 M115.59 43.52 C73.45 43.54, 31.22 42.64, 0.91 43.77 M0.03 44.15 C-0.36 25.63, 1.84 10.87, -0.64 0.78 M0.31 43.87 C0.44 30.86, -0.26 17.66, 1 -0.33" stroke="#2b8a3e" stroke-width="1" fill="none"></path></g><g stroke-linecap="round" transform="translate(236 1094.5) rotate(0 54.5 22)"><path d="M-0.46 1.77 C36.83 -0.1, 78.11 -0.14, 108.9 0.97 M-0.11 -0.23 C39.72 -1.06, 79.96 -1.17, 109.8 -0.11 M107.26 1.16 C107.79 10.48, 107.75 22.84, 109.97 43.46 M109.2 -0.14 C108.66 14.03, 110.16 28.08, 108.71 43.84 M110.84 45.88 C82.64 44.44, 56.02 46.02, -0.38 45.38 M109.52 44.27 C83.52 44.41, 56.29 44.47, 0.77 44.87 M1.15 43.78 C-1.05 31.33, 0.83 14.06, 0.78 -0.16 M0.87 44.05 C0.58 34.16, -0.06 26.61, -0.33 0.17" stroke="#a61e4d" stroke-width="1" fill="none"></path></g><g transform="translate(57 605) rotate(0 41.5 12.5)"><text x="0" y="18" font-family="Virgil, Segoe UI Emoji" font-size="20px" fill="#000000" text-anchor="start" style="white-space: pre;" direction="ltr">Question</text></g><g transform="translate(64 699.5) rotate(0 38 12.5)"><text x="0" y="18" font-family="Virgil, Segoe UI Emoji" font-size="20px" fill="#000000" text-anchor="start" style="white-space: pre;" direction="ltr">Answers</text></g><g transform="translate(60 976.5) rotate(0 62 12.5)"><text x="0" y="18" font-family="Virgil, Segoe UI Emoji" font-size="20px" fill="#000000" text-anchor="start" style="white-space: pre;" direction="ltr">Referencelink</text></g><g transform="translate(42 1105.5) rotate(0 37 12.5)"><text x="37" y="18" font-family="Virgil, Segoe UI Emoji" font-size="20px" fill="#000000" text-anchor="middle" style="white-space: pre;" direction="ltr">Approve</text></g><g transform="translate(257 1104) rotate(0 33.5 12.5)"><text x="33.5" y="18" font-family="Virgil, Segoe UI Emoji" font-size="20px" fill="#000000" text-anchor="middle" style="white-space: pre;" direction="ltr">Decline</text></g><g stroke-linecap="round" transform="translate(148.5 1093.5) rotate(0 40 22)"><path d="M-0.1 0.97 C25.76 1.38, 49.14 -0.24, 79.55 -1.02 M0.8 -0.11 C16.58 1.37, 35.21 -0.09, 80.58 -0.74 M80.97 -0.54 C80.19 13.83, 80.41 25.91, 79.73 42.85 M79.71 -0.16 C79.8 11.66, 80.95 24.54, 80.94 43.89 M79.62 45.38 C55.43 44.04, 32.37 45.62, 0.54 45.7 M80.77 44.87 C49.52 45.42, 18.39 45.3, -0.11 43.63 M0.78 43.84 C-2.07 25.64, 0.36 10.61, 0.09 0.81 M-0.33 44.17 C0.46 32.81, -0.06 23.35, 0.25 -0.59" stroke="#e67700" stroke-width="1" fill="none"></path></g><g transform="translate(170 1106) rotate(0 20.5 12.5)"><text x="20.5" y="18" font-family="Virgil, Segoe UI Emoji" font-size="20px" fill="#000000" text-anchor="middle" style="white-space: pre;" direction="ltr">Edit</text></g></svg>