<svg version="1.1" xmlns="http://www.w3.org/2000/svg" viewBox="0 0 326.1111111111104 663.888888888889" width="326.1111111111104" height="663.888888888889">
  <!-- svg-source:excalidraw -->
  
  <defs>
    <style>
      @font-face {
        font-family: "Virgil";
        src: url("https://excalidraw.com/Virgil.woff2");
      }
      @font-face {
        font-family: "Cascadia";
        src: url("https://excalidraw.com/Cascadia.woff2");
      }
    </style>
  </defs>
  <rect x="0" y="0" width="326.1111111111104" height="663.888888888889" fill="#ffffff"></rect><g stroke-linecap="round" transform="translate(10.555555555555202 10) rotate(0 152.7777777777776 157.22222222222223)"><path d="M0.2 -0.16 C68.86 0.52, 135.79 -1.36, 306.87 0.69 M-0.16 -0.19 C67.07 -0.42, 134.99 -1.55, 305.28 -0.03 M304.33 -0.06 C305.1 93.6, 304.34 184.09, 304.41 313.22 M306.09 -0.7 C305.58 78.66, 306.05 155.73, 305.81 314.51 M305.57 313.33 C202.68 312.5, 99.84 312.2, -1.28 314.15 M305.93 315.08 C218.5 312.46, 133.4 313.79, -0.57 314.37 M-0.11 314.12 C-2.16 227.78, 0.13 142.78, -0.83 1.15 M0.66 313.79 C-0.37 218.62, -1.1 121.98, 0.16 -0.33" stroke="#000000" stroke-width="1" fill="none"></path></g><g stroke-linecap="round" transform="translate(89.44444444444389 42.22222222222223) rotate(0 72.22222222222217 78.33333333333334)"><path d="M0.19 0.23 C46.95 -0.47, 98.05 0.41, 143.6 -1.61 M0.28 0.47 C35.34 1.07, 71.31 0.2, 143.98 0.3 M145.65 0.55 C144.48 52.39, 145.92 101.79, 145.42 156.84 M143.81 0.16 C143.05 61.68, 143.8 123.36, 144.14 156.31 M142.66 155.83 C100.14 158.72, 51.85 158.5, 0.99 155.38 M143.55 155.93 C87.52 156.82, 30.53 155.14, 0.38 156.67 M-1.71 157.75 C-1.58 95.98, -3 34.98, -0.59 -0.86 M-0.85 156.71 C0.58 119.74, -0.5 82.89, 0.37 -0.64" stroke="#000000" stroke-width="1" fill="none"></path></g><g stroke-linecap="round" transform="translate(109.44444444444389 65.5555555555556) rotate(0 52.22222222222217 57.2222222222222)"><path d="M40.13 2.5 C48.36 -0.51, 59.42 -1.06, 67.89 1.58 C76.35 4.22, 84.87 10.97, 90.92 18.34 C96.96 25.7, 102.17 36.46, 104.14 45.78 C106.1 55.09, 105.51 65.17, 102.69 74.21 C99.88 83.25, 94 93.61, 87.26 100 C80.51 106.38, 70.95 110.72, 62.22 112.52 C53.48 114.33, 43.26 114.03, 34.84 110.82 C26.42 107.61, 17.36 100.71, 11.71 93.25 C6.05 85.79, 2.42 75.48, 0.91 66.05 C-0.6 56.61, -0.64 45.6, 2.65 36.65 C5.95 27.69, 14.1 18.25, 20.7 12.31 C27.3 6.36, 38.12 2.85, 42.27 0.97 C46.43 -0.91, 45.56 -0.01, 45.65 1.02 M66.33 1.01 C74.9 2.73, 85.08 11.25, 91.42 18.45 C97.76 25.65, 102.54 34.95, 104.37 44.2 C106.2 53.45, 105.03 64.6, 102.38 73.96 C99.74 83.31, 94.98 93.88, 88.51 100.33 C82.04 106.77, 72.47 110.8, 63.56 112.62 C54.65 114.44, 43.42 114.32, 35.05 111.25 C26.68 108.19, 18.92 101.68, 13.33 94.23 C7.74 86.78, 3.11 76.19, 1.52 66.53 C-0.06 56.86, 0.81 45.16, 3.84 36.23 C6.86 27.3, 12.83 18.99, 19.66 12.95 C26.49 6.91, 37.13 1.64, 44.79 -0.01 C52.45 -1.66, 62.05 2.65, 65.59 3.04 C69.14 3.43, 66.05 1.58, 66.07 2.31" stroke="#000000" stroke-width="1" fill="none"></path></g><g stroke-linecap="round" transform="translate(123.88888888888823 91.11111111111114) rotate(0 15.555555555555657 12.2222222222222)"><path d="M10.7 0.92 C13.57 0.17, 18.64 0.36, 21.79 1.48 C24.94 2.6, 28.08 5.25, 29.6 7.65 C31.13 10.06, 31.82 13.44, 30.96 15.9 C30.09 18.37, 27.1 21.13, 24.4 22.44 C21.71 23.75, 18.15 24.04, 14.8 23.76 C11.44 23.49, 6.69 22.4, 4.28 20.79 C1.88 19.19, 0.73 16.61, 0.37 14.13 C0.01 11.66, 0.01 8.18, 2.11 5.95 C4.21 3.72, 10.91 1.59, 12.97 0.76 C15.03 -0.08, 14.5 0.72, 14.48 0.92 M22.38 2.21 C25.09 2.77, 28.17 3.88, 29.39 6.22 C30.61 8.56, 30.59 13.47, 29.72 16.23 C28.84 18.99, 26.85 21.36, 24.14 22.79 C21.44 24.22, 16.8 25.36, 13.5 24.79 C10.19 24.23, 6.79 21.54, 4.3 19.41 C1.81 17.27, -1.01 14.6, -1.46 11.98 C-1.91 9.36, -0.88 5.79, 1.6 3.68 C4.07 1.57, 10.15 -0.07, 13.38 -0.69 C16.61 -1.3, 19.68 -0.58, 20.98 0 C22.28 0.59, 20.93 2.43, 21.18 2.83" stroke="#000000" stroke-width="1" fill="none"></path></g><g stroke-linecap="round" transform="translate(168.33333333333258 93.33333333333331) rotate(0 15.555555555555657 12.2222222222222)"><path d="M20.16 1.19 C23.18 1.78, 26.38 4, 28.33 6.19 C30.29 8.39, 32.13 11.86, 31.91 14.35 C31.69 16.84, 29.5 19.5, 27.01 21.13 C24.51 22.76, 20.53 24.09, 16.93 24.15 C13.33 24.2, 8.1 22.99, 5.4 21.45 C2.71 19.91, 1.32 17.42, 0.75 14.91 C0.18 12.41, 0.47 8.74, 1.98 6.42 C3.49 4.09, 6.7 2.04, 9.82 0.96 C12.94 -0.12, 18.66 -0.01, 20.69 -0.06 C22.73 -0.11, 22.12 0.16, 22.01 0.67 M9.18 2.05 C12.46 1.28, 18.14 0.21, 21.68 0.79 C25.22 1.36, 28.71 3.14, 30.41 5.51 C32.11 7.88, 32.5 12.43, 31.87 15.03 C31.24 17.62, 29.48 19.32, 26.62 21.09 C23.76 22.86, 18.4 25.52, 14.71 25.67 C11.02 25.83, 7.03 24.01, 4.49 22.01 C1.95 20.02, -0.31 16.45, -0.52 13.7 C-0.73 10.95, 1.45 7.91, 3.23 5.5 C5.01 3.09, 8.78 -0.12, 10.16 -0.76 C11.54 -1.41, 11.27 1.43, 11.51 1.63" stroke="#000000" stroke-width="1" fill="none"></path></g><g stroke-linecap="round"><g transform="translate(144.99999999999955 142.22222222222229) rotate(0 21.441680424163906 0.5957230176189796)"><path d="M-0.89 -0.61 C6.28 -0.55, 36.35 -0.07, 43.77 -0.01 M0.84 1.69 C7.83 1.97, 36.03 1.64, 43.06 1.52" stroke="#000000" stroke-width="1" fill="none"></path></g></g><g transform="translate(111.66666666666652 215.44444444444446) rotate(0 50.5 12.5)"><text x="0" y="18" font-family="Virgil, Segoe UI Emoji" font-size="20px" fill="#000000" text-anchor="start" style="white-space: pre;" direction="ltr">PowerUser</text></g><g stroke-linecap="round" transform="translate(27 260.7222222222223) rotate(0 58 21.5)"><path d="M1.65 -0.14 C34.69 1.26, 70.61 -1.06, 117.78 1.64 M-0.01 0.27 C27.79 -1.13, 56.88 0.54, 115.21 0.26 M114.3 -1.82 C115.88 10.69, 116.15 17.92, 115.74 41.68 M115.75 -0.13 C116.7 14.39, 115.94 28.38, 116.01 43.42 M114.09 41.02 C75.56 43.71, 37.97 44.09, 1.74 42.57 M115.41 43.43 C86.97 43.64, 56.98 43.32, -0.82 42.91 M-0.19 41.67 C0.51 30.12, -1.1 14.95, -0.69 0.52 M0.69 42.53 C0.47 26.46, -0.27 9.69, 0.85 -0.45" stroke="#2b8a3e" stroke-width="1" fill="none"></path></g><g transform="translate(48 269.7222222222223) rotate(0 37 12.5)"><text x="37" y="18" font-family="Virgil, Segoe UI Emoji" font-size="20px" fill="#000000" text-anchor="middle" style="white-space: pre;" direction="ltr">Approve</text></g><g stroke-linecap="round" transform="translate(181.6111111111104 262.4444444444447) rotate(0 54.5 22)"><path d="M0.44 0.7 C33.9 0.76, 70.49 -0.06, 107.69 -1.09 M-0.95 0.86 C35.22 1.7, 69.14 1.8, 109.37 -0.93 M108.05 1.67 C107.51 13.95, 110.3 25.09, 107.35 43.03 M109.21 -0.12 C110.2 14.57, 108.27 26.65, 109.91 43.16 M110.54 43.03 C74.97 43.26, 39.65 45.24, 0.55 42.35 M108.52 43.24 C84.89 44.83, 63.4 43.91, -0.44 43.34 M1.83 45.17 C0.22 34.54, 1.22 24.9, -1.53 -0.31 M0.49 44.59 C-0.67 33.56, -0.78 22.75, -0.99 -0.23" stroke="#a61e4d" stroke-width="1" fill="none"></path></g><g transform="translate(202.6111111111104 271.9444444444447) rotate(0 33.5 12.5)"><text x="33.5" y="18" font-family="Virgil, Segoe UI Emoji" font-size="20px" fill="#000000" text-anchor="middle" style="white-space: pre;" direction="ltr">Decline</text></g><g stroke-linecap="round" transform="translate(10 339.44444444444457) rotate(0 152.7777777777776 157.22222222222223)"><path d="M0.15 1.17 C95.71 -1.01, 194.88 1.04, 305.89 -0.12 M0.7 0.69 C73.45 -0.49, 146.06 0.48, 304.85 -0.37 M306.03 0.16 C305.74 78.33, 305.71 154.93, 304.93 315.39 M305.48 -0.02 C303.62 107.1, 303.75 212.88, 305.89 315.12 M305.97 314.35 C241.22 312.51, 178.62 311.23, 0.38 315.72 M305.43 313.86 C219.29 315.83, 131.92 315.64, 0.25 314.12 M0.01 313.73 C1.91 239.41, 1.76 165.54, -0.07 0.03 M-0.19 313.9 C-2.28 207.76, -1.48 102.33, -0.11 0.25" stroke="#000000" stroke-width="1" fill="none"></path></g><g stroke-linecap="round" transform="translate(88.88888888888869 371.66666666666697) rotate(0 72.22222222222217 78.33333333333337)"><path d="M1.62 -1.72 C38.17 1.2, 81.14 0.31, 144.28 -1.23 M0.95 0.69 C41.3 -1.16, 84.33 -2.37, 143.93 -0.52 M144.66 1.14 C144.37 43.72, 142.33 84.38, 145.78 157.45 M144.42 -0.84 C144.42 36.97, 143.11 75.73, 145.4 155.76 M144.32 156.32 C101.74 158.8, 56.96 157.61, 1.76 156.33 M143.64 157.09 C112.75 155.76, 80.76 156.77, -0.45 156.01 M-1.01 157.09 C-0.22 121.16, -0.34 85.14, 0.04 0.77 M-0.77 156.48 C-1.57 95.52, -0.24 32.35, 0.35 0.94" stroke="#000000" stroke-width="1" fill="none"></path></g><g stroke-linecap="round" transform="translate(108.88888888888869 395.00000000000045) rotate(0 52.22222222222217 57.22222222222217)"><path d="M27.75 6.73 C34.57 1.56, 44.87 -0.62, 53.67 -0.07 C62.47 0.49, 72.87 4.69, 80.56 10.06 C88.25 15.43, 95.91 23.64, 99.81 32.16 C103.7 40.68, 104.51 51.81, 103.93 61.18 C103.35 70.56, 101.32 80.55, 96.33 88.43 C91.35 96.31, 82.2 104.2, 74.01 108.45 C65.82 112.69, 55.86 114.68, 47.2 113.91 C38.55 113.13, 29.11 109.36, 22.08 103.8 C15.05 98.24, 8.54 89.53, 5.01 80.52 C1.48 71.51, 0.04 59.27, 0.9 49.74 C1.76 40.21, 5.34 30.75, 10.17 23.31 C15 15.87, 26.33 8.05, 29.89 5.1 C33.46 2.16, 31.26 4.82, 31.57 5.64 M67.22 3.62 C75.44 5.53, 82.95 10.88, 88.68 17.72 C94.41 24.56, 99.4 35.27, 101.61 44.66 C103.83 54.05, 104.32 64.66, 101.97 74.05 C99.62 83.43, 94.21 94.34, 87.5 100.95 C80.78 107.55, 70.16 111.96, 61.68 113.66 C53.21 115.36, 45.05 114.17, 36.67 111.13 C28.29 108.09, 17.42 102.93, 11.41 95.43 C5.39 87.93, 1.82 75.79, 0.57 66.12 C-0.68 56.45, 0.94 46.34, 3.88 37.41 C6.83 28.48, 11.4 18.78, 18.22 12.55 C25.05 6.31, 36.96 1.89, 44.84 -0.01 C52.73 -1.92, 62.23 0.56, 65.54 1.11 C68.86 1.66, 64.96 2.15, 64.75 3.3" stroke="#000000" stroke-width="1" fill="none"></path></g><g stroke-linecap="round" transform="translate(123.33333333333303 420.5555555555561) rotate(0 15.555555555555657 12.222222222222172)"><path d="M20.63 0.08 C23.59 0.73, 26.95 3.57, 28.83 6.08 C30.7 8.59, 32.27 12.66, 31.87 15.16 C31.46 17.66, 29.03 19.39, 26.38 21.09 C23.73 22.79, 19.58 25.36, 15.96 25.37 C12.35 25.39, 7.42 23.02, 4.71 21.16 C2.01 19.3, 0.25 16.63, -0.25 14.2 C-0.75 11.77, -0.04 8.7, 1.7 6.56 C3.43 4.42, 6.89 2.21, 10.18 1.35 C13.47 0.49, 19.66 1.48, 21.43 1.39 C23.2 1.3, 20.82 0.63, 20.8 0.8 M10.94 -0.72 C14.13 -1.75, 19.55 -1.38, 22.43 -0.03 C25.32 1.31, 26.64 5.08, 28.26 7.35 C29.88 9.62, 32.71 11.4, 32.15 13.59 C31.59 15.78, 27.74 18.71, 24.91 20.5 C22.09 22.29, 18.57 24.18, 15.2 24.34 C11.84 24.49, 7.01 23.36, 4.71 21.42 C2.41 19.47, 1.72 15.08, 1.41 12.66 C1.11 10.24, 1.33 9.13, 2.89 6.91 C4.44 4.69, 9.21 0.4, 10.72 -0.66 C12.24 -1.73, 12.07 0.02, 11.98 0.53" stroke="#000000" stroke-width="1" fill="none"></path></g><g stroke-linecap="round" transform="translate(167.77777777777737 422.7777777777783) rotate(0 15.555555555555657 12.222222222222172)"><path d="M18.26 0.17 C21.37 0.72, 25.66 3.51, 27.96 5.71 C30.25 7.92, 32.27 10.92, 32.05 13.41 C31.83 15.91, 28.9 19.03, 26.65 20.69 C24.4 22.34, 21.89 23.13, 18.56 23.36 C15.24 23.58, 9.74 23.32, 6.72 22.03 C3.71 20.74, 1.33 18.02, 0.46 15.63 C-0.42 13.24, 0.09 10.03, 1.5 7.69 C2.9 5.35, 5.6 2.9, 8.9 1.6 C12.2 0.3, 19.1 -0.22, 21.28 -0.13 C23.45 -0.03, 22.04 1.94, 21.92 2.17 M11.44 1.04 C14.37 0.25, 18.98 -0.95, 22.21 0.44 C25.44 1.82, 29.71 6.72, 30.82 9.36 C31.93 11.99, 30.34 13.95, 28.87 16.26 C27.4 18.56, 24.66 21.88, 22 23.17 C19.34 24.47, 15.92 24.3, 12.91 24.02 C9.91 23.73, 6.31 23.34, 3.98 21.46 C1.64 19.58, -1.23 15.61, -1.08 12.74 C-0.93 9.86, 2.76 6.14, 4.86 4.21 C6.95 2.27, 10.22 1.95, 11.5 1.13 C12.77 0.3, 12.16 -0.82, 12.51 -0.76" stroke="#000000" stroke-width="1" fill="none"></path></g><g stroke-linecap="round"><g transform="translate(144.44444444444434 471.6666666666672) rotate(0 21.694035332018075 0.5663647739310136)"><path d="M0.81 0.52 C8.25 0.7, 36.65 0.01, 43.61 -0.1 M-0.22 -0.26 C7.17 0.22, 35.25 1.16, 42.81 1.39" stroke="#000000" stroke-width="1" fill="none"></path></g></g><g transform="translate(111.11111111111131 544.8888888888894) rotate(0 50.5 12.5)"><text x="0" y="18" font-family="Virgil, Segoe UI Emoji" font-size="20px" fill="#000000" text-anchor="start" style="white-space: pre;" direction="ltr">PowerUser</text></g><g stroke-linecap="round" transform="translate(26.444444444445253 590.1666666666672) rotate(0 58 21.5)"><path d="M-0.16 -1.23 C42.41 -0.09, 87.2 1.64, 117.39 -0.81 M-0.51 -0.52 C37.24 0.83, 75.37 1.24, 116.57 0.2 M117.34 0.79 C114.45 14.51, 115.44 30.45, 114.31 44.11 M116.95 -0.9 C115.65 9.08, 115.96 20.05, 115.83 43.16 M117.76 42.67 C69.6 44.53, 26.07 41.69, 0.85 43.08 M115.55 42.35 C88.21 42.41, 61.86 42.9, 0.21 42.12 M0.04 43.77 C2.33 31.06, -0.12 14.75, -0.38 -0.92 M0.35 43.94 C-1 27.05, -0.49 8.89, 0.67 0.75" stroke="#2b8a3e" stroke-width="1" fill="none"></path></g><g transform="translate(47.44444444444525 599.1666666666672) rotate(0 37 12.5)"><text x="37" y="18" font-family="Virgil, Segoe UI Emoji" font-size="20px" fill="#000000" text-anchor="middle" style="white-space: pre;" direction="ltr">Approve</text></g><g stroke-linecap="round" transform="translate(181.05555555555475 591.8888888888896) rotate(0 54.5 22)"><path d="M-0.23 0.17 C37.15 2.57, 71.83 -0.14, 109.47 1.86 M-0.28 -0.3 C22.38 0.67, 44.67 0.76, 109.55 -0.82 M107.8 -0.74 C109.09 11.22, 107.6 23.65, 107.68 42.48 M108.98 -0.98 C109.7 15.19, 109.25 30.66, 109.86 43.28 M107.39 45.22 C73.09 42.21, 38.7 43.89, -1.33 43.56 M108.28 43.01 C72.53 42.78, 36.26 42.4, 0.11 43.05 M1.93 45.42 C-0.53 29.47, -0.39 17.11, 1.87 1.73 M-0.63 44.97 C-0.27 31.21, 0.51 19.7, -0.28 -0.04" stroke="#a61e4d" stroke-width="1" fill="none"></path></g><g transform="translate(202.05555555555475 601.3888888888896) rotate(0 33.5 12.5)"><text x="33.5" y="18" font-family="Virgil, Segoe UI Emoji" font-size="20px" fill="#000000" text-anchor="middle" style="white-space: pre;" direction="ltr">Decline</text></g></svg>