<svg version="1.1" xmlns="http://www.w3.org/2000/svg" viewBox="0 0 367 664.0000000000001" width="367" height="664.0000000000001">
  <!-- svg-source:excalidraw -->
  
  <defs>
    <style>
      @font-face {
        font-family: "Virgil";
        src: url("https://excalidraw.com/Virgil.woff2");
      }
      @font-face {
        font-family: "Cascadia";
        src: url("https://excalidraw.com/Cascadia.woff2");
      }
    </style>
  </defs>
  <rect x="0" y="0" width="367" height="664.0000000000001" fill="#ffffff"></rect><g stroke-linecap="round" transform="translate(10 10) rotate(0 173.5 322.00000000000006)"><path d="M-0.89 -0.96 C126.42 2.43, 252.95 0.55, 346.32 -0.46 M0.62 -0.34 C90.09 1.18, 179.36 2.06, 347.36 0.28 M346.87 -0.27 C348.71 215.56, 349.21 429.83, 346.99 644.59 M346.65 -0.13 C344.5 181.11, 344.53 362.17, 346.68 643.73 M346.5 643.98 C267.14 642.79, 189.01 644.66, 1.3 645.21 M346.43 644.6 C229.86 644.27, 112.99 643.15, 0.31 644.01 M0.01 643.55 C-2.7 415.01, -1.5 185.11, 0.43 0.45 M0.03 643.74 C-0.39 402.34, 0.23 160.84, 0.22 0.1" stroke="#000000" stroke-width="1" fill="none"></path></g><g transform="translate(45 32.5) rotate(0 88 17.5)"><text x="0" y="25" font-family="Virgil, Segoe UI Emoji" font-size="28px" fill="#000000" text-anchor="start" style="white-space: pre;" direction="ltr">Add question</text></g><g stroke-linecap="round" transform="translate(50 125) rotate(0 132.5 17)"><path d="M1.47 0.59 C83.48 -2.24, 162.76 -0.63, 264.96 1.19 M0.01 0.45 C89.4 -1.41, 177.43 -1.44, 264.54 0.56 M266.12 1.51 C265.21 15.12, 265.24 25.4, 263.78 33.99 M265.24 -0.45 C264.63 12.92, 265.97 27.73, 264.95 33.79 M266.11 34.2 C188.62 31.73, 113.78 31.17, -1.19 32.79 M265.01 34.31 C196.16 35.57, 127.1 35.1, -0.06 33.76 M-0.68 33.66 C-1.02 24.19, 0.19 15.18, 1.43 -0.76 M0.04 34.67 C0.33 24.11, -0.21 14.92, 0.93 -0.04" stroke="#000000" stroke-width="1" fill="none"></path></g><g stroke-linecap="round" transform="translate(58 217) rotate(0 127.5 17.5)"><path d="M-0.34 -0.55 C68.59 -0.78, 137.87 0.19, 255.93 1.15 M0.13 0.03 C67.3 0, 133.5 -0.44, 255.51 0.75 M253.62 -0.82 C254.68 11.01, 256.87 20.67, 253.26 34.64 M254.99 0.19 C254.84 13.3, 255.33 26.6, 254.87 34.66 M254.76 33.39 C203.29 35.53, 148.24 33.7, -1.19 35.09 M255.31 34.93 C192.09 35.56, 129.24 35.5, 0.05 35.25 M-0.38 33.76 C-1.09 28.2, -2.18 19.66, -1.61 1.85 M0.84 35.67 C0.15 26.42, 0.89 16.35, 0.67 -0.96" stroke="#000000" stroke-width="1" fill="none"></path></g><g stroke-linecap="round" transform="translate(52.5 264.5) rotate(0 127.5 17.5)"><path d="M-1.19 0.09 C94.27 2.44, 190.11 1.46, 254.85 0 M0.05 0.25 C99.73 -1.01, 200.18 -1.93, 254.5 -0.31 M253.39 1.85 C253.86 12.09, 256.31 25.69, 256.34 35.32 M255.67 -0.96 C255.82 11.26, 254.85 24.59, 254.7 35.2 M254.44 35.78 C167.19 33.76, 82.36 34.55, 0.64 33.49 M255.13 35.34 C192.29 34.08, 130.37 34.66, -0.8 34.42 M0.67 34.9 C-0.34 26.56, -0.71 19.27, -0.17 -0.75 M0.57 34.84 C-0.21 21.13, 0.85 7.09, -1 0.26" stroke="#000000" stroke-width="1" fill="none"></path></g><g stroke-linecap="round" transform="translate(52.5 310.5) rotate(0 127.5 17.5)"><path d="M-0.23 -0.84 C86.9 1.8, 173.22 1.42, 256.47 1.48 M0.68 0.44 C51.47 1.41, 102.37 1.29, 254.83 0.13 M254.8 0.21 C256.01 9.88, 254.39 20.09, 256.63 34.03 M254.76 -0.45 C255.42 7.22, 254.31 14, 255.89 35.02 M255.69 35.96 C194.37 36.15, 133.36 36.29, 0.26 33.92 M255.74 35.16 C164.49 33.3, 73.67 33.13, 0.18 35.81 M-0.31 36.13 C-0.85 20.25, 1.68 8.6, -0.1 0.09 M-0.93 34.63 C0.24 23.9, 0.17 12, -0.3 -0.04" stroke="#000000" stroke-width="1" fill="none"></path></g><g stroke-linecap="round" transform="translate(50.5 358.5) rotate(0 127.5 17.5)"><path d="M-1.08 0.92 C73.62 -1.95, 149.57 -0.01, 255.91 0.71 M0.81 0.59 C95.52 -1.05, 191.29 -0.01, 254.62 -0.69 M255.09 0.69 C254.9 11.44, 253.09 25.84, 255.46 36.23 M254.96 0.09 C254.37 10.4, 255.27 22.61, 254.09 34.93 M255.19 33.88 C182.77 34.24, 113.36 35.69, -1.25 35.17 M255.41 35.21 C202.5 35.26, 150.73 36.1, 0.55 34.52 M-1.56 33.62 C1.12 23.59, 1.55 16.76, 1.23 0.46 M-0.41 34.09 C0.07 25.53, 0.34 18.74, 0.66 -0.29" stroke="#000000" stroke-width="1" fill="none"></path></g><g stroke-linecap="round" transform="translate(51.5 405.5) rotate(0 127.5 17.5)"><path d="M-1.26 -1.08 C68.97 0.58, 136.08 -0.3, 254.66 -0.35 M-0.55 -0.17 C71.77 1.97, 142.31 1.51, 254.22 -0.37 M253.45 -1.97 C253.91 12.39, 256.55 23.42, 254.47 35.53 M255.61 -0.92 C255.55 12.85, 255.34 25.03, 254.42 35.16 M255.2 33.4 C187.45 34.28, 119.7 32.65, -0.71 35.07 M254.73 35.03 C159.82 34.95, 62.79 34.91, 0.23 34.25 M-0.34 36.7 C-1.47 23.32, 0.61 12.19, 1.66 1.3 M-0.28 34.43 C0.9 26.02, -0.84 19.36, -0.11 -0.16" stroke="#000000" stroke-width="1" fill="none"></path></g><g stroke-linecap="round" transform="translate(49.5 497.5) rotate(0 127.5 17.5)"><path d="M1.56 0.49 C84.34 1.18, 166.9 0.74, 254.78 0.46 M0.39 0.08 C60.57 -1.49, 121.96 -1.18, 254.62 -0.62 M254.52 -1.01 C256.37 10.68, 254.23 20.36, 256.04 33.72 M255.02 -0.5 C254.96 7.86, 255.3 16.49, 255.98 35.66 M254.52 35.53 C165.96 36.23, 75.88 34.37, 1.13 36.46 M254.66 35.17 C166.48 34.98, 77.93 35.34, 0.04 34.66 M1 34.92 C1.24 24.5, -0.78 16.01, -0.15 0.2 M0.36 34.04 C0.18 22.71, -0.37 12.26, -0.13 -0.54" stroke="#000000" stroke-width="1" fill="none"></path></g><g stroke-linecap="round" transform="translate(55 584) rotate(0 58 21.5)"><path d="M-0.27 1.04 C40.57 -0.92, 84.39 -0.36, 116.04 -1.01 M0.6 0.98 C33.66 0.3, 66.81 -0.22, 115.7 0.33 M115.25 1.4 C118.14 14.73, 114.41 27.68, 115.17 43.43 M116.29 0.05 C115.52 12.06, 116.76 24.81, 116.5 42.96 M116.3 42.85 C72.55 43.37, 28.34 44.63, 0.71 41.08 M116.55 42.87 C79.25 42.12, 42.98 42.02, 0.45 42.07 M-1.8 43.49 C1.77 30.67, -0.49 19.27, -1.07 -1.59 M0.43 43.6 C-0.08 35.01, -1.13 25.7, 0.85 0.38" stroke="#2b8a3e" stroke-width="1" fill="none"></path></g><g stroke-linecap="round" transform="translate(211 583) rotate(0 54.5 22)"><path d="M-0.76 -1.24 C37.77 1.48, 75.58 0.35, 107.43 0.69 M0.03 -0.42 C23.42 -1.32, 45.01 -1.75, 109.58 0.55 M110.44 -1.77 C109.52 16.81, 110.03 29.21, 109.19 44.09 M108.01 0.07 C109.84 11.96, 110.14 22.01, 108.93 43.28 M110.87 45.59 C68.88 45.43, 30.93 45.11, 1.86 42.88 M108.43 44.39 C69.04 43.71, 26.74 43.36, 0.42 44.83 M-0.06 43.54 C-1.82 33.77, 0.78 24.02, -1.35 -0.71 M0.59 43.62 C0.19 28.76, 0.57 15.35, 0.2 -0.7" stroke="#a61e4d" stroke-width="1" fill="none"></path></g><g transform="translate(57 94.5) rotate(0 41.5 12.5)"><text x="0" y="18" font-family="Virgil, Segoe UI Emoji" font-size="20px" fill="#000000" text-anchor="start" style="white-space: pre;" direction="ltr">Question</text></g><g transform="translate(64 189) rotate(0 38 12.5)"><text x="0" y="18" font-family="Virgil, Segoe UI Emoji" font-size="20px" fill="#000000" text-anchor="start" style="white-space: pre;" direction="ltr">Answers</text></g><g transform="translate(60 466) rotate(0 62 12.5)"><text x="0" y="18" font-family="Virgil, Segoe UI Emoji" font-size="20px" fill="#000000" text-anchor="start" style="white-space: pre;" direction="ltr">Referencelink</text></g><g transform="translate(95 593) rotate(0 18 12.5)"><text x="18" y="18" font-family="Virgil, Segoe UI Emoji" font-size="20px" fill="#000000" text-anchor="middle" style="white-space: pre;" direction="ltr">Add</text></g><g transform="translate(234.5 592.5) rotate(0 31 12.5)"><text x="31" y="18" font-family="Virgil, Segoe UI Emoji" font-size="20px" fill="#000000" text-anchor="middle" style="white-space: pre;" direction="ltr">Cancel</text></g></svg>