<svg version="1.1" xmlns="http://www.w3.org/2000/svg" viewBox="0 0 286 181" width="286" height="181">
  <!-- svg-source:excalidraw -->
  
  <defs>
    <style>
      @font-face {
        font-family: "Virgil";
        src: url("https://excalidraw.com/Virgil.woff2");
      }
      @font-face {
        font-family: "Cascadia";
        src: url("https://excalidraw.com/Cascadia.woff2");
      }
    </style>
  </defs>
  <rect x="0" y="0" width="286" height="181" fill="#ffffff"></rect><g stroke-linecap="round" transform="translate(10 10) rotate(0 133 80.5)"><path d="M0.84 -1.49 C62.59 2.07, 126.16 2.24, 265.83 -0.79 M0.03 -0.32 C93.68 -1.34, 188.38 -2.19, 265.38 0.37 M265.02 1.78 C268.05 42.53, 268.01 82.16, 266.55 161.07 M265.41 0.76 C264.13 40.91, 263.97 79.9, 266.39 161.47 M265.76 159.99 C187.43 160.17, 107.22 159.18, -0.48 162.31 M266.52 161.43 C163.03 161.49, 61.16 160.84, 0.7 161.52 M0.25 161.32 C1.98 98.78, 1.61 38.01, 0.98 -1.11 M0.27 161.62 C0.53 117.66, 0.93 74.34, 0.15 -0.41" stroke="#000000" stroke-width="1" fill="none"></path></g><g transform="translate(35 33) rotate(0 44 12.5)"><text x="0" y="18" font-family="Virgil, Segoe UI Emoji" font-size="20px" fill="#000000" text-anchor="start" style="white-space: pre;" direction="ltr">Category</text></g><g transform="translate(48 75) rotate(0 20 12.5)"><text x="0" y="18" font-family="Virgil, Segoe UI Emoji" font-size="20px" fill="#2b8a3e" text-anchor="start" style="white-space: pre;" direction="ltr">1.174</text></g><g transform="translate(126 74) rotate(0 16 12.5)"><text x="0" y="18" font-family="Virgil, Segoe UI Emoji" font-size="20px" fill="#c92a2a" text-anchor="start" style="white-space: pre;" direction="ltr">314</text></g><g stroke-linecap="round" transform="translate(30 118) rotate(0 41.5 16)"><path d="M-0.17 -1.57 C26.36 1.06, 53.14 -1.93, 84.51 1.52 M0.49 -0.05 C22.9 -0.77, 45.1 -0.99, 83.1 0.18 M82.13 1.36 C83.96 11.45, 81.96 23.03, 82.58 31.54 M82.46 0.07 C82.6 11.01, 82.28 23.23, 82.89 31.9 M84.43 30.78 C62.18 32.46, 44.44 33.13, 0.08 33.81 M82.05 32.16 C66.17 30.8, 47.21 31.86, -0.86 31.46 M1.89 33.64 C-0.69 24.75, -0.71 16.03, 1.98 -1.21 M0.67 31.18 C0.1 20.41, 1.29 7.95, 0.09 0.81" stroke="#e67700" stroke-width="1" fill="none"></path></g><g transform="translate(52 121.5) rotate(0 20.5 12.5)"><text x="20.5" y="18" font-family="Virgil, Segoe UI Emoji" font-size="20px" fill="#000000" text-anchor="middle" style="white-space: pre;" direction="ltr">Edit</text></g><g stroke-linecap="round" transform="translate(163 118) rotate(0 41.5 16)"><path d="M0.08 1.81 C28.26 -1.63, 58.41 -2.7, 83.33 1.17 M-0.86 -0.54 C20.59 -0.77, 41.93 0.47, 83.82 -0.39 M84.98 -1.21 C84.27 10.17, 81.27 25.45, 81.35 31.6 M83.09 0.81 C83.88 10.69, 83.13 21.01, 82.48 31.08 M82.11 30.87 C60.52 33.37, 39.41 30.4, 1.11 33.26 M83.5 31.51 C57.27 31.89, 31.76 31.19, -0.68 31.17 M1.36 33.24 C-0.36 24.69, -1.37 16.63, 1.65 -0.53 M0.09 31.22 C0.28 22.69, 0.32 10.88, 0.19 0.24" stroke="#c92a2a" stroke-width="1" fill="none"></path></g><g transform="translate(172 122.5) rotate(0 32.5 12.5)"><text x="32.5" y="18" font-family="Virgil, Segoe UI Emoji" font-size="20px" fill="#000000" text-anchor="middle" style="white-space: pre;" direction="ltr">Delete</text></g><g transform="translate(195 74) rotate(0 31 12.5)"><text x="0" y="18" font-family="Virgil, Segoe UI Emoji" font-size="20px" fill="#1864ab" text-anchor="start" style="white-space: pre;" direction="ltr">78,9%</text></g></svg>