<svg version="1.1" xmlns="http://www.w3.org/2000/svg" viewBox="0 0 308 228.00000000000003" width="308" height="228.00000000000003">
  <!-- svg-source:excalidraw -->
  
  <defs>
    <style>
      @font-face {
        font-family: "Virgil";
        src: url("https://excalidraw.com/Virgil.woff2");
      }
      @font-face {
        font-family: "Cascadia";
        src: url("https://excalidraw.com/Cascadia.woff2");
      }
    </style>
  </defs>
  <rect x="0" y="0" width="308" height="228.00000000000003" fill="#ffffff"></rect><g stroke-linecap="round" transform="translate(10 10) rotate(0 144 104.00000000000001)"><path d="M-0.76 1.25 C70.26 1.1, 141.29 1.08, 286.83 1.02 M0.6 -0.17 C79.13 0.93, 156.54 0.4, 288.41 0.46 M288.62 1.09 C286.94 54.73, 287.24 109.75, 288.26 208.1 M288.41 0.56 C288.58 41.22, 288.46 83.23, 288.12 208.22 M288.22 207.71 C178.82 211.2, 68.45 208.84, 0.16 209.28 M287.31 208.09 C178.14 208.27, 66.24 207.27, 0.75 208.41 M-0.57 206.48 C-0.38 128.03, -0.1 46.57, -1.27 -1.31 M0.4 207.33 C1.15 138.16, 1.15 66.89, 0.3 0.65" stroke="#000000" stroke-width="1" fill="none"></path></g><g stroke-linecap="round" transform="translate(34 103.99999999999994) rotate(0 115.5 17.999999999999986)"><path d="M1.41 -1.06 C61.68 -0.27, 121.68 -0.32, 232.15 -0.47 M-0.19 0.76 C76.43 -1.99, 151.53 -1.1, 231.52 -0.33 M232.22 0 C231.71 9.07, 232.52 17.74, 231.11 34.02 M231.64 -0.38 C230.38 12.08, 230.66 25.3, 231.25 36.83 M230.67 37.15 C172.95 37.24, 110.55 36.46, 1.45 37.42 M231.11 36.75 C154.15 33.4, 75.51 35.03, 0.46 36.72 M-1.71 34.79 C0.04 25.65, -1.51 15.65, -1.48 0.78 M-0.76 35.9 C0.92 27.52, 0.12 19.6, 0.73 -0.51" stroke="#000000" stroke-width="1" fill="none"></path></g><g stroke-linecap="round" transform="translate(39.5 163.99999999999991) rotate(0 41.5 16)"><path d="M-1.25 1.94 C24.8 1.22, 51.02 0.67, 82.45 0.55 M0.89 0.87 C23.34 0.34, 48.22 0.79, 82.61 -0.58 M83 0.48 C83.45 12.93, 83.4 23.41, 81.02 32.99 M82.62 -0.6 C82.64 9.15, 83.28 19.2, 83.83 31.59 M84.36 34 C52.74 30.7, 20.42 33.55, 1.68 32.71 M83.89 32.77 C58.35 31.54, 36.56 32.64, 0.85 31.63 M-1.21 32.14 C-0.78 20.05, -1.33 9.44, 0.78 -1.35 M-0.1 32.8 C-0.25 23.44, 0.19 15.6, -0.51 -0.57" stroke="#5c940d" stroke-width="1" fill="none"></path></g><g transform="translate(64 167.49999999999991) rotate(0 18 12.5)"><text x="18" y="18" font-family="Virgil, Segoe UI Emoji" font-size="20px" fill="#000000" text-anchor="middle" style="white-space: pre;" direction="ltr">Add</text></g><g stroke-linecap="round" transform="translate(170 162.99999999999991) rotate(0 46.5 17)"><path d="M-1.48 1.91 C34.08 0.45, 70.7 -0.35, 92.74 1.6 M-0.5 0.16 C26.41 -0.2, 51.34 -1.38, 93.64 0.35 M93.34 1.29 C93.29 12.39, 91.02 25.56, 92.92 34.93 M92.49 -0.33 C93 12.61, 93.7 24.31, 93.78 34.14 M94.13 32.86 C67.1 36.63, 42.46 35.64, -0.29 32.16 M92.06 33.44 C64.94 35.26, 35.74 34.35, 0.29 33.68 M-0.89 32.59 C-1.23 25.24, 0.99 18.08, -0.65 0.9 M-0.11 34 C0.37 27.11, -0.48 18.19, 0.63 -0.61" stroke="#862e9c" stroke-width="1" fill="none"></path></g><g transform="translate(185.5 167.49999999999991) rotate(0 31 12.5)"><text x="31" y="18" font-family="Virgil, Segoe UI Emoji" font-size="20px" fill="#000000" text-anchor="middle" style="white-space: pre;" direction="ltr">Cancel</text></g><g transform="translate(45 74) rotate(0 24 12.5)"><text x="0" y="18" font-family="Virgil, Segoe UI Emoji" font-size="20px" fill="#000000" text-anchor="start" style="white-space: pre;" direction="ltr">Title</text></g><g transform="translate(57.888888888888914 22) rotate(0 91.5 17.5)"><text x="91.5" y="25" font-family="Virgil, Segoe UI Emoji" font-size="28px" fill="#000000" text-anchor="middle" style="white-space: pre;" direction="ltr">Add category</text></g><g transform="translate(45.5 111.49999999999994) rotate(0 31.5 12.499999999999986)"><text x="0" y="18" font-family="Virgil, Segoe UI Emoji" font-size="20px" fill="#000000" text-anchor="start" style="white-space: pre;" direction="ltr">Movies</text></g></svg>