<svg version="1.1" xmlns="http://www.w3.org/2000/svg" viewBox="0 0 308 228" width="308" height="228">
  <!-- svg-source:excalidraw -->
  
  <defs>
    <style>
      @font-face {
        font-family: "Virgil";
        src: url("https://excalidraw.com/Virgil.woff2");
      }
      @font-face {
        font-family: "Cascadia";
        src: url("https://excalidraw.com/Cascadia.woff2");
      }
    </style>
  </defs>
  <rect x="0" y="0" width="308" height="228" fill="#ffffff"></rect><g stroke-linecap="round" transform="translate(10 10) rotate(0 144 104)"><path d="M0.05 1.17 C97.9 -1.35, 196.12 -0.19, 288.66 0.26 M-0.16 -0.71 C82.88 1.74, 166.62 1.53, 288.43 0.46 M287.57 1.48 C289.23 51.63, 289.35 104.48, 287.01 207.08 M287.74 -0.4 C285.95 69.28, 287.07 137.03, 288.63 207.58 M286.6 209.03 C191.05 209.52, 93.45 207.49, -1.46 206.6 M287.75 208.65 C203.43 208.07, 119.1 207.68, -0.41 207.75 M-0.49 208.84 C0.85 132.85, 1.17 59.06, 0.16 1.41 M0.58 208.4 C-0.75 147.85, -0.69 86.84, -0.51 0.46" stroke="#000000" stroke-width="1" fill="none"></path></g><g stroke-linecap="round" transform="translate(34 104) rotate(0 115.5 18)"><path d="M1.22 0.27 C57.39 -0.14, 111.66 1.26, 230.99 -1.53 M0.51 -0.53 C88.64 -0.9, 177.26 0.04, 230.47 0.73 M229.33 -0.69 C230.28 11.3, 230.3 22.92, 230.27 34.66 M230.05 -0.29 C231.95 7.33, 232.12 16.32, 230.16 35.08 M230.54 35.96 C161.78 35.64, 90.43 34.42, -1.56 36.01 M231.39 36.2 C171.41 34.8, 110.58 35.78, -0.39 35.55 M1.25 37.78 C1.64 22.5, 0.7 13.54, -0.75 -0.61 M-0.13 36.73 C0.6 23.21, -1.04 9.58, 0.29 -0.25" stroke="#000000" stroke-width="1" fill="none"></path></g><g stroke-linecap="round" transform="translate(39.5 164) rotate(0 41.5 16)"><path d="M0.63 0.51 C23.67 -2.62, 47.49 -2.58, 84.38 -0.2 M0.91 -0.69 C17.87 -0.17, 34.42 0.11, 82.47 -0.76 M83.84 -1.08 C83.76 12.28, 82.8 24.81, 82.53 32.8 M82.27 -0.38 C82.59 11.59, 82.99 23.41, 83.24 32.88 M82.69 31.01 C62.82 31.83, 43.34 33.39, 0.36 32.04 M83.07 32.64 C49.33 31.77, 16.7 31.93, 0.93 32.93 M-0.83 31.23 C0.96 25.07, 2.11 17.45, -1.64 1.13 M-0.49 31.34 C-0.55 22.69, 0.91 15.72, 0.24 -0.53" stroke="#e67700" stroke-width="1" fill="none"></path></g><g transform="translate(61.5 167.5) rotate(0 20.5 12.5)"><text x="20.5" y="18" font-family="Virgil, Segoe UI Emoji" font-size="20px" fill="#000000" text-anchor="middle" style="white-space: pre;" direction="ltr">Edit</text></g><g stroke-linecap="round" transform="translate(170 163) rotate(0 46.5 17)"><path d="M-0.78 1.24 C22.29 0.65, 46.28 -0.58, 93.19 1.82 M-0.1 0.63 C28.75 -1.23, 55.7 -1.45, 92.67 0.76 M92.44 -0.58 C93.49 13.45, 94.53 27.21, 91.53 34.59 M92.21 0.23 C93.31 14.27, 93.69 26.18, 93.63 33.5 M91.23 32.65 C58.22 32.37, 21.69 34, 0.94 32.99 M92.52 33.48 C68.08 33.16, 41.78 33.6, 0.58 33.32 M0.31 32.14 C0.21 23, -1.39 10, -0.34 -1.58 M0.89 33.69 C0.5 24.8, -0.89 16.58, 0.59 0.15" stroke="#862e9c" stroke-width="1" fill="none"></path></g><g transform="translate(185.5 167.5) rotate(0 31 12.5)"><text x="31" y="18" font-family="Virgil, Segoe UI Emoji" font-size="20px" fill="#000000" text-anchor="middle" style="white-space: pre;" direction="ltr">Cancel</text></g><g transform="translate(45 74) rotate(0 24 12.5)"><text x="0" y="18" font-family="Virgil, Segoe UI Emoji" font-size="20px" fill="#000000" text-anchor="start" style="white-space: pre;" direction="ltr">Title</text></g><g transform="translate(56 22) rotate(0 94.5 17.5)"><text x="94.5" y="25" font-family="Virgil, Segoe UI Emoji" font-size="28px" fill="#000000" text-anchor="middle" style="white-space: pre;" direction="ltr">Edit category</text></g><g transform="translate(45.5 111.5) rotate(0 31.5 12.5)"><text x="0" y="18" font-family="Virgil, Segoe UI Emoji" font-size="20px" fill="#000000" text-anchor="start" style="white-space: pre;" direction="ltr">Movies</text></g></svg>