<svg version="1.1" xmlns="http://www.w3.org/2000/svg" viewBox="0 0 698 296" width="698" height="296">
  <!-- svg-source:excalidraw -->
  
  <defs>
    <style>
      @font-face {
        font-family: "Virgil";
        src: url("https://excalidraw.com/Virgil.woff2");
      }
      @font-face {
        font-family: "Cascadia";
        src: url("https://excalidraw.com/Cascadia.woff2");
      }
    </style>
  </defs>
  <rect x="0" y="0" width="698" height="296" fill="#ffffff"></rect><g stroke-linecap="round" transform="translate(10 37.5) rotate(0 339 35)"><path d="M-0.63 -0.71 C189.57 -1.78, 380.18 -1.33, 678.34 0.38 M-0.27 -0.23 C166.16 -0.34, 332.59 -1.01, 677.84 -0.15 M677.59 -1.14 C680.34 22.67, 678.23 47.9, 679.52 68 M678.93 0.22 C677.47 25.86, 677.79 53.47, 677.91 70.2 M678.71 69.31 C521.93 68.54, 366.69 68.8, 0.6 69.52 M677.82 70.06 C460.9 70.62, 244.2 70.93, 0.2 69.93 M-1.93 71.04 C0.56 52.65, -1.6 34.69, -0.72 -0.2 M-0.23 70.78 C-0.2 49.42, 0.99 29.22, 0.96 -0.11" stroke="#000000" stroke-width="1" fill="none"></path></g><g transform="translate(24 64.5) rotate(0 44 12.5)"><text x="0" y="18" font-family="Virgil, Segoe UI Emoji" font-size="20px" fill="#000000" text-anchor="start" style="white-space: pre;" direction="ltr">Category</text></g><g transform="translate(165 62) rotate(0 20 12.5)"><text x="0" y="18" font-family="Virgil, Segoe UI Emoji" font-size="20px" fill="#2b8a3e" text-anchor="start" style="white-space: pre;" direction="ltr">1.174</text></g><g transform="translate(256 63) rotate(0 16 12.5)"><text x="0" y="18" font-family="Virgil, Segoe UI Emoji" font-size="20px" fill="#c92a2a" text-anchor="start" style="white-space: pre;" direction="ltr">314</text></g><g transform="translate(341 61) rotate(0 31 12.5)"><text x="0" y="18" font-family="Virgil, Segoe UI Emoji" font-size="20px" fill="#1864ab" text-anchor="start" style="white-space: pre;" direction="ltr">78,9%</text></g><g stroke-linecap="round" transform="translate(454.5 60.5) rotate(0 41.5 16)"><path d="M-0.02 0.84 C18.29 -0.66, 34.65 0.98, 81.67 -1.15 M-0.68 -0.4 C19.9 0.88, 41.3 0.87, 82.79 -0.57 M81.79 1.52 C80.7 14.09, 81.32 26.7, 84.86 32.44 M83.46 -0.09 C82.99 8.74, 83.24 18.5, 83.89 31.14 M82.5 33.49 C58.7 32.9, 36.68 33, -0.89 32.32 M83.65 32.51 C63.23 31.29, 43.27 32.48, -0.97 32.52 M0.08 31.28 C-0.26 22.05, -1.49 13.97, -0.46 1.56 M0.93 32.96 C-0.2 24.28, 0.51 16.31, -0.52 -0.43" stroke="#e67700" stroke-width="1" fill="none"></path></g><g transform="translate(476.5 64) rotate(0 20.5 12.5)"><text x="20.5" y="18" font-family="Virgil, Segoe UI Emoji" font-size="20px" fill="#000000" text-anchor="middle" style="white-space: pre;" direction="ltr">Edit</text></g><g stroke-linecap="round" transform="translate(571.5 59.5) rotate(0 41.5 16)"><path d="M0.95 -1.09 C20.51 0.19, 39.78 -1.5, 81.89 2 M-0.38 0.51 C21.93 0.84, 42.18 -0.24, 83.91 -0.94 M81 1.57 C81.43 10.81, 84.66 18.73, 82.9 30.72 M83.2 -0.7 C83.59 10.09, 84.03 20.06, 82.78 31.42 M81.8 32.4 C52.95 33.12, 22.26 32.94, -1.28 31.73 M82.83 31.53 C59.98 33.14, 37.05 32.94, 0.1 32.17 M-0.2 31.96 C-1.45 27.33, -0.48 20.65, -1.41 0.56 M-0.11 31.62 C0.31 19.84, -0.81 9.23, 0.62 0.01" stroke="#c92a2a" stroke-width="1" fill="none"></path></g><g transform="translate(578.5 64) rotate(0 32.5 12.5)"><text x="32.5" y="18" font-family="Virgil, Segoe UI Emoji" font-size="20px" fill="#000000" text-anchor="middle" style="white-space: pre;" direction="ltr">Delete</text></g><g stroke-linecap="round" transform="translate(10 111.5) rotate(0 339 35)"><path d="M-0.02 0.22 C231.4 1.02, 463.42 2.28, 677.64 -0.54 M0.29 0.2 C176.23 -1.61, 352.98 -1.76, 677.94 -0.24 M676.62 1.67 C679.16 26.76, 677.2 51.34, 678.54 70.91 M678.44 -0.37 C679.03 19.48, 677.92 40.1, 678.61 69.75 M677.95 70.2 C423.67 70.67, 169.55 70.43, -0.23 70.52 M677.79 70.29 C439.78 68.93, 202.36 68.79, -0.39 70.02 M-1.43 71.78 C-0.39 53.07, -1.34 33.57, 0.98 1.86 M0.6 69.01 C-0.44 41.84, 0.7 14.55, 0.46 -0.43" stroke="#000000" stroke-width="1" fill="none"></path></g><g transform="translate(24 138.5) rotate(0 44 12.5)"><text x="0" y="18" font-family="Virgil, Segoe UI Emoji" font-size="20px" fill="#000000" text-anchor="start" style="white-space: pre;" direction="ltr">Category</text></g><g transform="translate(165 136) rotate(0 20 12.5)"><text x="0" y="18" font-family="Virgil, Segoe UI Emoji" font-size="20px" fill="#2b8a3e" text-anchor="start" style="white-space: pre;" direction="ltr">1.174</text></g><g transform="translate(256 137) rotate(0 16 12.5)"><text x="0" y="18" font-family="Virgil, Segoe UI Emoji" font-size="20px" fill="#c92a2a" text-anchor="start" style="white-space: pre;" direction="ltr">314</text></g><g transform="translate(341 135) rotate(0 31 12.5)"><text x="0" y="18" font-family="Virgil, Segoe UI Emoji" font-size="20px" fill="#1864ab" text-anchor="start" style="white-space: pre;" direction="ltr">78,9%</text></g><g stroke-linecap="round" transform="translate(454.5 134.5) rotate(0 41.5 16)"><path d="M2 -0.89 C18.04 -0.34, 38.03 1.48, 84.46 1.01 M-0.94 -0.14 C22.59 0, 45.39 0.03, 82.31 0.84 M81.72 0.54 C83.98 12.39, 83.47 23.75, 83.88 31.26 M82.42 0.61 C82.47 13.18, 82.12 25.07, 82.94 32.25 M82.73 31.42 C63.08 32.49, 40.23 30.52, -1.06 33.44 M83.17 31.02 C66.15 31.72, 49.12 32.06, -0.72 32.89 M0.56 32.98 C1.61 25.07, -0.46 13.53, 1.21 -1.98 M0.01 32.46 C-0.29 24.52, 0.52 15.97, -0.28 0.28" stroke="#e67700" stroke-width="1" fill="none"></path></g><g transform="translate(476.5 138) rotate(0 20.5 12.5)"><text x="20.5" y="18" font-family="Virgil, Segoe UI Emoji" font-size="20px" fill="#000000" text-anchor="middle" style="white-space: pre;" direction="ltr">Edit</text></g><g stroke-linecap="round" transform="translate(571.5 133.5) rotate(0 41.5 16)"><path d="M-1.36 -0.8 C19.52 1.39, 42.03 1.38, 82.59 -1.14 M-0.61 0.76 C31.47 0.91, 64.24 0.95, 83.93 0.22 M83.91 -0.19 C83.19 8.03, 83.68 18.14, 84.77 30.28 M82.75 0.75 C82.21 9.1, 82.75 18.06, 82.56 32.16 M84.3 33.02 C63.06 30.81, 42.74 33.19, -1.93 33.04 M83.04 31.64 C57.21 31.16, 30.9 32.08, -0.23 32.78 M1.86 33.92 C-0.3 23.9, 1.12 15.32, -1.03 -0.86 M-0.43 32.47 C0.38 20.28, -0.28 9.1, 0.38 0.44" stroke="#c92a2a" stroke-width="1" fill="none"></path></g><g transform="translate(578.5 138) rotate(0 32.5 12.5)"><text x="32.5" y="18" font-family="Virgil, Segoe UI Emoji" font-size="20px" fill="#000000" text-anchor="middle" style="white-space: pre;" direction="ltr">Delete</text></g><g stroke-linecap="round" transform="translate(10 188.5) rotate(0 339 35)"><path d="M-0.31 0.41 C173.72 1.49, 346.11 0.63, 678.73 -0.75 M-0.4 0.31 C193.42 -1.72, 387.77 -1.97, 677.98 -0.26 M678.4 -1.4 C679.2 22.15, 680.09 44.05, 677.57 68.84 M677.4 0.2 C677.77 25.49, 677.38 50.64, 677.36 69.87 M677.87 69.62 C493.84 71.95, 309.76 71.79, 0.08 70.14 M677.96 69.99 C540.98 69.39, 404.44 69.34, -0.28 70.11 M-0.21 69.25 C0.56 43.59, -1.68 20.28, 1.24 0.02 M0.38 69.87 C0.02 46.09, 0.68 22.05, 0.95 0.85" stroke="#000000" stroke-width="1" fill="none"></path></g><g transform="translate(24 215.5) rotate(0 44 12.5)"><text x="0" y="18" font-family="Virgil, Segoe UI Emoji" font-size="20px" fill="#000000" text-anchor="start" style="white-space: pre;" direction="ltr">Category</text></g><g transform="translate(165 213) rotate(0 20 12.5)"><text x="0" y="18" font-family="Virgil, Segoe UI Emoji" font-size="20px" fill="#2b8a3e" text-anchor="start" style="white-space: pre;" direction="ltr">1.174</text></g><g transform="translate(256 214) rotate(0 16 12.5)"><text x="0" y="18" font-family="Virgil, Segoe UI Emoji" font-size="20px" fill="#c92a2a" text-anchor="start" style="white-space: pre;" direction="ltr">314</text></g><g transform="translate(341 212) rotate(0 31 12.5)"><text x="0" y="18" font-family="Virgil, Segoe UI Emoji" font-size="20px" fill="#1864ab" text-anchor="start" style="white-space: pre;" direction="ltr">78,9%</text></g><g stroke-linecap="round" transform="translate(454.5 211.5) rotate(0 41.5 16)"><path d="M-1.14 1.82 C29.09 -0.12, 60.75 1.69, 81 1.57 M0.22 -0.05 C18.55 -0.5, 38.84 -0.87, 83.2 -0.7 M81.28 -0.43 C81.72 12.22, 82.38 23.51, 81.8 32.4 M83.16 -0.64 C82.95 9.12, 83.73 19.33, 82.83 31.53 M84.04 32.19 C62.83 29.23, 42.05 30.48, -0.2 31.96 M83.78 31.3 C64.33 32.3, 46.03 32.77, -0.11 31.62 M-0.86 33.24 C0.33 21.38, -0.54 9.87, 0.76 -0.26 M0.44 32.95 C0.76 23.41, 0.44 13.61, -0.36 -0.46" stroke="#e67700" stroke-width="1" fill="none"></path></g><g transform="translate(476.5 215) rotate(0 20.5 12.5)"><text x="20.5" y="18" font-family="Virgil, Segoe UI Emoji" font-size="20px" fill="#000000" text-anchor="middle" style="white-space: pre;" direction="ltr">Edit</text></g><g stroke-linecap="round" transform="translate(571.5 210.5) rotate(0 41.5 16)"><path d="M-1.89 -0.29 C21.98 0.76, 44.39 0.82, 81.62 1.67 M-0.64 0.27 C33.07 -0.05, 65.42 -0.66, 83.44 -0.37 M81.84 1.21 C82.22 13.93, 81.52 25.27, 82.88 32.5 M82.87 -0.29 C83.7 8.69, 82.88 15.89, 82.47 32.72 M83.35 30.03 C66.19 31.36, 49.02 32.04, -1.43 33.78 M83.28 32.49 C60.96 32.38, 36.95 31.04, 0.6 31.01 M0.02 32.91 C-0.72 24.99, 0.9 15.83, -0.56 0.56 M0.85 32.12 C0.39 20.2, -0.5 9.89, 0.19 0.58" stroke="#c92a2a" stroke-width="1" fill="none"></path></g><g transform="translate(578.5 215) rotate(0 32.5 12.5)"><text x="32.5" y="18" font-family="Virgil, Segoe UI Emoji" font-size="20px" fill="#000000" text-anchor="middle" style="white-space: pre;" direction="ltr">Delete</text></g><g stroke-linecap="round" transform="translate(133 10) rotate(0 225 138)"><path d="M0.05 -0.24 L451.14 1.25 L451.05 277.23 L-1.52 275.05" stroke="none" stroke-width="0" fill="#868e96"></path><path d="M-0.03 0.24 C142.88 -1.3, 286.21 -1.78, 449.79 -0.87 M0.01 0.13 C148.41 -1.16, 296.5 -0.78, 450.45 -0.44 M449.88 -0.32 C451.87 79.92, 450.76 159.91, 451.2 277.25 M449.62 0.44 C449.97 100.7, 449.78 200.4, 449.41 275.34 M449.52 276.57 C335.28 277.4, 218.79 277.92, 0.55 276.81 M449.66 275.79 C280.24 275.34, 109.88 275.43, 0.23 275.77 M-0.38 276.36 C0.82 211.43, 1.2 148.36, 1.29 1.53 M-0.54 275.24 C-0.06 215.43, 0.1 156.24, 0.55 -0.44" stroke="#000000" stroke-width="1" fill="none"></path></g><g transform="translate(220 56) rotate(0 114.5 12.5)"><text x="0" y="18" font-family="Virgil, Segoe UI Emoji" font-size="20px" fill="#000000" text-anchor="start" style="white-space: pre;" direction="ltr">Are you sure to delete</text></g><g transform="translate(299 113) rotate(0 42.5 12.5)"><text x="0" y="18" font-family="Virgil, Segoe UI Emoji" font-size="20px" fill="#000000" text-anchor="start" style="white-space: pre;" direction="ltr">category</text></g><g stroke-linecap="round" transform="translate(208 217) rotate(0 54 19.5)"><path d="M-0.78 0.87 L109.96 1.65 L106.79 39.71 L1.53 40.82" stroke="none" stroke-width="0" fill="#868e96"></path><path d="M0.7 0.08 C25.51 0.53, 47.52 -0.49, 107.33 0.74 M0.52 0.31 C36.56 -1.04, 72.83 0.29, 107.59 -0.59 M107.12 -1.84 C107.02 9.03, 108.59 16.94, 106.2 40.97 M108.93 0.33 C108.6 9.32, 107.43 18.69, 107.45 39.11 M107.4 37.43 C75.93 38.46, 48.05 40.7, 0.75 38.54 M107.33 38.34 C67.59 38.88, 27.33 39.44, -0.55 39.11 M0.37 37.85 C1.66 28.48, -1.48 15.96, -1.95 0.84 M0.54 39.44 C-0.39 30.63, 0 20.71, -0.94 -0.46" stroke="#2b8a3e" stroke-width="1" fill="none"></path></g><g stroke-linecap="round" transform="translate(404 215) rotate(0 59 21)"><path d="M-0.69 0.59 L118.62 0.79 L118.42 42.07 L-0.31 40.92" stroke="none" stroke-width="0" fill="#868e96"></path><path d="M-0.6 -1.57 C32.13 -0.36, 68.46 1.87, 118.75 -0.46 M-0.67 -0.66 C44.54 -1.53, 89.24 -0.97, 117.45 0.11 M118.37 -1.15 C119.02 14.55, 115.88 27.12, 116.05 42.84 M118.54 0.44 C117.77 11.07, 118.16 20.59, 117.06 41.54 M119.65 40.79 C87.9 44.68, 58.2 41.82, 1.86 42.8 M118.53 41.01 C85.47 40.97, 54.25 42.1, -0.05 42.72 M0.51 42.14 C-1.62 28.85, 1.94 15.43, 1.49 -1.03 M0.93 41.16 C-0.33 28.17, -0.94 13.82, 0.54 0.62" stroke="#a61e4d" stroke-width="1" fill="none"></path></g><g transform="translate(229.5 224) rotate(0 32.5 12.5)"><text x="32.5" y="18" font-family="Virgil, Segoe UI Emoji" font-size="20px" fill="#000000" text-anchor="middle" style="white-space: pre;" direction="ltr">Delete</text></g><g transform="translate(432 223.5) rotate(0 31 12.5)"><text x="31" y="18" font-family="Virgil, Segoe UI Emoji" font-size="20px" fill="#000000" text-anchor="middle" style="white-space: pre;" direction="ltr">Cancel</text></g></svg>