<svg version="1.1" xmlns="http://www.w3.org/2000/svg" viewBox="0 0 286 426" width="286" height="426">
  <!-- svg-source:excalidraw -->
  
  <defs>
    <style>
      @font-face {
        font-family: "Virgil";
        src: url("https://excalidraw.com/Virgil.woff2");
      }
      @font-face {
        font-family: "Cascadia";
        src: url("https://excalidraw.com/Cascadia.woff2");
      }
    </style>
  </defs>
  <rect x="0" y="0" width="286" height="426" fill="#ffffff"></rect><g stroke-linecap="round" transform="translate(10 10) rotate(0 133 80.5)"><path d="M1.5 0.47 C84.44 -1.46, 166.97 -0.7, 265.68 1.3 M-0.45 0.37 C64.74 0.42, 129.46 0.29, 265.33 0.62 M265.6 -1.77 C262.86 52.83, 263.54 105, 264.79 160.35 M266.23 0.25 C265.86 49.04, 264.75 99.95, 265.13 160.34 M265.8 160.71 C184.15 161.06, 99.22 160.08, 1.52 160.61 M265.78 161.73 C163.83 161.21, 61.66 161.87, 0.52 161.65 M1.13 160.53 C-1.27 109.19, 0.29 57.91, 0.9 -0.62 M0.05 161.43 C-2.02 117.71, -1.99 76.22, -0.92 0.62" stroke="#000000" stroke-width="1" fill="none"></path></g><g transform="translate(35 33) rotate(0 44 12.5)"><text x="0" y="18" font-family="Virgil, Segoe UI Emoji" font-size="20px" fill="#000000" text-anchor="start" style="white-space: pre;" direction="ltr">Category</text></g><g transform="translate(48 75) rotate(0 20 12.5)"><text x="0" y="18" font-family="Virgil, Segoe UI Emoji" font-size="20px" fill="#2b8a3e" text-anchor="start" style="white-space: pre;" direction="ltr">1.174</text></g><g transform="translate(126 74) rotate(0 16 12.5)"><text x="0" y="18" font-family="Virgil, Segoe UI Emoji" font-size="20px" fill="#c92a2a" text-anchor="start" style="white-space: pre;" direction="ltr">314</text></g><g stroke-linecap="round" transform="translate(30 118) rotate(0 41.5 16)"><path d="M1.14 -0.89 C26.98 2.42, 53.63 1.77, 82.36 -1.13 M0.74 -0.48 C27.94 1.04, 57.83 -0.52, 82.35 -0.2 M81.81 0.28 C81.49 6.12, 82.91 13.11, 81.79 32.45 M82.09 0.05 C82.2 9.75, 83.18 20.35, 83.03 31.87 M81.48 30.74 C61.54 31.5, 37.91 33.19, 0.4 31.45 M82.96 32.57 C51.13 32.6, 18.13 31.49, 0.43 32.56 M-0.18 31.46 C1.17 22.53, -0.41 15.84, 0.25 0.1 M-0.76 32.72 C-0.67 21.64, 0.59 10.88, 0 0.59" stroke="#e67700" stroke-width="1" fill="none"></path></g><g transform="translate(52 121.5) rotate(0 20.5 12.5)"><text x="20.5" y="18" font-family="Virgil, Segoe UI Emoji" font-size="20px" fill="#000000" text-anchor="middle" style="white-space: pre;" direction="ltr">Edit</text></g><g stroke-linecap="round" transform="translate(163 118) rotate(0 41.5 16)"><path d="M-0.41 1.65 C16.08 1.37, 33.82 -0.77, 83.94 0.78 M-0.85 0.78 C22.51 -0.38, 43.88 0.2, 82.11 -0.94 M81.79 -0.65 C83.01 9.93, 81.6 21.14, 83.5 32.39 M82.13 -0.66 C82.82 6.21, 82.74 13.23, 82.82 32.6 M84.92 31.51 C59.86 32.68, 33.75 30.92, 1.84 31.97 M83.66 32.82 C60.49 32.18, 38.04 33.03, -0.23 31.13 M0.9 31.38 C-0.66 24.78, 0.27 14.6, 0.86 -1.57 M-0.92 32.62 C0.58 24.96, 0.24 16.83, -0.93 0.95" stroke="#c92a2a" stroke-width="1" fill="none"></path></g><g transform="translate(172 122.5) rotate(0 32.5 12.5)"><text x="32.5" y="18" font-family="Virgil, Segoe UI Emoji" font-size="20px" fill="#000000" text-anchor="middle" style="white-space: pre;" direction="ltr">Delete</text></g><g transform="translate(195 74) rotate(0 31 12.5)"><text x="0" y="18" font-family="Virgil, Segoe UI Emoji" font-size="20px" fill="#1864ab" text-anchor="start" style="white-space: pre;" direction="ltr">78,9%</text></g><g stroke-linecap="round" transform="translate(10 194) rotate(0 133 111)"><path d="M1.06 1.26 C96.2 3.13, 192.17 2.62, 266.51 0.88 M-0.53 0.04 C76.2 -0.76, 152.44 -0.82, 265.95 0.74 M264.28 1.21 C264.28 54.55, 265.03 108.8, 266.5 220.89 M265.37 -0.04 C264.27 72.1, 263.44 143.5, 266.24 221.89 M266.39 220.87 C175.18 222.32, 85.6 222.61, 0.98 221.25 M266.11 222.39 C188.65 222.56, 111.79 223.49, -0.5 221.57 M1.03 223.13 C-1.32 145.35, 1.22 64.66, -0.49 1.39 M-0.46 221.73 C1.46 174.99, 2.03 125.94, 0.26 0.67" stroke="#000000" stroke-width="1" fill="none"></path></g><g transform="translate(35 217) rotate(0 44 12.5)"><text x="0" y="18" font-family="Virgil, Segoe UI Emoji" font-size="20px" fill="#000000" text-anchor="start" style="white-space: pre;" direction="ltr">Category</text></g><g transform="translate(48 259) rotate(0 20 12.5)"><text x="0" y="18" font-family="Virgil, Segoe UI Emoji" font-size="20px" fill="#2b8a3e" text-anchor="start" style="white-space: pre;" direction="ltr">1.174</text></g><g transform="translate(126 258) rotate(0 16 12.5)"><text x="0" y="18" font-family="Virgil, Segoe UI Emoji" font-size="20px" fill="#c92a2a" text-anchor="start" style="white-space: pre;" direction="ltr">314</text></g><g stroke-linecap="round" transform="translate(35 365) rotate(0 41.5 16)"><path d="M-0.64 0.86 C32.19 0.49, 62.83 -1.08, 83.68 -1.34 M-0.44 -0.14 C25.24 0.99, 50.02 -0.14, 83.57 -1 M82.3 1.75 C83.32 10.55, 83.22 21.81, 83.06 30.53 M82.1 -0.16 C83.3 9.32, 83.4 19.67, 82.82 32.24 M82.66 33.24 C65.29 31.41, 44.87 32.12, 0.98 32.29 M82.02 32.57 C53.42 30.96, 25.62 31.43, -0.15 32.6 M1.23 30.28 C-0.29 21.91, -1.42 7.2, -0.13 -1.07 M0.8 31.54 C0.26 24.17, -0.51 14.68, 0.1 0.22" stroke="#5c940d" stroke-width="1" fill="none"></path></g><g transform="translate(43 371.5) rotate(0 32.5 12.5)"><text x="32.5" y="18" font-family="Virgil, Segoe UI Emoji" font-size="20px" fill="#000000" text-anchor="middle" style="white-space: pre;" direction="ltr">Delete</text></g><g stroke-linecap="round" transform="translate(166 368) rotate(0 41.5 16)"><path d="M0.65 1.11 C30.9 -0.81, 62.98 -1.7, 83.1 -0.5 M-0.06 0.93 C23.78 -0.08, 49.29 -0.88, 83.7 -0.78 M83.57 -1.28 C83.36 9.42, 82.95 21.1, 82.9 32.12 M83.28 -0.13 C83.1 11.42, 82.54 21.51, 82.28 31.52 M84.24 31.05 C54.24 32.27, 26.94 32.8, 0.97 30.4 M82.37 31.45 C63.57 32.4, 42.96 33.07, 0.66 31.15 M-0.57 33.61 C-1.89 18.63, -0.32 7, -0.63 0.27 M0.3 32.77 C-0.73 19.21, -0.15 6.9, -0.95 -0.3" stroke="#c92a2a" stroke-width="1" fill="none"></path></g><g transform="translate(176.5 372.5) rotate(0 31 12.5)"><text x="31" y="18" font-family="Virgil, Segoe UI Emoji" font-size="20px" fill="#000000" text-anchor="middle" style="white-space: pre;" direction="ltr">Cancel</text></g><g transform="translate(195 258) rotate(0 31 12.5)"><text x="0" y="18" font-family="Virgil, Segoe UI Emoji" font-size="20px" fill="#1864ab" text-anchor="start" style="white-space: pre;" direction="ltr">78,9%</text></g><g transform="translate(53 308) rotate(0 95 17.5)"><text x="0" y="25" font-family="Virgil, Segoe UI Emoji" font-size="28px" fill="#000000" text-anchor="start" style="white-space: pre;" direction="ltr">Are you sure?</text></g></svg>